<mxfile host="app.diagrams.net" modified="2021-12-23T13:20:45.021Z" agent="5.0 (Windows NT 10.0; Win64; x64) AppleWebKit/537.36 (KHTML, like Gecko) Chrome/92.0.4515.159 Safari/537.36" etag="jZB00lu2HYnDVSesZxII" version="16.0.3" type="github">
  <diagram id="9lZCfg6CR5FOYMiToBTt" name="Page-1">
    <mxGraphModel dx="2424" dy="755" grid="1" gridSize="10" guides="1" tooltips="1" connect="1" arrows="1" fold="1" page="1" pageScale="1" pageWidth="827" pageHeight="1169" math="0" shadow="0">
      <root>
        <mxCell id="0" />
        <mxCell id="1" parent="0" />
        <mxCell id="WrSv1xXUgQNj0wUz3mzL-15" style="edgeStyle=orthogonalEdgeStyle;rounded=0;orthogonalLoop=1;jettySize=auto;html=1;exitX=0;exitY=0.5;exitDx=0;exitDy=0;fontSize=18;fontColor=#7F00FF;" edge="1" parent="1" source="WrSv1xXUgQNj0wUz3mzL-1" target="WrSv1xXUgQNj0wUz3mzL-14">
          <mxGeometry relative="1" as="geometry" />
        </mxCell>
        <mxCell id="WrSv1xXUgQNj0wUz3mzL-1" value="专题型讲座" style="rounded=1;whiteSpace=wrap;html=1;fontSize=14;" vertex="1" parent="1">
          <mxGeometry x="320" y="232.40999999999997" width="120" height="60" as="geometry" />
        </mxCell>
        <mxCell id="WrSv1xXUgQNj0wUz3mzL-6" style="edgeStyle=orthogonalEdgeStyle;rounded=0;orthogonalLoop=1;jettySize=auto;html=1;exitX=1;exitY=0.5;exitDx=0;exitDy=0;entryX=0;entryY=0.5;entryDx=0;entryDy=0;fontSize=14;" edge="1" parent="1" source="WrSv1xXUgQNj0wUz3mzL-3">
          <mxGeometry relative="1" as="geometry">
            <mxPoint x="570" y="462.90999999999985" as="targetPoint" />
          </mxGeometry>
        </mxCell>
        <mxCell id="WrSv1xXUgQNj0wUz3mzL-10" value="职场晋升" style="edgeStyle=orthogonalEdgeStyle;rounded=0;orthogonalLoop=1;jettySize=auto;html=1;exitX=0.5;exitY=0;exitDx=0;exitDy=0;fontSize=14;" edge="1" parent="1" source="WrSv1xXUgQNj0wUz3mzL-3" target="WrSv1xXUgQNj0wUz3mzL-1">
          <mxGeometry relative="1" as="geometry">
            <Array as="points">
              <mxPoint x="380" y="332.40999999999985" />
              <mxPoint x="380" y="332.40999999999985" />
            </Array>
          </mxGeometry>
        </mxCell>
        <mxCell id="WrSv1xXUgQNj0wUz3mzL-3" value="茶话会" style="rounded=1;whiteSpace=wrap;html=1;fontSize=14;" vertex="1" parent="1">
          <mxGeometry x="320" y="432.40999999999985" width="120" height="60" as="geometry" />
        </mxCell>
        <mxCell id="WrSv1xXUgQNj0wUz3mzL-7" style="edgeStyle=orthogonalEdgeStyle;rounded=0;orthogonalLoop=1;jettySize=auto;html=1;entryX=0;entryY=0.5;entryDx=0;entryDy=0;fontSize=14;" edge="1" parent="1" source="WrSv1xXUgQNj0wUz3mzL-4" target="WrSv1xXUgQNj0wUz3mzL-3">
          <mxGeometry relative="1" as="geometry">
            <Array as="points">
              <mxPoint x="280" y="660.4099999999999" />
              <mxPoint x="280" y="462.40999999999985" />
            </Array>
          </mxGeometry>
        </mxCell>
        <mxCell id="WrSv1xXUgQNj0wUz3mzL-9" value="鸠占鹊巢" style="edgeLabel;html=1;align=center;verticalAlign=middle;resizable=0;points=[];fontSize=14;" vertex="1" connectable="0" parent="WrSv1xXUgQNj0wUz3mzL-7">
          <mxGeometry x="0.202" y="-1" relative="1" as="geometry">
            <mxPoint as="offset" />
          </mxGeometry>
        </mxCell>
        <mxCell id="WrSv1xXUgQNj0wUz3mzL-4" value="急需型讲座" style="rounded=1;whiteSpace=wrap;html=1;fontSize=14;" vertex="1" parent="1">
          <mxGeometry x="320" y="630.4099999999999" width="120" height="60" as="geometry" />
        </mxCell>
        <mxCell id="WrSv1xXUgQNj0wUz3mzL-5" value="放飞自我吧" style="text;html=1;strokeColor=none;fillColor=none;align=center;verticalAlign=middle;whiteSpace=wrap;rounded=0;fontSize=18;fontColor=#7F00FF;" vertex="1" parent="1">
          <mxGeometry x="590" y="437.40999999999997" width="86" height="55" as="geometry" />
        </mxCell>
        <mxCell id="WrSv1xXUgQNj0wUz3mzL-12" style="edgeStyle=orthogonalEdgeStyle;rounded=0;orthogonalLoop=1;jettySize=auto;html=1;exitX=0;exitY=0.5;exitDx=0;exitDy=0;fontSize=14;" edge="1" parent="1">
          <mxGeometry relative="1" as="geometry">
            <mxPoint x="410" y="332.40999999999985" as="targetPoint" />
            <mxPoint x="510" y="332.4100000000003" as="sourcePoint" />
          </mxGeometry>
        </mxCell>
        <mxCell id="WrSv1xXUgQNj0wUz3mzL-11" value="1. 主讲人愿意扩展开来讲&lt;br&gt;2. 有人愿意加入进来&lt;br&gt;3. 符合专题型讲座内容" style="text;html=1;strokeColor=none;fillColor=none;align=center;verticalAlign=middle;whiteSpace=wrap;rounded=0;fontSize=14;" vertex="1" parent="1">
          <mxGeometry x="550" y="310" width="220" height="30" as="geometry" />
        </mxCell>
        <mxCell id="WrSv1xXUgQNj0wUz3mzL-14" value="" style="shape=image;verticalLabelPosition=bottom;labelBackgroundColor=#ffffff;verticalAlign=top;aspect=fixed;imageAspect=0;image=data:image/png,iVBORw0KGgoAAAANSUhEUgAABeIAAALVCAYAAACsp5GpAAAgAElEQVR4Aezd2ZskVb0/6t/t/gPOzXn29TkX5zkX5znbAzhC04DNIAiiDcIWJ0ZRZBIRFQScUBEVFd0goMgoCi0qsEFBtltGARkEGxSauWnJyIzSZt+s83yzXFFR0ZlZVd2VWVmZ70U9kRlzrPVGrMxPrIr8XzMz/5P8KQMGGGCAAQYYYIABBhhggAEGGGCAAQYYYIABBoZj4H8p2OEUrHJVrgwwwAADDDDAAAMMMMAAAwwwwAADDDDAAANhQBDvPwL8RwQDDDDAAAMMMMAAAwwwwAADDDDAAAMMMMDAEA0I4odYuO52udvFAAMMMMAAAwwwwAADDDDAAAMMMMAAAwwwIIgXxLvTxQADDDDAAAMMMMAAAwwwwAADDDDAAAMMMDBEA4L4IRauO13udDHAAAMMMMAAAwwwwAADDDDAAAMMMMAAAwwI4gXx7nQxwAADDDDAAAMMMMAAAwwwwAADDDDAAAMMDNGAIH6IhetOlztdDDDAAAMMMMAAAwwwwAADDDDAAAMMMMAAA4J4Qbw7XQwwwAADDDDAAAMMMMAAAwwwwAADDDDAAANDNCCIH2LhutPlThcDDDDAAAMMMMAAAwwwwAADDDDAAAMMMMCAIF4Q704XAwwwwAADDDDAAAMMMMAAAwwwwAADDDDAwBANCOKHWLjudLnTxQADDDDAAAMMMMAAAwwwwAADDDDAAAMMMCCIF8S708UAAwwwwAADDDDAAAMMMMAAAwwwwAADDDAwRAOC+CEWrjtd7nQxwAADDDDAAAMMMMAAAwwwwAADDDDAAAMMCOIF8e50McAAAwwwwAADDDDAAAMMMMAAAwwwwAADDAzRgCB+iIXrTpc7XQwwwAADDDDAAAMMMMAAAwwwwAADDDDAAAOCeEG8O10MMMAAAwwwwAADDDDAAAMMMMAAAwwwwAADQzQgiB9i4brT5U4XAwwwwAADDDDAAAMMMMAAAwwwwAADDDDAgCBeEO9OFwMMMMAAAwwwwAADDDDAAAMMMMAAAwwwwMAQDQjih1i47nS508UAAwwwwAADDDDAAAMMMMAAAwwwwAADDDAgiBfEu9PFAAMMMMAAAwwwwAADDDDAAAMMMMAAAwwwMEQDgvghFq47Xe50McAAAwwwwAADDDDAAAMMMMAAAwwwwAADDAjiBfHudDHAAAMMMMAAAwwwwAADDDDAAAMMMMAAAwwM0YAgfoiF606XO10MMMAAAwwwwAADDDDAAAMMMMAAAwwwwAADgnhBvDtdDDDAAAMMMMAAAwwwwAADDDDAAAMMMMAAA0M0IIgfYuG60+VOFwMMMMAAAwwwwAADDDDAAAMMMMAAAwwwwIAgXhDvThcDDDDAAAMMMMAAAwwwwAADDDDAAAMMMMDAEA0I4odYuO50udPFAAMMMMAAAwwwwAADDDDAAAMMMMAAAwwwIIgXxLvTxQADDDDAAAMMMMAAAwwwwAADDDDAAAMMMDBEA4L4IRauO13udDHAAAMMMMAAAwwwwAADDDDAAAMMMMAAAwwI4gXx7nQxwAADDDDAAAMMMMAAAwwwwAADDDDAAAMMDNGAIH6IhetOlztdDDDAAAMMMMAAAwwwwAADDDDAAAMMMMAAA4J4Qbw7XQwwwAADDDDAAAMMMMAAAwwwwAADDDDAAANDNCCIH2LhutPlThcDDDDAAAMMMMAAAwwwwAADDDDAAAMMMMCAIF4Q704XAwwwwAADDDDAAAMMMMAAAwwwwAADDDDAwBANCOKHWLjudLnTxQADDDDAAAMMMMAAAwwwwAADDDDAAAMMMCCIF8S708UAAwwwwAADDDDAAAMMMMAAAwwwwAADDDAwRAOC+CEWrjtd7nQxwAADDDDAAAMMMMAAAwwwwAADDDDAAAMMCOIF8e50McAAAwwwwAADDDDAAAMMMMAAAwwwwAADDAzRgCB+iIXrTpc7XQwwwAADDDDAAAMMMMAAAwwwwAADDDDAAAOCeEG8O10MMMAAAwwwwAADDDDAAAMMMMAAAwwwwAADQzQgiB9i4brT5U4XAwwwwAADDDDAAAMMMMAAAwwwwAADDDDAgCBeEO9OFwMMMMAAAwwwwAADDDDAAAMMMMAAAwwwwMAQDQjih1i47nS508UAAwwwwAADDDDAAAMMMMAAAwwwwAADDDAgiBfEu9PFAAMMMMAAAwwwwAADDDDAAAMMMMAAAwwwMEQDgvghFq47Xe50McAAAwwwwAADDDDAAAMMMMAAAwwwwAADDAjiBfHudDHAAAMMMMAAAwwwwAADDDDAAAMMMMAAAwwM0YAgfoiF606XO10MMMAAAwwwwAADDDDAAAMMMMAAAwwwwAADgnhBvDtdDDDAAAMMMMAAAwwwwAADDDDAAAMMMMAAA0M0IIgfYuG60+VOFwMMMMAAAwwwwAADDDDAAAMMMMAAAwwwwIAgXhDvThcDDDDAAAMMMMAAAwwwwAADDDDAAAMMMMDAEA0I4odYuO50udPFAAMMMMAAAwwwwAADDDDAAAMMMMAAAwwwIIgXxLvTxQADDDDAAAMMMMAAAwwwwAADDDDAAAMMMDBEA4L4IRauO13udDHAAAMMMMAAAwwwwAADDDDAAAMMMMAAAwwI4gXx7nQxwAADDDDAAAMMMMAAAwwwwAADDDDAAAMMDNGAIH6IhetOlztdDDDAAAMMMMAAAwwwwAADDDDAAAMMMMAAA4J4Qbw7XQwwwAADDDDAAAMMMMAAAwwwwAADDDDAAANDNCCIH2LhutPlThcDDDDAAAMMMMAAAwwwwAADDDDAAAMMMMCAIF4Q704XAwwwwAADDDDAAAMMMMAAAwwwwAADDDDAwBANCOKHWLjudLnTxQADDDDAAAMMMMAAAwwwwAADDDDAAAMMMCCIF8S708UAAwwwwAADDDDAAAMMMMAAAwwwwAADDDAwRAOC+CEWrjtd7nQxwAADDDDAAAMMMMAAAwwwwAADDDDAAAMMCOIF8e50McAAAwwwwAADDDDAAAMMMMAAAwwwwAADDAzRgCB+iIXrTpc7XQwwwAADDDDAAAMMMMAAAwwwwAADDDDAAAOCeEG8O10MMMAAAwwwwAADDDDAAAMMMMAAAwwwwAADQzQgiB9i4brT5U4XAwwwwAADDDDAAAMMMMAAAwwwwAADDDDAgCBeEO9OFwMMMMAAAwwwwAADDDDAAAMMMMAAAwwwwMAQDQjih1i47nS508UAAwwwwAADDDDAAAMMMMAAAwwwwAADDDAgiBfEu9PFAAMMMMAAAwwwwAADDDDAAAMMMMAAAwwwMEQDgvghFq47Xe50McAAAwwwwAADDDDAAAMMMMAAAwwwwAADDAjiBfHudDHAAAMMMMAAAwwwwAADDDDAAAMMMMAAAwwM0YAgfoiF606XO10MMMAAAwwwwAADDDDAAAMMMMAAAwwwwAADgnhBvDtdDDDAAAMMMMAAAwwwwAADDDDAAAMMMMAAA0M0IIgfYuG60+VOFwMMMMAAAwwwwAADDDDAAAMMMMAAAwwwwIAgXhDvThcDDDDAAAMMMMAAAwwwwAADDDDAAAMMMMDAEA0I4odYuO50udPFAAMMMMAAAwwwwAADDDDAAAMMMMAAAwwwIIgXxLvTxQADDDDAAAMMMMAAAwwwwAADDDDAAAMMMDBEA4L4IRauO13udDHAAAMMMMAAAwwwwAADDDDAAAMMMMAAAwwI4gXx7nQxwAADDDDAAAMMMMAAAwwwwAADDDDAAAMMDNGAIH6IhetOlztdDDDAAAMMMMAAAwwwwAADDDDAAAMMMMAAA4J4Qbw7XQwwwAADDDDAAAMMMMAAAwwwwAADDDDAAANDNCCIH2LhutPlThcDDDDAAAMMMMAAAwwwwAADDDDAAAMMMMCAIF4Q704XAwwwwAADDDDAAAMMMMAAAwwwwAADDDDAwBANCOKHWLjudLnTxQADDDDAAAMMMMAAAwwwwAADDDDAAAMMMCCIF8S708UAAwwwwAADDDDAAAMMMMAAAwwwwAADDDAwRAOC+CEWrjtd7nQxwAADDDDAAAMMMMAAAwwwwAADDDDAAAMMCOIF8e50McAAAwwwwAADDDDAAAMMMMAAAwwwwAADDAzRgCB+iIXrTpc7XQwwwAADDDDAAAMMMMAAAwwwwAADDDDAAAOCeEG8O10MMMAAAwwwwAADDDDAAAMMMMAAAwwwwAADQzQgiB9i4brT5U4XAwwwwAADDDDAAAMMMMAAAwwwwAADDDDAgCBeEO9OFwMMMMAAAwwwwAADDDDAAAMMMMAAAwwwwMAQDQjih1i47nS508UAAwwwwAADDDDAAAMMMMAAAwwwwAADDDAgiBfEu9PFAAMMMMAAAwwwwAADDDDAAAMMMMAAAwwwMEQDgvghFq47Xe50McAAAwwwwAADDDDAAAMMMMAAAwwwwAADDAjiBfHudDHAAAMMMMAAAwwwwAADDDDAAAMMMMAAAwwM0YAgfoiF606XO10MMMAAAwwwwAADDDDAAAMMMMAAAwwwwAADgnhBvDtdDDDAAAMMMMAAAwwwwAADDDDAAAMMMMAAA0M0IIgfYuG60+VOFwMMMMAAAwwwwAADDDDAAAMMMMAAAwwwwIAgXhDvThcDDDDAAAMMMMAAAwwwwAADDDDAAAMMMMDAEA0I4odYuO50udPFAAMMMMAAAwwwwAADDDDAAAMMMMAAAwwwIIgXxLvTxQADDDDAAAMMMMAAAwwwwAADDDDAAAMMMDBEA4L4IRauO13udDHAAAMMMMAAAwwwwAADDDDAAAMMMMAAAwwI4gXx7nQxwAADDDDAAAMMMMAAAwwwwAADY23g9t/el/ZZf1za9PzmbfZz0LQIP7ds6aSjTz4nXXbVhm2WXY5wNLYf64/tLMf6rENgy8BkGhDEa2g1EgwwwAADDDDAAAMMMMAAAwwwwMDYGTjrvIuq8LwetkcYf+hRp6WHHtnY3ecI2GPefuFlM4iP5SPU/5d//bcF/2K7/dabx8d+RBDf70ZBns9wMsNV9apeF2tAEK+hXbBBWSwm87nwMMAAAwwwwAADDDDAAAMMMMDAchiI8PzJjZu6AXeE4TmIj+Eb1q5PN91yV7d3fDNk77Xt5jw5iB8Usjfnye8XE973mmdYvfF7Ha9xzkEGxtOAIF4QL4hngAEGGGCAAQYYYIABBhhggAEGxtpADuIjEK+HjNEbPYL5XuH3aWdf0LPn+1cuvLw7fnuC+OYyzZC/vm9ej2cYql7Uy0oZEMRraOc1YCsF0XZdBBlggAEGGGCAAQYYYIABBhhgIBuIwLtXuF4fF/M0H0vTKxhvjltK7/YcvOdl8vv6fsaNgPyYnDzekGUGGGgaEMQL4gXxDDDAAAMMMMAAAwwwwAADDDDAwNgayL3em89gz+F4/YdS87h6YN4viK/PE4FZPGc+P2u+uZ78Ph6JE9ur3xBY6HVeZzOU815Qy8B0GRDEa2jHtqF1MZqui5H6Vt8MMMAAAwwwwAADDDDAAANNAxGWR9B96JGnVeF3DtCjN3xMawbx9R9yjfVtTxDf3I8cxOdtx/TYfvPmQHM575lmgIFsQBAviBfEM8AAAwwwwAADDDDAAAMMMMAAA2NnIHqSR9Ae4Xf8Regdw/xjraeceX667sbbUgTvEZRH2BW95+vvY1y/IH6hnux5emyzGcTn9/UfYY3X9ZsCOXwzFMQywEAYEMRraMeuoXVxcnFigAEGGGCAAQYYYIABBhhgYLoNRAhfD7VzEB8BeITtEcJHwJ4D8ZgeZnqF4TmIjx9pjZA+5m32mo9lY5v9HiPT3E7M1+wN32vbHE+3Y/Wv/usGBPGCeEE8AwwwwAADDDDAAAMMMMAAAwwwMJYGcoheD+XrwVa8jlA890xvhul5+ejdnoPzCPL3Xn/sNj+w2ly2vp16EJ9f5x7zCw1jvfV1eS2cZWA6DQjiNbQaAwYYYIABBhhggAEGGGCAAQYYYGCsDESwPijgrofbuSf6n596rnp8TQSdOXC/+75Hu73rc1jf6/E1Mf9CQXyvXvT1QDXvR4T/9fFeT2foqt7Ve9OAIF5Dq3FggAEGGGCAAQYYYIABBhhggAEGxs5ABObxPPj82JkItXIP9xyqx7g8X/yga+71Xg/AmsvE+qKH/U233DUw7I8bAXnbOdSPYX3d9deCeMFr3YPXPDQNCOI1tH0bkCYW711AGGCAAQYYYIABBhhggAEGGGBgVAaih3oE8fXwO4Lx5rjYn5g3gvN6QJ/3sxnExzwxf6yrV3Afy+XHz+QgftC8eTuCeOdGtmDIQi8DgnhBvCCeAQYYYIABBhhggAEGGGCAAQYYGCsDEZ5HAB9BeQ7Yc6AeIXoz5MpBfK9pebkIyvPrCNYHhevNIL4e3g96ZE6/abF8c5+9F9YyMF0GBPEaWg0BAwwwwAADDDDAAAMMMMAAAwwwMLYGIpCPXvARcvfqwR4hd0z/ziXXdufJvdhzyJnD95gv1hXPeo+gfbFBfF6+ud68/jyM9Q/6Udk8n+F0ha/qW31nA4J4De3YNrQZqaELFgMMMMAAAwwwwAADDDDAAAPTayAC7npP83ifPeRpOSSPHvHNsD4H6TFvTM+95mOZ+np7vY554q+5zrz9+jDWL4ifXqd1C15z0MuAIF4QXzVevYAY58LBAAMMMMAAAwwwwAADDDDAAAMrYSCH7PVnwjdD9QjPcwif9zGH8X987Knq0TYRpMd8uTd8zDsoYK8/mibWF/uS199vKIh3nvSzYTwbYUAQL4hfsCFxsXCxYIABBhhggAEGGGCAAQYYYICBURqI8LsewDe3HaH3oF7qsXz8NZfznmMGGFgpA4J4QbxGiQEGGGCAAQYYYIABBhhggAEGGGCAAQYYYGCIBgTxQyzclbq7Yrvu7DHAAAMMMMAAAwwwwAADDDDAAAMMMMAAA+NjQBAviHeniwEGGGCAAQYYYIABBhhggAEGGGCAAQYYYGCIBgTxQyxcd5zG546TulAXDDDAAAMMMMAAAwwwwAADDDDAAAMMMLBSBgTxgnh3uhhggAEGGGCAAQYYYIABBhhggAEGGGCAAQaGaEAQP8TCXam7K7brzh4DDDDAAAMMMMAAAwwwwAADDDDAAAMMMDA+BgTxgnh3uhhggAEGGGCAAQYYYIABBhhggAEGGGCAAQaGaEAQP8TCdcdpfO44qQt1wQADDDDAAAMMMMAAAwwwwMAKGGj/I5X33pc6v/hFap92YipOOj61L/iavwFlMLP5NWGovI6BCTQgiJ/ASvXBYgU+WHCkgWCAAQYYYIABBhhggAEGGGBg1kD5eip/e1dqn/3Z1NpnTWrttpO/JZSBIF6uI9ubTAOCeI2kD0oMMMAAAwwwwAADDDDAAAMMMMDAshjobNiQivce1D94X7Nzau2922xAHyG9v23KQBA/mSGscF29CuI1tMvS0LqYuJgwwAADDDDAAAMMMMAAAwwwMMUGXno1Fad8bF4AXxy8b2qfe2bqXPHDVN71X2lm04syCDkUAwxMrQFBPPxTi98HxCn+gOi8d94zwAADDDDAAAMMMMAAA8tn4LmXUvGe/edC+DW7pPb5X0kzr3WWbxvqS1kywMAqNyCIX+UVKEwWJjPAAAMMMMAAAwwwwAADDDDAwIoZeOGVVBw69yia4t/fncoHHxYYypsYYICBhgFBfKNAVqzhsh9OTgYYYIABBhhggAEGGGCAAQYYWE0Gir+n4kOHVz3hi6OOSDOvlepwNdWhfeWVgZEZEMTDNjJsbnLoocEAAwwwwAADDDDAAAMMMMDA5Bhof+ncuRD+8IPTzCt/kzHImRhggIE+BgTxfQrGB4PJ+WCgLtUlAwwwwAADDDDAAAMMMMAAA8troHPDz6oQvvXOdanc9ILwTcbEAAMMDDAgiB9QOBrp5W2klafyZIABBhhggAEGGGCAAQYYYGACDGx6MbXe/rbZIH7v3VL52J+Eb/IlBhhgYAEDgvgFCsgHhAn4gKCOXQgZYIABBhhggAEGGGCAAQYYWDYD7c+eXvWG71x37bKtVwYjg2GAgUk2IIjXEGswGWCAAQYYYIABBhhggAEGGGCAgUUZKO+9vwrhi0MPSjOdrYtabpLDNccmPGaAgcUYEMRraDWYDDDAAAMMMMAAAwwwwAADDDDAwKIMFMcfWQXx5a9/s6hlFhNQmUeQyQADk25AEK+h1WgywAADDDDAAAMMMMAAAwwwwAADCxooH3y4CuGLo9+/4PyTHqo5PsExAwwsxYAgXkOr4WSAAQYYYIABBhhggAEGGGCAAQYWNNA+7aQqiC8ffnTB+ZcSUJlXoMkAA5NuQBCvodVwMsAAAwwwwAADDDDAAAMMMMAAA4MNbHoxtdbs3A3i22d9evC8ylL5MMAAA9sYEMRDsQ2KSb/75PjcYWWAAQYYYIABBhhggAEGGGBgaQY6F39/rjf8k0/JEuRJDDDAwBINCOKXWGAa6qU11MpLeTHAAAMMMMAAAwwwwAADDDCw+g0U79m/G8QXH/534dsOZkm3//a+9Ia169NDj2zcpiw3Pb85HX3yOSmGzpvVf96oQ3VYNyCI38GLZ70wvXZyMcAAAwwwwAADDDDAAAMMMMDApBko776n6g3fuebqkQbEl121oRtMb9nS2eHtxrr2WX9cFXJH2B3vY/xy1FkE6xGw/8u//tu8vwje6+s/67yL+h5TXkfMU1/Ga9cVBla/AUG8IN6FnQEGGGCAAQYYYIABBhhggAEGGOhroH3OmbNB/B5vSjOvvNZ3vmEEhc0gPgL56DHeDLvr73sF63m5esA9qGd681hi3vo2er2uh/zN5fP7HLQ3w/k8PYax//16zNfn83r1B7PqcLrqUBCvoR1pA+oCM10XGPWtvhlggAEGGGCAAQYYYICBVW6gszW19nprN4hvf+b0kWcI/YL4QWF7r2m9AvAI5evB/FKt5nB/KaF5bC9uJMSyefleoX6vcXm5pe6n+Vf5OSi7HPl1Z1jnjCAe5onBPKyTxHo1WAwwwAADDDDAAAMMMMAAA9NqoLzrrrnH0tx668gzhOUK4pvrycF8r8C7Pq5fyJ6X7xfkR4/3ZnCel+nXGz5P73UjYVr9OW7X3kkyIIgXxI+8EZ2kE8ixaBAYYIABBhhggAEGGGCAAQYm2UD7q1/652Np3pxmXtvx57QvtqwijK4H4vE6Qu/F9CJvBtl5mfr4WFcO0WN8MzQftJ8RpPd7DE1+7nze3z8/9VyVu8T28naa+5SXy/sU249g/tCjTqueaT9on0xzHWJg/A0I4gXxVYPghB3/E1YdqSMGGGCAAQYYYIABBhhggIFRGmgdtHc3iC9OOWFF8oOlhuS9yiaC8wjGcxAf7+s93Re7jRyeN28QNN/3CunzPsQw9jG2mefL680hfT6GPL4ezudphq4DDKw+A4J4QfyKNKQuFqvvYqHO1BkDDDDAAAMMMMAAAwwwMF0GyocfmXsszXXXrkh+UA/Jc6/xevAdIXWv8TnUzmF2DuLzvDmUD9P1bfQzXl9PrCsH6jF/fqRM3kavddTnyfuf1xHHkEP55rI5wK/vb3Me76frvFTfq7e+BfGC+BVpSF00Vu9FQ92pOwYYYIABBhhggAEGGGBgOgy0v//dKoif2fTiiuQH9ZA8QvQI2GMYBmNaDuLjES4Rdsf4CK9zEB+vo/f73uuP7c4f85xy5vndR9xkx7GeHI43hwsF4HnZvL1YZ+xTDtnzNvIwB/oxT4zLyze323xf78Gf12U4Heehep6cehbEC+JXpCF1EZmci4i6VJcMMMAAAwwwwAADDDDAwGQaKD542OxjaY48YsWygwiqI0SPIPorF16+pCB+41PPd3ua33TLXd3l+oXqMb4epC/Gcw7Umz3ZY3zsZwTpvbZXv0lQ305eX14m5quvO4L7HN7Xl/N6Ms899TqZ9SqIF8SvWGPqojKZFxX1ql4ZYIABBhhggAEGGGCAgQkw8Mrfqt7wnYu/vyLZQYTSEWjnQDo/VqbeWzzC6V7jI1i/5/7HuqF4M+Ru+lxqEB+96uPmQO6B31xfvI/9iv2sh+exn/We+/Xl8j7mnvTNIL4+r9cTcH7JI1fkmrLS544gHvyphL/SJ57tazQZYIABBhhggAEGGGCAAQbG2UDnF7+ogvjygQdHnh1EgB0BeT0kjyA7AvYYRtnFtBzE1wPuZq/zHHLH/L3KvL6NXtPzuLye+o2AxbzOve1zOF9fJgfv+WZCfi+Id33I7gwnx4IgXhDfsxFykk/OSa4u1SUDDDDAAAMMMMAAAwwwwMBSDbS/cPZsEL/ubWmmfH3FsoOFQvJm6N7rOHOAviNB/KDe7IN6yMf+xU2Ce//weLdnf79nvTfXIYh3zvaybNzqdiGIF8SvWGPq4rG6Lx7qT/0xwAADDDDAAAMMMMAAA5NroDh4v24Q3/7EiSuaG+QgPveGr/cmX+h1fizMYoL4fuvKvdnr1nNv/TyuHqLnnu39Qv+8TATtsc28jzGsb6sZxMc2ItCP9ed1GE7u+aduJ7NuBfGCeBdwBhhggAEGGGCAAQYYYIABBhhgoDJQbvxL9ViazpVXVONXIhzMQXyE6c3t5zA7Au38HPnmPPF+MUF8PQTvtY76emJbd9/3aLU/zSA+pkXP9+Y6c0hfD+BjvXEczZ7yzSC++b7fPho/mQGuep2MehXEa2irhsNJPRkntXpUjwwwwAADDDDAAAMMMMAAAztioPOT66ogvnzsTyuaG/QK4nOwHr3II6COwDvC734/oJrn79dLvdc2muUX22kG6HmeehCfx8Uw9i+WiWX7Bemx7TxPfdnm/IvZx/ryXrsGMDB+BgTxgvgVbVBdFMbvoqBO1AkDDDDAAAMMMMAAAwwwMN0G2p8+bTaI33f3Fc8MIoDOj28Jl/G63ns8Auvc8zwH7s3e8Xl8rKuX7YVC7thGfZuxjlgmAvT8V9/H+jZ6LRvT8z7lfa8vU5+e1x/DfoidH6kAACAASURBVPvfXNb76T5/1f/41r8gXhDfsxFy0o7vSatu1A0DDDDAAAMMMMAAAwwwwMAwDbT23X32+fBnfmrFMoPcmzwC6Aiz4y+/rh97jG+G2fkRMHl8Dr37BdkLBfH17Xnt3GOAge01IIgXxK9Yo7q9aC3ngscAAwwwwAADDDDAAAMMMMDAcAyUf3y0eixN56fXywzkRgwwwMAyGRDEL1NB+gAwnA8AylW5MsAAAwwwwAADDDDAAAMMMDA6A52rrqyC+PKvmwRwciMGGGBgmQwI4pepIH0oGN2HAmWtrBlggAEGGGCAAQYYYIABBhgYjoHq+fAHrhO+yYwYYICBZTQgiF/GwvQhYDgfApSrcmWAAQYYYIABBhhggAEGGGBgNAZa+62dfT78Z04XwMmMGGCAgWU0IIhfxsL0oWA0HwqUs3JmgAEGGGCAAQYYYIABBhhgYPkNlBv/Uj2WpnP1VQI4mREDDDCwjAYE8ctYmD4ELP+HAGWqTBlggAEGGGCAAQYYYIABBhgYjYHOjTdUQXz5yGMCOJkRAwwwsIwGBPHLWJg+GIzmg4FyVs4MMMAAAwwwwAADDDDAAAMMLL+B9hfOng3i1+2aZsqtAjiZEQMMMLCMBgTxy1iYPgQs/4cAZapMGWCAAQYYYIABBhhggAEGGBiNgeLwg7tBfHHKx4YTvm0p0oy/0ZWBzGs4jpWrct1OA4L47Sw4HwJG8yFAOStnBhhggAEGGGCAAQYYYIABBkZg4KVXq8fSdH5w8Y4FbeXrqfyv36X2t76e2md9OhUnHJOKw9+dWnu+pdpGa7edvB5iGbQv+NqO1aG8TPkxsOwGBPFQLTsqH5BG8AGJW24ZYIABBhhggAEGGGCAAQaW0UDn1lurYLy8597tKtvy2edT55L/SMXB+1XrErivzA0HQbxsRj43fgYE8cvYaAE+fsDViTphgAEGGGCAAQYYYIABBhhgYGED7Qu+Ohuer31jmmn/Y2lB/EuvpvZZZ6TWml3mB/Brdk6td65LxZFHpPanTk3FRz6c2p85PXV+eLm/EZQB9wu7V0bKaJQGBPGC+KU1rspLeTHAAAMMMMAAAwwwwAADDDAwcQYiLI/e68WxH1zSsXVuvz219t9zXgBf/Pu7U+fyy9LMi5uXtK5RBmK2JYBlgIFRGxDE+/CgUWSAAQYYYIABBhhggAEGGGCAgWk28FqZWmvf2A3T29+6YHEWXtqc2md+al4A3/7kyam8/w+LW36ay9uxM8LAVBoQxIM/lfBHfcfL9txlZYABBhhggAEGGGCAAQYYGFcD5X//vgrUO7/+9cI5wSt/S8XhB1fLRI/4zi9+sfByMhhlxAADU2xAED/FlT+uHwDslw+nDDDAAAMMMMAAAwwwwAADDIzOQOfi71Wh+syWYnBQWMyk4qjZx9jEo2zap52UZl54ZfAyshflwwADDCRBPAQuBAwwwAADDDDAAAMMMMAAAwwwMMUGihOP7wbxxfveM9hBubUbvEcA3w3hzzlz8PxTXKZuJI3uRpKyVtarxYAgXqOg0WSAAQYYYIABBhhggAEGGGCAgWk1UG5NrXW7zgbrXzp3oIP2BV+tes4XHz8uzXS2Dpx/tYRj9lOQywADozAgiJ/WhtZx+7DAAAMMMMAAAwwwwAADDDDAwNQbKB9+tArXOxs29C2P8u57q/mK9x+SZra0+847ikDLNgSnDDCw2gwI4n3o0HAywAADDDDAAAMMMMAAAwwwwMCUGuhcdWUVsJdPP9PbQTwXfv3+s/Pt9dZU/nVT7/mmtAxXWxhofwXYDKyMAUG8RkLjyQADDDDAAAMMMMAAAwwwwAADU2qg/ZlPzgbsB67ra6D9rQuqsL5z5RV95xPurUy4p9yVOwOrw4AgfkobWifo6jhB1ZN6YoABBhhggAEGGGCAAQYYGKaB1oHruiF7BPK9tlM+81xq7fHm7jzFBw9LM+XrPefrtaxx7DLAAANzBgTxgngNKAMMMMAAAwwwwAADDDDAAAMMTKGB8qm/zvV0v+rKngbaXzq3mieeEy9UmwvVlIWyYICBpRgQxE9hQ7sUIOZ1QWGAAQYYYIABBhhggAEGGGBgMg10Ntw4F7I//Og2IXu3N/zuu8z2hj/xI9tM52IyXahX9crAcAwI4gXxGlIGGGCAAQYYYIABBhhggAEGGJhCA+3Pf242iF+3a5opt25joJq+206p/MND20wX1g0nrFOuypWByTQgiJ/ChtbJPJkns3pVrwwwwAADDDDAAAMMMMAAA0sxUBy872xv91M+tm3I/vzLqbX2jbPTP/HxbafLU5QJAwwwsCQDgnhglgRmKQ26eX0AZIABBhhggAEGGGCAAQYYYGA8DZRPPjXbG363nVLnih9ukw20L/p2Nb289/5tpq9kvW56fnPaZ/1x6fbf3rci+xXb/Zd//bd527/sqg3dfYp9W8myse3xPN/Ui3oJA4J4QbwGggEGGGCAAQYYYIABBhhggAEGpsxA55qr54L2Rx+fX//FTGrtt3a2N/z7D50/bQzKKcLuU848P71h7fr00CMbF9y/s867qBucR3he/4vwPMKxftNjfK8ANcYfffI5acuWTjVdEC9o7WXFOC7qBgTxY9CA1CvEaycoAwwwwAADDDDAAAMMMMAAAwwM20D79FNmg/gD9qrC5LzNzk+vr0L6zk03bTM9zzfMYe71Xg/Ol/K6HpRHcF4P1SNAj+n1IL4+PY6ruUw+1gj+4wZAXjaP7xfER+/55rx5GUPnOQPTZUAQL4hfkQbVhWa6LjTqW30zwAADDDDAAAMMMMAAA2NkoHw9tda9rRu2t886Y5tcoDj84Nkg/p1vTzPtf2wzfRR1mYP47Xn8TATfwwri+wXuvcbn0L6+L6MoO9sYo3NN7rgi149xPQcE8U4IJwQDDDDAAAMMMMAAAwwwwAADDEyRgfKBB+d6vN/ws3l1X95739y0Sy+ZN22U4VavID6C7UOPOi3FtLwvvebrFcT36k0f88V6ovd7r+nNXvJ5W3m5vA8xbAbxeV4hvFC87sTr6fYgiJ+ihtbJPt0nu/pX/wwwwAADDDDAAAMMMMAAA2Ggc8l/VGH7zAuvVKF2TGt/7tOz0/Z6a5p5ecu8aSvpJ0LxeCTM3fc92n0ufPxYaw7Kc+gd4+J1cz9jvjxvTNveR9NE2B6B/UJB/EL709w/752XDEyHAUG8IH6bBsrJPx0nv3pWzwwwwAADDDDAAAMMMMDAdBooPnp0N2wvDnvX/Exg82upteebu9PaZ392/rQVyk/i0TT18DuH3LkHe/3RNc15F/Ld7GGfg/b6OvM68mNm6vuSp8Uw94h/+NGNKW4ILPaHZOvr8Ho6z0f1Pj31LohfoYbESTY9J5m6VtcMMMAAAwwwwAADDDDAAANjY6A1k1q77zIbtn/1S/PC9s6PfzTbG363nVJ5973zpq3E/kcv9vqjXXIIn3u+9wrOe/V2z6H99gzztvK+xPt+PeLz+vMyK1Fmtulaw8D4GhDEC+JXvGF1gRjfC4S6UTcMMMAAAwwwwAADDDDAwGQZKO/8bRW2d267bV4mUBx6UHda8Z79540fBwO5R3oz5M5hfK9wfNB+R7Ae67ruxtu6Pe579YLPy8e0mDf3du+1rbwfzf3L6zCcrPNIfarP7TEgiBfEj13juj2QLeMCyAADDDDAAAMMMMAAAwwwwMDCBtpf/+psEL/7LmnmtU6VCZT33DsX0K/gj7T2qsMIzaO3eb+QOz+Spt/0+jpzr/pYXw7fc4ie39fnj9ex/ZiWl20G8QvtX3N93i/sVBkpo0k0IIgXxFeN7iQCd0wu3AwwwAADDDDAAAMMMMAAAwzMGSje/Y7ZXu8nHT8vD6h+pHXNLmnmxW1/8HQlyjAH7BGa1x9R02tf8iNp+s270Lpyj/t6QN/cTjOIr68zllvMjYDmOr2fs6kslMWkGxDEC+LnNbyTDt7xuagzwAADDDDAAAMMMMAAA5NlIHojN3so96rjmGfag9Lyj4/O9Xq/9pq5PKD2I63FJz4+N34FM5PcyzyG+XWE3Qv9ZQ8x35e/eWn3R1PzMotxUg/0Y7n6j67Wg/i8TzEMb/185fXl+XrZNG6yrknqU332MyCIX8FGpV+lGO+EZYABBhhggAEGGGCAAQYYmHYDEWzmADUPewXpuVdyDHOZ1QPTPK4ZlPaaJ887qcP2975TBfEzm16syqtz5Y+r8Z3bb6/Gj0s5RIi9mCC733wxPhuqD3Mw3296c5uDzDR95bLLyzTXlacbutYzMD0GBPGC+LFrYF2ApucCpK7VNQMMMMAAAwwwwAAD02egV8BeD0fz617BZYSa8YOZTTfNEDSHnzlojfkXM09zvZP2vnj/IbOPpTnyiHllmH+ktXXgujRTbp03bRzKICz08tDct37zNcfnXurZR3N6rLfXuF6u8j40feXxg5bJ8xhO33VQnU9nnQviBfFj18C6GE3nxUi9q3cGGGCAAQYYYIABBqbDQL/AckfqP4eduVd8fp+D1lh3c7u95tmRfRj3Zcu/bprr9X7Jf1RZQHn/H6rx7Yu+XY0fp+PpFYr32r9+8zXHDyuIrz/GJu9fr//YyNMMp+Oap57VczYgiBfEj2Ujm4EaulgxwAADDDDAAAMMMMAAA5NloBmIb2/9xnpy7/n6MB5fE73mY1gf3+91Pazf3n1ZDct1fnR5FbiXjz9RZQHtz39udvyanVOE9eN4LBGk96u/5viYt3kM/ZbPdd9venNdg27e5GnN/Yn3zfU098/7ybrGqU/12c+AIF4Qv00D1Q+L8S4kDDDAAAMMMMAAAwwwwAADO2pguYL4Hd2PHJzmMHZH1zfuyxfHfagbuBfr95/LAf7WTq093zw7/qTj58aPWVYSQfZiwux+8zXHD6NH/LjXv/1z7WZg5Q0I4sescXFSrPxJoQ7UAQMMMMAAAwwwwAADDDAwPAMRfPfqNbyUcbGOhx7ZmOJRIPlxNM336nCuDstNL6TWmp27gXv7wm9UgXvnumtme8PvtlPq3HprNV7ZzZWdslAWDDCwXAYE8YJ4DS0DDDDAAAMMMMAAAwwwwAADIzOwXD3imz3aI5DPwfxiH0uTw/+jTz4nRS/p5Qpbxm09nUsvqQL38ok/V8dZvG/97Ph37DmWP9I6buVofwSyDDCwIwYE8T5sVQ3wjkCyrAsRAwwwwAADDDDAAAMMMMDAYgwsVxCfHy+SH1my0HoXmr6YfV+t8xTrD+gG7sWHDqsygPLBh6twvv3tb1bjV+sx2m/XHwYYGHcDgnhBvMaWAQYYYIABBhhggAEGGGCAgZEZWM5APEL43Jt90Hqbof24hzXLuX/l/X+oAvfOFT+q6rn9yZNnx6/ZJZVPP1uNX85tW5dglAEGGJgzIIj3YUtjywADDDDAAAMMMMAAAwwwwMDIDAwKzJca2NTXVQ/lm+uZ5ufHt7/8+Spwn3nhlW49l08+NffM+M+ePrK6b9aL93MBnbJQFgxMvgFBvA9bGlwGGGCAAQYYYIABBhhggAEGRmagHpjngDw/q32hYX4MTQ6s8nPh777v0W7P+Dw9AvqF1pWnx/Pk43nzeZ0TNXytTK11b+sG8cXJH62Osf2Fs6te8uVjf6rGT9SxO6fVKwMMjJkBQfyYVYhGb/LvfqljdcwAAwwwwAADDDDAAAPTbKBXEB+B+qAy6fdomRzk33TLXd0gPgL4WE+9p3zMs/f6Y1MM83p6zTdo+6t1Wufmm6vAvXPTz2fL+IVXUmvtG2fD+RM/MrDcV+tx22/XWAYYGEcDgnhBvEaXAQYYYIABBhhggAEGGGCAgZEYyEF47rmeg/QdDeKvu/G2FD3b83oE8bMhXHH8UbNB/Dv2SDPtf3TruP2tC6pwvvyv342k3scxELNPgloGGBi1AUG8D1saXQYYYIABBhhggAEGGGCAAQZGYiAeAVMPzHc0iM/rO+XM86te7xGsCOL/J8UjZ1q77dT9i/C9Gzi92kqtvXfrjiuOOGR4db6lnco//TmVv/t96tx2W+ps2JA6V1+V2qd8LBWnnJDaF37D34AymNn82vDqxrVO2TKwYgYE8fCtGL5R33WyPXc6GWCAAQYYYIABBhhggIGVNRA91uvPZN/RID7XZ6wnP34mxgni/ye1zzpjNojffZdU/nVT97t/+/vfrcL5zq9+ueN5wIubU3nXXalz2Q9S+4xTU/GB96bWfmurbeQbAYazN0QWWw6C+JW9TuXriqF6WG4DgnhB/I43vMpQGTLAAAMMMMAAAwwwwAADDCxgoPlYmgg4liuIj4C//uOrX7nw8irwr4f0eR8m/Rnx5V+eTa01u3QD8fhh1m6YtOnF1Nrzzd1xxaEHpZny9e0z+9KrqXPtNak45gPbF7iv2Tm19npLau31Vn99ykAQLwBe7gDY+sbDlCB+gQ8KoI4HVPWgHhhggAEGGGCAAQYYYICB1W0gwvI3rF3fDd9zXeYgPofoCw3zs+Vj+QjT6/PXe9pPe4/4eb3hNz7dDdzbZ3+2Cs7LO3+79BD+xc2pu4493lStZ14P73W7pngmffvcM1P0vO/ccEMq//v3qXz4kVRu/EuaeeGVNNOaWfp25TbKjAEGJsSAIH5CKjJ/iDFc3R9M1Z/6Y4ABBhhggAEGGGCAgUk1ECF67omejzEH8flHVvP45jD3ZK8H8c156u/rQXx9fH5dD/EXu8687LgPywcerILy9le/1A3wyj8+Wo2LsHxJx9D+R+r8+EfVs+Wr8P0de6Tobd/ZcGP3efDb3cNeLrO0+lBeyouBVWtAEA/vqsW7pA8O6lk9M8AAAwwwwAADDDDAAAMMTIGB4oOHzYbue++WZl7e0q3z4qgjZset2TmVjz+5aAfl3fek4r0HVSF+hPDtsz/T7ek+09m66PX4/u4GIwMMMPA/SRA/BY0w6C52DDDAAAMMMMAAAwwwwAADDEy+gc6GDVVo3rnyim5Q3vnp9dW49hfPWVx4Xr6e2hd9u1ouAvjifetT9LbnaPIdqWN1zMBwDAjiBfEaUQYYYIABBhhggAEGGGCAAQYYWO0GXtycWvvv2Q3Puz/G2tmayqefSa23v202UH/722af077Qcf6tndqfPGkuhN9399S5+so0U+oBL5wcTjipXJXrtBgQxC/UAJnuwxgDDDDAAAMMMMAAAwwwwAADDIy5geLjx1XheXnHHWmm/Y9UfOifj6nZbafUue7aBeuw3PRCKo44pFpPccg7U/nXTQsuNy0hmuMUGDPAwI4YEMSPeUO6I5VrWRcHBhhggAEGGGCAAQYYYIABBibfQOe6a6rwvP2ZT3aD8/a3vzk37vRTFgzTywcfTq13vr1apjj6/dUz5hmafEPqWB0zMHwDgnhB/IKNsRNx+CeiMlbGDDDAAAMMMMAAAwwwwAAD22OgfPKp1NrrLd0AvVi/f5r5Wzt1fvnL1Fqz8+y4g/dNM6+2Bn7379x2e7WO7g+yfurUNFPMDFxme/bVMowzwMA0GxDEC+I1rAwwwAADDDDAAAMMMMAAAwwwsBoNvLQ5FYe9a7YX+x5vSuUjj6XOjTdUIXxr7RtT+YeHBtZt5wcXV73guyH8BV8dOP80h2iOXYjMAAM7YkAQvxobWvvsQwEDDDDAAAMMMMAAAwwwwAAD023gb+1UfOC9VYgeP6gafxGmd//W7Jw6Gzb0L6NXXkvFqSfMzb/2jalzw8/6z8+bsmGAAQZ2yIAgHqAdArQjd4Es6y4iAwwwwAADDDDAAAMMMMAAA9thIH6I9aNHVyF6+4vnpPZF367eRxDfuf4nfb/vlw/9MRUH7zc3/35rU3nfA33nV0fbUUfyJp4YYKBhQBDfKBCNi8aFAQYYYIABBhhggAEGGGCAAQbG1sDm11Jx/FFViN7+zOkpgviqJ3yE8D+8rHcAVr7enRaPrMnzF4celMqnn+09v8xEuTDAAAPLZkAQD9OyYRrbDynqWB0zwAADDDDAAAMMMMAAAwxMgIHymedSBOdViH7ch1Nx1Pur9xGwd669pmddl48/kYqja/PutlNqf+7TaWbzaz3n9x3fzSgGGGBgeQ0I4iegIXZSLO9JoTyVJwMMMMAAAwwwwAADDDDAwLgZKB98KLXesWcVuheHHjj3o6zxXPh4vMzd92wTqpdP/TW1v/z51FqzS7Vsa9/dU+fWW7eZd9yO2f44DxlgYJIMCOIF8RpeBhhggAEGGGCAAQYYYIABBhgYVwN/a6f2d76VWnu8eTZIX7Nzau35lrlQfbedus+LLze9MFeHna2pvOOOVJxywvywfvddUvtL56aZlzbPzTuux/3P/dr0/Oa0z/rj0mVX9f7h2Rh/9MnnpC1bOqvmmCYpWHQsgnIGFm9AED/mDQ7Mi8esrJQVAwwwwAADDDDAAAMMMMDAJBno/Od/zv9R1Qjho/d7/tt7t9S57trZALo1k8rf3JHa557V7R1fzfPPeYuTjk/ln/686sLq2397XzeIj0C+V93edMtd6Q1r1/cN6nstY5zrBAMMrIQBQbwgvmdDthIYbdNFkAEGGGCAAQYYYIABBhhgYOoNvPRq6lx1ZSqOWD8XuOfgPQ+jZ/vnP5fK396VOtdfn9pnnZFa63bddv41O6f2J05M5YMPr8rv/tHLPXq7597wuXf8v/zrv6WF/qIXfcyf1xGBfrZ11nkXLbh8rD+vI5bL61lou/2mf/mbl3ZvGDSnxzauu/G2BfcnbjY89MjG6hjysRi6ZjKwegwI4gXxLuIMMMAAAwwwwAADDDDAAAMMMLCSBp5/KXV++cvUPuVjqbX7G7cN1HMAH4+hWb9/Kt73ntTa40195yuOOCS1v3thKh9/clXXa7M3fA7i66F6rxCyvtyfn3ou5eA9hnn+CLX3Xn9sz3A7h+71R97kcfmmQF5PDPN+9ZpWny9e91pPfX9jnub7QfvaXL/3qyeUVVfTV1eC+JVsaG27agBdfKbv4qPO1TkDDDDAAAMMMMAAA+NhoLzzt8nfCMrgS+em4j37p+K970rFe96RigPXpdY+a1Jr7eDgvfmImZ7v1+ySio8cmTo/ujyVf3l2Ir5r58A6Qun8+isXXt7tpR7jBl0/mkF2zBvjmr3Kez1fPm+r3hs+ls/je4XtvbbXb/96rae5fPO9IH48rpX96tR49bNYA4J4YfjAxmuxkMznosMAAwwwwAADDDDAAAMMjIGBFzen8r9+lzq33po6N/wsda68InUu/l5qf/P81P7C2al9xidSccKxqfjQ4alYf0DPZ4n3DHprPbJNrz2jfSXKZY83d+svHk3TufrKVN57X5rZUkzcd/t6SJ5D9BxQNx/v0ut9M0jvd32KXvK553vu2d5r2WaAHvvXa7vNcc3wv7me2K84ruZyzffN9fQ7HuPH4Dosa5y469FynVeCeCeHk4MBBhhggAEGGGCAAQYYYGCVGigfeSx1fnp99wc6i8Pe1fdRJcLzFQ7PlzOwz0H8F87+ZxB//0QG8flxMjmQjvc5KI/gelAwlgP7mH/QfHlaPVTPoXyelofNAL1+oyDP0xz26sneXE8s09zf5vte62luy3sBPAPjb0AQv0o/bDm5xv/kUkfqiAEGGGCAAQYYYIABBpbVwHMvpfI3d3R7uBenfnzh3uwH7JWK961PxUePTu1Pn5baX/li6nz/otS55urUufnmVP7+7lQ+/sTsY2ke+EMq/Q23DM4/LxXvPTAV7z8kFYcf3H1MTWv/PQc+633RN1Di0TTHfXiiHk2Tz50IpXNv8MUG8XnZCLBj2Rzmx7rytByIx7S8/hz+R8ie58vDPH+eVg/v8/p7DfO6+60nxjeD9+Z7Qby2JPsxXN0WBPGC+G0aFyf16j6p1Z/6Y4ABBhhggAEGGGBgcgxEYN6OZ4t/+H2De7vv8aZUfPy41Ln4+6m8+x7f81bbd/3n/vljrZ88ObV232VgXRcH75eKw981MMDv/ljrRd9e9T/WmsPvCMjjupaD+ByY9wq+87h6AJ6Xi4A7B+j16c1rZp4n1pXny/tSD+L79Z7P66sH6Hkf8v7lYazjplvuqm4W5PHNYd6PvG7DybnOq8vpqUtB/GprnO2vD5QMMMAAAwwwwAADDDDAwEQbKJ/YONvr/YhD+gey63ZNxSkfS51LL0nl7+9JM8XfJ7pMpiqoev6l1Ln04lS8+x3963+3nVL7tBNT5/bbU+f667vP/28dsFfP+dunnZTKBx9elT4iOK8H0DnMjiA+h+ARjMdfDspjmXoAHnbycjGtn6VYZw78e81TX39Mj23mfeg1f4xr7keMy+vJgX6Mi/2qP5e++b7Xevpt0/jpCXXV9eqra0G8D7B9GyEn9Oo7odWZOmOAAQYYYIABBhhgYPUa6Pznbal95qdSa/c39gxUi5OOT53/+F73x1hn/tb2XW7Sv893tqbOtdcMfgTRXm9NnSt+mGbKrV0P3d8MuPzSVHzsmG16zIef8rE/rRo3OTyvB9Yx7tCjTkvfueTaKgSP6fGXA+5hBfF5f3KYH9ts9lrv9b5+IyGuz3k/68fVvG43g/jmdO9X73Ve3U133QniJ73hdnyr5kOGi/F0X4zVv/pngAEGGGCAAQam00C58S/dXu3FBw/rGb639nxLt7dzt9e773fT+f3u5S2p/bUvz39kzdvfNs9LcfT7U7nx6fnl8/KW1Ln8shSPsqmeNb9m59Q++zOp3PTC/HnH0FaE0c1gOwL4vdcfu8NBfA7Vm+vv9T4H73mZ/D6C9HqP+F4Be6+e7L3ma17/BfHT2R40HXg/eQ4E8WPY2DjRJu9EU6fqlAEGGGCAAQYYYIABBuoGyt/8JrXP/mxq7fWWuZB0t52q18V79k/t7347lU9uHPvAtH5cXg/PeXnfA6n1jj3njKw/ILX23rV633r722b/W6KZc5RbU+emn6fWvrvPzRs96W+6adXZygH1dTfetk1I3wzR6z3RmyF6L6cLPZqmiRbZWgAAIABJREFUV6ge+5MfZ1MP2OP1KWee3300TXNb9fliWn7f3P9e7wf1om9ux/vhnYvKVtlurwFBfLOB8n7VNcTbi99yLpwMMMAAAwwwwAADDDAwagOdG29MxZFHzAWitfA9ei0XR38gda65Ks1sfs13M9/PtzFQPvNcKg5/d+WneP8hqf3Fc+Z6y+++S+r87KfbLNd1/vxL3d8VqHrHx3Pmzz0zzbzW6T3/GJZ/hN75x01zb/QIp+MvB9oRjjdD8+UI4ps94PM687Pd8/bzvnzlwsu7Nwtif+rXmfp8+XhiXH2efMMhtlEf77U2i4HVbUAQP4YNi5NqdZ9U6k/9McAAAwwwwAADDDDAQNNAeedvU3HyR6sAtR6Gxuv26Senzq23Ct18R1/YwJYiFaecUFkqTjgmlb/779Ta663VuM7VV/ZdT2fDhtTaZ001b3HEISkC/qbZcXkfYXW9d3gE3RFUb28QH73po7d6fZ2DXkfP+nseeKy7vdh2lEsO4fM+xLh6wJ7LLuaPddfD+Prx5PXl+fNQEK8NyRYMJ8uCIF4jP7aNrYvNZF1s1Kf6ZIABBhhggAEGGJhGA+XDj6T2OZ+tQs9tAvhzz0zlfff7Xua7+dIMlFvnhfHtT5+Wuo+uWTf3qJrO9T/pu87y2edTccKxcy7fsWcqH3yo7/wrce7mwDqH2DHMj5uJ1zkEjzA7/nIQHtP69YiPUDz3YG8eU2wv/prj432sMy+Xt5O3n+fP45vheryP7V5+9U3d/W9Oz8vXh/Xt1cd7rR1lYHUbEMRr7Hs2Mk7s1X1iqz/1xwADDDDAAAMMMMDAyhoon3k+tb/59dTa401zYWftMTTFoQemzoYbfR/znXz7DbzWScWHDq98xQ+zRpje2m/t7Lg1O6fOr37Zf/3l67NGs8s93tx9lvw4XjtyyJ2D8qUG8TF/hOHN8Lx+rIOC+JiWA/T6tmP5mBbrHhTyx2Nq4odm69uL1/m48vKLGcb2m+vxfmWv98pf+S/WgCBeo+8CzgADDDDAAAMMMMAAAwwwsFwGir+nzg8vS8XB+1YB6Ta94L94ToqgfrFf3M0n5Olr4MXNKW7qdI2tfWMqH340lY8/kVr7//NHXdfsksoHHhxorXPtNam1ZpfKa/v8r6SZztaBy/Tdn+U6jxrriR7uhx51WveRMLHtZhie9yfmi17zEWjXQ/ebbrkrRRie5+s1HBTE95rfOOclAwws1YAgvnFxX2oBmt9JxwADDDDAAAMMMMAAAwwwEAa6P8Ra66HcDOCLww9OnV/8YmAYyBJLSzVQPrExtfZ6SzdIL9YfkGa2tFP5pz9Xz4EvDt4vzbzaGuiuvOPOah3htjj+qDTz8paByyx1P83PNgMMTLsBQbwgXsPKAAMMMMAAAwwwwAADDDCwAwaix/GgH2KNYLN93hfTzHMvKecdKOdpD3AGHX/n6qvmerSfdUbXWefmm+fGnXHqgvbi9wxaB+1dLVOs3z+VT/x5weUG7ZdpglcGGGBgzoAg3ocAjSoDDDDAAAMMMMAAAwwwwMB2Guhs2DD3TO78rO3asDjikNS55Rblu53lK8CZC3AWKovixOOrEL38zR1dc+1zz6zGdW68YWGHz7+cimM/WC3TWrdrKu+YXddC2zd98XWlrJQVA9NpQBDvw8DCDbEyUkYMMMAAAwwwwAADDDDAwDYG2t+9cC6wrIXv+ZE07fPPSzMvvbrNcgKY6Qxghl7vL7ySWgfs1TVZHHrQ7HPet7RTccg7Z53uvdviHjfT/kdqn3vWnO01O6f22Z9NM8+/zLLrIAMMMLADBgTxO1B4Q29E7ZuTmwEGGGCAAQYYYIABBhgYPwObXkztT582F1Q2Q/j91uoFz+2KuI3fIMg3gjpX/ri7D91Hzqx9Y3d8+7wvLHq/OldfmVq7z/2Ia/SO71x6SZop/r7odchN3HRigAEG5gwI4n040IAywAADDDDAAAMMMMAAAwws0kD5+7tT8YH3VmFnDj3zMH6QtbznPuW5yPIU0MwFNMtVFsWHDpv1ud/aqgd8+4KvzY7bfZdUPv7kon2Wjz6eisYPEMcPwnau+FGaeeVvi17Pch2b9Sy/F2WqTBkYnQFBvA8HGk4GGGCAAQYYYIABBhhggIFFGOj85LrU2uut/UP4449K5bPPK8tFlKXgZ3jBT3n/Hyqj3ccjRX288lpq7bOmO744/qilGS23ps5116TWvrtX6+3eeNrjzd1H1nQ23Dj7o67l60tbLyfKiwEGpsyAIH7KKtyHneF92FG2ypYBBhhggAEGGGCAgck10P7G+fNDyMbjaOJRNep/cut/tdVt+7Onz3pd+8ZUbvxL12bn8ksrw+Uddy7d60ubU/fHX/d4c7We/J8g3eG6XVOE/DFP5/sXpc4NN6Tyv3+f4tE45can08wLr6SZV4s0U8z4G1UZyLyW7lyZKbMhGhDED7FwV1tDbX99aGSAAQYYYIABBhhggAEG5hson/pran/ixN7B4z/D+PZXvyy48N16rAyUTz+bWs3nwr9WpuLgfbuWqx9z3Z56e3lL6lxzdSqOOmLgeTEvpG/cuDJtp6GXXTyOyPV8/vVceSiPlTYgiN+eRscyLuYMMMAAAwwwwAADDDDAwMQbKO/8bSoOe9fAwCwCyZX+Ym/7wqVeBtqf+/Ss3T3enGaef7nrNHqp5xA8HinTa7mljItHMXU2bEjtc85MxUH7VOvO2zAcfuDer4wF8a4LSzmXzTsaL4J4H553uOF1so7mZFXOypkBBhhggAEGGGCAgdEZ6Nx004KhYvnAH3yf8p16bA2UT2ysDLe//93Z/Sy3pvix1Qhv44eFl/2a8srfUvzAa/nr36TOtdd0H1ET285/xYkfSe0zPpE6P7jY3wjKYNnr1/m+/OeMMp2qMhXEAz9V4DVCo/vioqyVNQMMMMAAAwwwwMBqNdD56fVVgNmzt+kBb08zxd99l/J9euwNFB8/btbygevSTLm1u78RkGfX2/WsePU+9vW+Wq+99tvnhkk3IIjXgGhAGGCAAQYYYIABBhhggAEG/mmgc/VVVUiZw8r6sPjIkcrK+bJqDHRuvbXy3PnP/5zd72ImtfZb2x1ffPToVXMskx7QOT4hNAOTb0AQ7wOERpcBBhhggAEGGGCAAQYYYGDmf1Lnh5dVoWU9fM+vi/etV07OldVloNyaWgeumw3dTzy+2vfOxd+rrMejZASAkx8AqmN1zMDKGxDE+xChwWWAAQYYYIABBhhggAEGpt5A5+LvV8FkDt7nDePRHpwog1VooH3Rd2Ztr9k5lc88N1uHL29Jrb3e2h3f/vRp6nUV1qvr0cqHqupAHSzVgCDexVaDywADDDDAAAMMMMAAAwxMtYHO9y8aHMKvfVOa2dya6jJaathg/vEJqCJ8zzeVOpdeUjluf+3L/wzod0nl089U49Xd+NSdulAXDEyWAUG8D9waWwYYYIABBhhggAEGGGBgag0sGMLvtlMqN/5lastHCDQZIVBx3Ie6oXv98Urls8+n1ppduuPbF3yNce0AAwwwMGQDgvghF7APLZPxoUU9qkcGGGCAAQYYYIABBibPwKJC+Af+IJjwvXnVG+hce03VK7585LHqeNqfPHl2/L5r0kzx92q8693kXe/UqTplYOUNCOJ9oNDQMsAAAwwwwAADDDDAAANTZ2AxIXzn17+eunIR1Kx8UDOUOohnwu/+z97v3/p65bq8444qoO/86lfV+KHsg+us8mWAgSk3IIifcgAa1wn9kMW1xo0BBhhggAEGGGCAgb4GFhXC/+ynfZf3Pcr3qNVooDj5o7Oh+0F7z9kut6bWQXt3xxcfP25uvOuHsmCAAQaW3YAgHqplR7UaP5DYZx+kGWCAAQYYYIABBhiYDgOdn/206gGcf8CyOexc9gPfk3xXnjgDnZ9cV9kvH/pjdXzt731ndvyanVP5l2er8a6J03FNVM/qmYHRGRDE+3ChkWWAAQYYYIABBhhggAEGpsJA+eRTVRDZDN/z+/Y3zp+KshC8jC54GZuyfmlzaq3ZuXsOtC/69pzzTS/2Hu+6OFdGykJZMMDAMhgQxC9DIY5No+pYXBQYYIABBhhggAEGGGCAgd4GWuXCIfzZn+29rDJVLhNioDjuw93zoDjikHl1Wpx0/Oz5EY+tKbfOmybzmMKbNhPinV12x82AIN7FRQPLAAMMMMAAAwwwwAADDEy8geLD/z4wiC+O+UCaebWY+HIYt1DC/ow2KOtc8aPqPCifnnsMTeeWW+bG//o3zgNtAgMMMDAEA4L4IRSqDxKj/SChvJU3AwwwwAADDDDAAAMMDDLQ/tp5VciYH0Ezb7jnm1N5971CB9+PJ95A+czz1bnQ+dHlc8db/D219t+zO634xMfnxk+QiYce2ZjesHZ9uv239/U8vrPOuygdffI5acuWTs/pg64xKzEt9jP2N/a7uf3VdizN/fdemz6pBgTxE9SoTCpSx+UCzAADDDDAAAMMMMAAA9trYFE/zvrjK7YJsrZ3e5ZjddwNFP/+7tnA/YRj57lvf/PrsyH9ml3SzAuvzJu2UscUgXK/4Dzv06bnN6d91h+XLrtqw8B9HhRO53UstK0cfi+0rbxvwxzGjYW91x+bYljfzmKPpb6M165bDIzGgCBeED/vgu3EG82Jp5yVMwMMMMAAAwwwwAADwzdQ/tfvqt6/83rA77ZTNb7tufC+E05ZLhA/SNw9H3bfJc1saVf1Xz7x5+q86Fx6cTV+pa5VEXp/5cLL07/8678NDONz8DwoHM+94WNdzb/oVX7TLXdtMz7PF73oc9jdK4jP28/z14fNfRo0b325Xq/jZkMsn+sjbizEX36fh7HNXsvncc19yssZDr9NUsbKWBA/ZQ2uk95JzwADDDDAAAMMMMAAA9NgoPzzU6m1+y5VsNgriC/ef0iaee6lbYKsaSgfxzi914Hyd7+vzovO7bfP818c+8HutGL9AfPGr6SXCI7rYXhzX3K43S9grofnEagfetRp8wLtPD16w+fAvl/P+DxvfVt5+/Vles0X+91r3ubx9Hof664H8bGf9d7wOZTP6+/1iJ2FyrHXdo2b3uuEuh9O3QviBfFj07g6yYdzkitX5coAAwwwwAADDDAwdQZaZSqOP6oKG3uF8DGuvONO34d8J54+A52tqbXubd3zo/3lz887/s4NP6vOm3H53YR+oXa+ruXwuR6O52kxjPE5mM7ryu9jeoTc9fcxf/QerwfreVzuVZ6Hsdyfn3quG5LX58/bae5T3tf6vPV97fc65q8H8Tl4j/nroXxs75Qzz+8eT33bsXzzmPpty3ifGRgYngFBvA8d8xpdJ9vwTjZlq2wZYIABBhhggAEGGBiNgfbnP1eFif1C+M4l/+G7kO/DU2ugffop3XOkeM/+88tgS3supF8lj23K4XY9eM7X2pgWPeAjrM7j4nWE1RGWx7hYrhmMf/cH16W773u0Wqa+bPTOr28rb7++joWC+HqQHuuOfer1Q7Kxzhj/nUuurYL4GNcrlK8H8nl9+dgihK/vcz4ew9G0ScpZOWcDgngfPLZpWDIOQxcKBhhggAEGGGCAAQYYWG0GOt+/aMEQvv2pU30P8l14qg10fnJddZ6UG/8yryzaXzx7dtpeb5n3DPlxvRbkIHxQ0JyD8dyTfTHDetidjz1C8Gaonbe/lCA+nkkfvenzMrHv8T4C9/pxRGAf42P+vD95H/Ix5PGxXH3Z+nx5O/k4DLXtDKyMAUG8Dx/zGlwn4sqciMpduTPAAAMMMMAAAwwwsOMGOj/7aRUu9usJXxxyQGoGj8p+x8teGa6uMoxzIJ8jneuunZcLlA8/OjftyivmTRtlPUcI3Qyb6+FynjZoGOuIfc5BfD2oHnQssZ0ccNfny/t06JGnVT+Uuj1BfKw/byMebRNhe+xbvVd7fb153hiX9yeOKXr2xzJ5XB7mZetls9hjz+swXF3ntPpaHfUliBfEb3PBdvKujpNXPaknBhhggAEGGGCAAQbmDJR/fDS19t29ChBzyNgcdm6+2Xcg34MZmPmfFI+lifOjfcYntimP4rgPdacVhx6YZsrXt5k+ymtPrxC6vv0cOg8KmnMQXw+mF3rdDOJjO/GYm/iR1PjLj6jJ24/9zPuVt9fcp+a8OdiPdeVAPZbJveNjGOvqVQYxrt/649jq+xOv8/E2l8n7bDjXnigLZTEsA4J4H0CqhmJYyKzXBYwBBhhggAEGGGCAAQaGbaB92kkLhvDtb3/T9x/fgRn4p4H2F/75CJr91qaZcuu8cokbVvkmVuf22+dNG/a53Fx/rxC6Pk8OtwcFzP2C8fp66q97bTPWX/8h1Nx7Pc8bw7yOftvL+5rnjXVECJ977sfyeZ56mJ63EdPyPLFMbCfe5+3VA/28L/VhrCfWW99efbrX2moGhmtAEO9DSNVQONmGe7IpX+XLAAMMMMAAAwwwwMBwDHR+dHkVGubwsDksTvqo7z6+/zJQM9D5xS+q86Z8+JH5ZVNuTa13rutOL044Zv602jpGcU1rhtDNbebgejFBfO4VvphhvUd8bCN6w8cPuObHyOT9yNvP4XqMz8F4c5+a8+ZgPPd8z+uM5eqher0M8rrrx5CXz+urT2u+ru9n3p7hcNom5apcmwYE8SNuQJoV4L2TkgEGGGCAAQYYYIABBhjYfgPlgw+n1t67VoFiM4Dvvt971xSPrlHO21/Oym4Cy+6lV6vzpnP5ZducH51LL66ml48/uc30UZmoh9C9tpnD7WboXZ83h9eD5qnP39xmLJd7oPcK4iOkz4+WifX0217e11h/nifWF6F/3rc8TwToued6fX9yL/ocvg/a7/q0vN5YV3281xN4bss6x9a4IB7OscWpMdAYMMAAAwwwwAADDDDAwEIGilNPqMLCniH8bjulzg8u9r3Hd18Gehgo3re+e/7EebTNuRZB/Z5v7k5vf+aT207vsb5t1rEM89RD6F7rzwFzDrJ7zZND72bv8EHv6z3iv3Lh5d2gPa+nvq0IxiOIj/3I227OF8cQwfnGp57vhu7xPtaRt9F8HfNG7/voFR/zLlQGebuD5svlFPPk+Q21sQyM1oAgfhkaBWhHi1Z5K28GGGCAAQYYYIABBhgIA53LL10whC8+8mGhk++9DPQx0P7KF2fPob132+Y58XGOtc8/rzrHVqpX/KBwOfYxB8z1cHxQGxHBefzYar0He55/oW01A/ZYLrbb7J3enC/Pk4P471xybfVjr7GOPP91N97WDfXzvkWP+Fj3TbfcVYX2eV/zceebCbGNQfuf5xfEaz+zIcPRWxDE92mMYBw9RmWuzBlggAEGGGCAAQYYYGCxBsoHHkytvd5ahYT9esOXd94phPW9l4E+Bjq/+lV1DpUP93h806YXU2uvt3TnaX/q1BUpx2a4HO/roXsOmOvj8nUkT8th9fYOc3idA/O8reb7vN3m+Jg/QvX6/jTD+1g25smPo4n3MX/0to/gPveej32J48jv8zZj2Cyr+rS87Xws9Wlea3sZGI0BQXyfxgjA0QBUzsqZAQYYYIABBhhggAEGtsdAcdLxVYDYL4Rvf+28FQkOt+d4LOM8WBEDL22uzqPOlVf0PF/a3/x6NU/PsH7IuUoOlx9+dGM3fI4QOgfhUWY5YK6PG1SWeX2xXHO+QdNi3mbAHvPXf1S1vr4cqteXyfsay9XnjdcxLcL57dmvvK5Y70I3G3ptOy9v6DrEwHANCOKH3GAAPFzAylf5MsAAAwwwwAADDDAwfQbime/9wvc8vnjvQWnmuRe3Cbt4mT4v6nxwnReHvat7PrVPP6X3+fLi5tRaN/uDyMXR708z5eu95xtSvlIPl+u9xXO95nB7MUF8zBNBdb8wOsb36mmet9UrVO+33fp+57A+72u/7eftNIcL7Veef9B827vtvG7DweeR8lE+izEgiB9SQ7GYwjePk5QBBhhggAEGGGCAAQYYWJqB8t77U2uPNy0YxHd+9rORhoXqcWn1qLzGp7zaXzx79nx6x559z5nOpZdU51znmqv7zjeMeo3wvddjXPK2csDcLxCP+XIA3yvIz+uJ4aAgO6bXg/hY56D9qq83v877ulAQn7dT790+6Pjy+g3H57xSF+qilwFBvCB+pA1oL4TGuTgxwAADDDDAAAMMMMDAYg0UHz+uCgRz7/fmsP3p03zP8V2XgUUa6Gy4sTqnykf/1Lvcir+n4vCDZ+dbt2sq//Js7/kWuc3Fnu/m0zYwwMAkGRDEayQ0ngwwwAADDDDAAAMMMMDAqjDQufh7VWDYDN+r93vvmso/9vjRSXW8Kup4kgKX1XIs5Z+frs6rzrXX9HVS3vdANV+E8jOv/K3vvKvl2O2nkJcBBkZpQBDvw5iGkwEGGGCAAQYYYIABBhgYewPl3fek1pqdqyCwCt5322neuHh+/Ci/VNuWEGcSDLT237N7HrXP/NTA86f9jfOr86046og081o5cP5JKBvH4BxngIHlMiCI94Fbo8kAAwwwwAADDDDAAAMMjL2B4qNHVwFgvxC++MiHx/44luvLvPUIhpbTQPu0k7rnV3HQPoPPofL1FI9+yudgcfJH00xn6+BlXF+VDwMMMNA1IIgHwcWAAQYYYIABBhhggAEGGBhrA50rflgFfzkA7DUs77xzrI9jOYNT6xLEL6eB+o+xLvj89/Y/UnHCMdU5WRz7Qc+M14a49jLAwCIMCOIXUUjL2bhZlw9LDDDAAAMMMMAAAwwwwMDiDZTPPJeKg/erQr9eAXyMa3/tPCGA77cMbKeB8u57q3Osc9PPFy7HLe1UfOiwapnWPmtS/Oira9vir23KSlkxMH0GBPHb2Ug5WabvZFHn6pwBBhhggAEGGGCAgdEbaF/wtbmwr/E8+BzKF+89KM0896IQ0PdbBrbXwGud1FqzS/dca3/584srx1dbqf35z807P9ufOtWPuG5vHVhuce6Uk3JaxQYE8au48nwJGP2XAGWuzBlggAEGGGCAAQYYGJ2B8v4/zAv5cvDeHHZ+cp1gwndbBnbQQPz4apxbxfvWL6ksO7/+dWodsNfcubpu19Q+4xOp8/Ofp5lXXlvSulxfR3d9VdbKmoHRGxDE72BDBe3o0SpzZc4AAwwwwAADDDDAwHQYqP8oZDN8z+8jPORhOjyo5+HWc/2/T2Y2LzFAf2lzan/ixLkwPv/3ypqdU+ud61Jx5BEpessXHzkyFZ84MbW/e6G/VVIGS7YgZ9MmMdDXgCAejr44fMgZ7occ5at8GWCAAQYYYIABBhjob6Bz883bhno53KsNOz/9qe80vtcysAwGOrfeWp1z5W/u2K4yLR98OLXPPy+19t+zWle+aWa406osE0F8/3ZKG65slmpAEL8MjdVSC938TlQGGGCAAQYYYIABBhhgYLCB4pgPLBhaxTzKcXA5Kh/ls2gDL26uzrn2t7+1Y+dW+x+pvOPO1P7WBan9uU+n4oRjUnH4u1Nrz7fMbmPtG1PL36ooA0G8a8iiryEy1gWvm4J4SBZE4oRz0WWAAQYYYIABBhhggIFRGuhc8cMqEBzUi7Zz4w2+z/hOy8AyGigOPbB77sUjZEZ5ztuWNoYBBqbBgCB+GRusaQDjGF0YGWCAAQYYYIABBhhgYJgGymeeS8XB+y0YxBfHfUhQ6PssA8tsoH3OmbPn3h5vSjPF35XvMpfvMK+d1q1tZmD8DQjiXVQ1rAwwwAADDDDAAAMMMMDA2Bio/2DkwN7wP98wNvss/Bj/8EMdLa6OOtf/pLoJVt7/gHNM28AAAwwsowFB/DIWpoZ9cQ27clJODDDAAAMMMMAAAwww0MtAef8fqhBwUAhfHH+UYMB3WQaGYKB8/MnqHOz88DJlPIQy7nXtM06byMB0GBDEu6hqWBlggAEGGGCAAQYYYICBsTDQ/vRpVQg4KIjv/OIXY7G/gpPpCE6mrZ5b+6zpnoftT57kPNM2MMAAA8toQBC/jIU5bY2z4/WhkwEGGGCAAQYYYIABBpbLQOfmmxcVwhcfO0Yo4HssA0M0UJx6wuy5uP+eynmI5bxc107r0Q4zsHoMCOJdVDWsDDDAAAMMMMAAAwwwwMCKGyiO+cCigvjOr3614vsq9Fg9oYe6WnpddS69pDoX41E1ynDpZajMlBkDDPQyIIj3gVujygADDDDAAAMMMMAAAwysqIHOFT+sgr9Bj6QpTvzIiu5nry/VxglbJs1A+YeHqvOxc/WVzjntAwMMMLBMBgTxy1SQk9bwOh4fJhlggAEGGGCAAQYYYGAkBp57MRUH71cFf4OC+M4ttwoDfIdlYNgGyq2ptW7X7jnZPv0U5T3s8rZ+xhiYGgOCeNinBvtIvkTwxBMDDDDAAAMMMMAAA0sy0PnBxYsK4YuTP7qk9fr870YSA9tvoH3aSbPn5X5r00y51bnnus4AAwwsgwFB/DIUosZ9+xt3ZafsGGCAAQYYYIABBhiYYgOvtlJx6EGLCuI7t90mBPD9lYERGehceUV1XpYPP6LcR1Tu2sMpbg8Zm4rrjCAe9KmArjHTmDHAAAMMMMAAAwwwMH4GOlf+uAr7Bj2Spjj1BN9bfHdlYIQGysf+VJ2bnR9epuxHWPbaqvFrq9SJOlkuA4J4F1MNKgMMMMAAAwwwwAADDDAwegPl66n44GFV2DcoiO/8+tej3z8mlPmUG2jtt7Z7fhanfIyFKbewXCGk9Qi0p92AIN7FVIPKAAMMMMAAAwwwwAADDIzcQOdnP11UCF987JiR79u0BwWOX1gWBtqfPX32HF23a5pp/8N5qJ1ggAEGdtCAIH4HC9AHFB9QGGCAAQYYYIABBhhggIGlGyiO+/CigvjODTf44u97KwMrYKBz/U+qc7S87wF1sAJ1oG1ZetuizJTZOBsQxLuQakwZYIABBhhggAEGGGCAgZEa6PzqV1XAN+iRNMX7D0kzna0j3bdx/gJv3wRMozRQPvXX6jwojy9bAAAgAElEQVRtf+dbzkPtBAMMMLCDBgTxO1iAo2wEbcuHLgYYYIABBhhggAEGGJgEA8VJH60CvkFBvB+J5H0SvK/mYyjWH9A9V4sjDhHAzfxPuuf+x9Izz768omXxx8eeSo8/+Uwqy9dXdD9Ws2v7rm1ZKQOCeEG8CzcDDDDAAAMMMMAAAwwwMDID5W/uWFQI3zpwXZp5fmUDr5X6om67QqJxMdD+5ter87V8+pmRXSfqx3/7b+9Lb1i7Pj30yMYV2X7el5dfaaX3HXdGuumWu1ZsP9rtremTZ38jffvia4a+D1Hee68/dsXLPZe/oeviJBgQxPvAPfSL9yScKI7BBZ8BBhhggAEGGGCAgeUx0D7jE1WwN6g3fPtbF/iu4vsqAytsoLz73up87Vz54xWpj3EJ4u9/8Im07yEfSX/687MrUg7RBj391xfTOw77aPrdPQ8v6z787KbfpPirt3OC+OVp8+pl6rUyFcSvcKPmJHQSMsAAAwwwwAADDDDAwLQYKO++pwr1BoXwrbVvTOVjT8wLhaaljByn68FYGShfT61913TP2+KEY1fknByXIP6yqzakE8/4SnqtNbMi5RAuoizWf+jU9OJLf1vWfTjrvItS/NXtCeJdi+oevF4eD4J4Qfy8C60Ta3lOLOWoHBlggAEGGGCAAQYY2NZA+5wzFxXEtz//Od9TfFdlYEwMtM/+zOx5u/suaeaV10ZeL+MQxG/Z0klHn3xOuvqntyzp+PNycQwLtQkxT2wjluk1bzwT/nPnfS+d963Llv358IL4bdurXnVgnHLaUQOC+DFp2Ha0Ii3vYsAAAwwwwAADDDDAAAPjbKB86I+LCuGjp3z5+7t7BlHjfHz2zfk3qQY6N99cnbudX/1y5OdmryD+2U2vpPO+eVl68z7vS//yr/+W/t8170nfv/ynqWj/oxtSR1j9gY9+Nm1+tZi3v6+9NpM+dvqXqjB70Hrq9fnYE3/tPhImP6f+3j88nj74sc+m//3/WtP9O/LEz/V8lvpyBvHPv7glveeDp3R7xUeZ7LP+uPTwoxvT6ed8s7sP/8f/t2/61LnfSs+98Gr3mGOf37bf+9Mv//N388ogjuu3//1g2v3AD6crf/KrbvlFGea//Dz+3CP+7vseTV/7zo9SrD+O95hTzk1RbvXyiXKOef7vtxzYXc9eBx+dfnHrf6VOZ2s1X799/uyXvrNNPdXX7bVr6yQZEMQL4quL4iTBdiwu1AwwwAADDDDAAAMMjJeB9le+VIV5gx5L0/7Eib6j+J7KwDgZ+Fs7tXbfpXv+tk8/ZeR10wzio2f4Vy68PB1/2he7gfKm5zenX9323+kt+74vXXfjbd39i+e577zXYd3p9bYgwuU9DjoyxfTFrCcv+5MNt1W91eP57P/PbgenL3z9kvTnp57r/n39u1ek0z53QYqgPy8Tw+UM4mO7B77v4+nZ517phvERmB961GndXvoRjP/nb+5J+x/+sXTcqZ/vBtvxw66f/vyF3RsP9f3K42Na7F+UX4T58RevI/CPGxpRVhHWH37Mp9L3Lr8+/fWZl1KE8vGM+pM+89XqWGMdURfvev9J3emxL/GfA1FGl1/186r3fq7H+MHb6zfc3g3zo97iZkqE+FEf9bLzerzacPWxPPUhiB+nxs2+uOgywAADDDDAAAMMMMDABBoon9iYWm9/66KC+M4tS3v0g3BgecIB5agcBxlof+rU2fN3jzelmZe3jPQ6nQPc3Bs99jN6WteD23gdj23Jz3Bv9nzPx3bRZT+ZF0wvtJ5YLoLrT579jfTti6/phs/Roz5C6wir83rzfPX38Xo5g/jYfuxH7E+USfRgbz4qJ8oobkDkXvDR8z3ex42HvG/xY7NxMyKm5XH9Hk0TYf93f3DdvLK+6Za7uj3t84/WxrZiG/X6ifXGvr393cd0f2A23sc+/2//51vTz2++q9pujI/jip7+y/3c+3xshq5t42RAED+BH3LHCZh9ccFjgAEGGGCAAQYYYICB9oXfWFQIXxzzgXkBDTvsMDAeBso77qzO4c7VV470PO0VxPdyET+mWn/GegTEe68/tgqC86Ndckjdax0xrrmep/7yQren+T0PPJYifI7HvUTv80HL58e89BrGI2Wi53n8xete8+RxsS+xnZdfaaXoSR4heLzvVyavvtpOR378c+ncr/1Hd754ZEw8oifC7ry/EZA3H9vTL4iP/zKInvh52V7bjv9OqJd7nveRx57uBvSxr3m5KLsc4Of54hhzmeRxhuNx3quH5a8HQbwgft4F1Um2/CeZMlWmDDDAAAMMMMAAA9NsoHz2+dQ6YK8qxBv0WJrOtXNh0TSXmWN3zRg7A+XrqThon+55XBz5vpHmCL1C5yc3bkpnfP5b3cfR5NA6hvVAOB7hsu8hH0nxWJkozwjg47EqMT6X72LWE8ut/9Cp3R7b0es7eonncDmvpz7Mj3uJoH3j0893nyV/46/urML3uCEQPfHjL17nUD7miefOxzJ5XKwr1h092uNYcogd2+8VXsc6o1wiWM/7FMF7PDYmtpWD+WZP+n5BfNzIaPZ0b9ZHr2Vj2/lGQy6rfvssiHe9y1anYSiIF8RXF+dpAO8YXeAZYIABBhhggAEGGBitgc7lly4qhC8OPTDNbGn7fuI7KgNjaqD9ve9U53L5+JMjq6dm8BuBcgTL7z36k91APJ5JHqFvPEKlHsTH42riR1vjUTLRUzyeiR7v8yNtFrOe/Mib6PUdbUfu5T2oR3y9jVmuR9NEWJ0fuxPrb5ZJ3mbeXu4RH+Of/uuL3f8MiBsK8TiauBkR4/IyMewVpkcAv5ggfik94nvdPBDEj7ZNrte716Mve0H8mDZwTobRnwzKXJkzwAADDDDAAAMMMLD8BqL37KBe8Hla5+LvzQuG1MXy14UyVaY7YqDc9EJqrdm5ez63z/7MyM7X5jPJe/VKj+e1n3rm1+cF8XGs0ZN8twM+2P0R1wiB689KX8x6ovd8/EBqfp567lE+ymfE53C93os9gvj4D4D6uDjeOKb6M+JjXL4hcewpn+/+yGr9ZkT2EEF83LCo/6jrYoP4CPjjkTOPPfHXeSZi35rPiBfE///snWewHMW59+/X+8FfqLquem/dt/yWq+51uVw25mJsbIxNkMFGmCCSLMBgsgGDyQILi2QMJgiQBJKIEhJIgEAgQEIBCVCOKMejHI7yibur+Lz1jHhGvXNmdmfP2TC7+1PVqid0fPrXPd3/6dNDH2TM1auLEI8Qn9VR1mtDoNw8DGAABmAABmAABmAABmCg+Ay0TZkaS4RvOvdMaVu/ibkJ81MYSDgDLX2++WjrGT+XtmUrS1ZfKqzrinVdea6rsu/6+zO+SGxiuK6IV7F4TcMWeeL517yV3u6KeO3T7aOt/++EszsIzXHiUQFehXh3O5uJU2bLD065UP753Gte2pr+c4NGSO9HnvfzaM8TE9FVOLdrUa76CeZf/arAravYtawW1lbE97qxtyfG618FzJ63zPtLgVvufdzbgsb8qqsvII7/9cXez30ZYX5UTNcyvfH2WNG49jW1e+nFWRGvZfxL7ye8tDUPGv79sZ/LT8/qJcNGfuz/BYLmGSG++M9Zq0Pc6rAtQnzCH3I0pOpoSNQT9QQDMAADMAADMAADMAADHRloebRvLCG+5dl/+QITduxoR2yCTZLCQNuKVf6q+OZ7bi9Zu9UPpHbrcYP85w/OkD/f8w9P3HVtoHu733DnI979E8+4TIa/86m8OnxMqJCtIvP/Pf433h7xbhx6nC8e3XblkaeG+GKyhtEV5jPnLPH2jf+P7/3Ky4Pu7T534YqS2EP3uA8K9CZqL162VnR1vtrpf356rvztHwNky7bdHfKxd2+b3HrfPzu8jDB76IsPtaHaUlfaa/xxV8RrHPpS49mXhssPT+3hhT/7kpvk04nTvX3wLQ3Ls24jZNfUZWsa+jeXh1o/RohHiM/qAGsdeMpHBw8DMAADMAADMAADMAAD5WGgrWGDNJ19aiwhvm3hIuYlzE1hoEoYaLn/Lr9dt83Nv9K7WvvcHTub5Kpb+oQK+OUqU1NzSu5/9AUZPHR0VvuIErWj8qUfgNVtYvSlRJQfrpfn2Yid69vOCPFV8qCjodZ3Q6X+qX8YgAEYgAEYgAEYgIFqY6D1jdd8sc72gQ9zm++4BWGIeSkMVBEDbavWSNOZP/fat34Dotr6pkLyq6vfW1szFS1jWB4KFeJVyNcP3Op2P4WUH7+MPWCguAwgxFfRww74iws/9sSeMAADMAADMAADMAADMFA6BpqvuzKWEN/67jsIQ8xLYaDKGGh5/hm/fbdOmED9lbn+ChHiVXxXET64qp7nX+mef9gW20YxgBBf5s4yqiK4TiOFARiAARiAARiAARiAARioFQZaP//cF+nCVsH7137fTdq3NCLiMS+FgWpjYHeTNJ1/1tF2fv5ZfGy52uqP/NLnwEBFGECIB7yKgFcrEwzKwWQZBmAABmAABmAABmAABjoy0PLwg7GE+JbHH2E+wpwUBqqUgbYvvzr24dZePaR9e/ZHOOkbO/aN2ASbwEB9M4AQX6UPPBpufTdc6p/6hwEYgAEYgAEYgAEYSCoDbWvWSdNvToklxLdNnYoIy5wUBqqYgZYX+/ttXbejat/XSn1WcX0m9blCvhjz1AoDCPF0kDwkYQAGYAAGYAAGYAAGYAAGYKBoDLS+9oovzPlb0Jz+sw7Xmq+5vGhp1soEnXIgNlUdA20Zab7lOr99N9/zV2lvq+zHTavOhjx/eBbAQN0wgBAP7HUDOw9jBrUwAAMwAAMwAAMwAAMwUHoGVGDPJcDbvdaXBzMXYT4KA7XAwI490nztFX67b77+j9K2aAl1Wwt1SxngGAaKygBCPEAVFSgmNqWf2GBjbAwDMAADMAADMAADMJBUBlonTfLFOBPco9y2ZSuYizAfhYFaYWDXPmm++dpj7f+Mk8X7BgT7xsN4rTBOOWC5CAwgxBfBiEkdBJMvJmgwAAMwAAMwAAMwAAMwAAPlZKCl7wPHhLiQ7WhMlG++704m9MxFYaDWGNjXKi1PPJrdB/zml9J849XS0u9paR0/TtrWb5L2tv38sEFxGKi1NkR5av65gBAP5DUPeTknHqTFRBcGYAAGYAAGYAAGYKBeGWhbtUaazvx5tggXIca3fjiGeQhzURioUQZax4+X5ssvitUX2Ms53I7f0cAmuW2i2yHV6/OWclfvWBMhvkYffDTK6m2U1B11BwMwAAMwAAMwAAMwUI0MtL4yJJ7wdtE50r5zLwIKc1EYqGUG2vZL21fTpOXRvtLU/Yx4fUPEizsE6dyCdL3aByGesVI1jpUQ4mv5wUfZGNjBAAzAAAzAAAzAAAzAAAyUiYHmq/8QS2xrefoJ6qRMdVKNIgV5rkFxrSUtbXPnSeunn0pL7zul5f67pfWVwfywQZcZoL+owf6ixp+PCPE1XsF0SnRKMAADMAADMAADMAADMAADpWagdcKEWCK8rtxsmzETIZ55KAzAAAzAAAzAQN0xgBAP9HUHfaknIcTPRBcGYAAGYAAGYAAGYKDeGGh5sHcsIb75pj8x/2AOCgMwAAMwAAMwUJcMIMQDfl2CX28TI8qLGAADMAADMAADMAADMFAqBtpWN8QS4XU1fOvQ15l/MAeFARiAARiAARioSwYQ4gG/LsEv1SSEeJngwgAMwAAMwAAMwAAM1BsDrcOHxRPiz/yFtK1pYP7BHBQGYAAGYAAGYKAuGUCIB/y6BL/eJkeUF0EABmAABmAABmAABmCgVAw033ZTLCFet68pVR6IF75hAAZgAAZgAAaSzgBCPEI8g2EYgAEYgAEYgAEYgAEYgAEY6BQDbYuWxBLhvW1pPv20U2kkfVJN/hB+YAAGYAAGYAAG4jCAEM+Am8EwDMAADMAADMAADMAADMAADHSKgdaXB8cS4pt7XiDtTW2dSiPOxBY/CCAwAAMwAAMwAANJZwAhngE3g2EYgAEYgAEYgAEYgAEYgAEY6BQDzdf/MZYQ3/LsU52KP+kTavKH6AMDMAADMAADMBCXAYR4BtwMiGEABmAABmAABmAABmAABmCgYAbaZs2OJcLrtjRtX35ZcPxxJ7X4QwCBARiAARiAARioBgYQ4hlwMyCGARiAARiAARiAARiAARiAgYIZaHmhXywhvvnyiwqOuxom0+QR0QcGYAAGYAAGYKAQBhDiGXAzKIYBGIABGIABGIABGIABGICBghlovuLiWEI829IgUhQiUuAXXmAABmAABmqVAYR4BtwFD7hrtTFQLjp6GIABGIABGIABGIABGIjHQNuUqbFEeLaliWdPuMNOMAADMAADMFD7DCDEI8QjxMMADMAADMAADMAADMAADMBAQQy0PPmPWEI829LUvqiAcEQdwwAMwAAMwEA8BhDiGXAXNOCmYcVrWNgJO8EADMAADMAADMAADNQsA7ubpPmi7rGEeLaloR3UbDtAS0BLgAEYgAEYKJABhPgCDcYggoEkDMAADMAADMAADMAADMBAPTPQ+umnsUR4tqWhndRzO6Hs8A8DMAADMBBkACEeIZ63VzAAAzAAAzAAAzAAAzAAAzAQm4GWh/4WS4hnWxoEiKAAwTlMwAAMwAAM1DMDCPEMuGMPuOu5oVB2HhQwAAMwAAMwAAMwAAMwcEDaN2+XpnNOjyXEsy0NbYY2AwMwAAMwAAMwcIwBhHiEeIR4GIABGIABGIABGIABGIABGIjFQOvo92KJ8GxLc2zSjQCBLWAABmAABmAABpQBhHgG3LEG3HQYdBgwAAMwAAMwAAMwAAMwAAMt990ZS4hnWxpYob+AARiAARiAARjIZgAhHiEeIR4GYAAGYAAGYAAGYAAGYAAG8jLQtrohlgivq+HZliZ74o0QgT1gAAZgAAZgAAYQ4hlw5x1w01HQUcAADMAADMAADMAADMAADLQOHxZbiG/78kvmGcw1YQAGYAAGYAAGYMBhACHeMQaTCyYXMAADMAADMAADMAADMAADMBDOQPNtN8US4tmWJtx+cIVdYAAGYAAGYKC+GUCIR4jnzRQMwAAMwAAMwAAMwAAMwAAM5GSgbdGSWCI829LUt8CAwET9wwAMwAAMwEA0AwjxDLhzDrhpPNGNB9tgGxiAARiAARiAARiAgXphoPXlwbGFeLaloV3US7ugnLAOAzAAAzBQCAMI8QjxCPEwAAMwAAMwAAMwAAMwAAMwkJOB5r/cGEuIZ1saBIlCBAn8wgsMwAAMwEA9MYAQz4A754C7nhoDZaXzhwEYgAEYgAEYgAEYgIGODLStXR9LhGdbmo62gydsAgMwAAMwAAMwYAwgxCPEI8TDAAzAAAzAAAzAAAzAAAzAQCQDre+Pji3Esy0NYoOJDbiwAAMwAAMwAAPZDCDEM+COHHDTWLIbC/bAHjAAAzAAAzAAAzAAA/XIQMtDf4slxLMtDe2jHtsHZYZ7GIABGICBuAwgxCPEI8TDAAzAAAzAAAzAAAzAAAzAQDgD+1qlqcfvYgnxLc8+FR4HtsUuMAADMAADMAADMCAI8UBARwADMAADMAADMAADMAADMAADoQy0ffFFLBFe94dvnTw5NI64q8Twx4pCGIABGIABGICBWmYAIZ4BN4NlGIABGIABGIABGIABGIABGAhloOWFfvGE+N93k/ade0PjqOUJNWVDMIIBGIABGIABGIjLAEI8A24GyzAAAzAAAzAAAzAAAzAAAzAQykDzdVfGEuJbHrgnNHzciSn+EDFgAAZgAAZgAAZqnQGEeAbcDJhhAAZgAAZgAAZgAAZgAAZgoAMDbUuWxRLhvW1p3n6rQ/han0xTPgQjGIABGIABGICBQhhAiGfAzYAZBmAABmAABmAABmAABmAABjow0DpieGwhvm3pig7hC5mY4hchAwZgAAZgAAZgoNYZQIhnwM2AGQZgAAZgAAZgAAZgAAZgAAY6MNBy352xhHjdvqbWJ86UD3EIBmAABmAABmCgqwwgxDPgZtAMAzAAAzAAAzAAAzAAA7EYSKUOSDp9kF892GBfi7S9+IK0Pf903l9qyudVw0QqdTAW612daBMesQYGYAAGYAAGYCDIAEI8ky4GojAAAzAAAzAAAzAAAzAQyYAK7wcPHpYjR44I/7BArVjg0KEjsn//oUjugxNnzhFTYAAGYAAGYAAGusoAQjyTLgafMAADMAADMAADMAADMBDKgArw/MMCtWwBfcGUybBKvqvCAuERp2AABmAABmAgPwMI8Uy6QiddNJ78jQcbYSMYgAEYgAEYgIFaZuDQIUT4WhagKVu2BTIZVsfXcn9G2XhewwAMwAAMJIEBhHiEeIR4GIABGIABGIABGIABGMhi4MCBQ9kqJWdYoMYtoDsv6TcQkjBJJw/UAwzAAAzAAAzUJgMI8Uy6GGzCAAzAAAzAAAzAAAzAgM+AipH8wwL1aIEDBw777QABpDYFEOqVeoUBGIABGKgkAwjxTLoYbMIADMAADMAADMAADMCAz4B+wJJ/WKAeLaCr4is5OSdtxCEYgAEYgAEYqG0GEOKZdDHYhAEYgAEYgAEYgAEYgAGfAfaGr0cJmjKbBdJpPtyKCFTbIhD1S/3CAAzAQOUYQIhn0uVPumiIlWuI2B7bwwAMwAAMwAAMJIWBI7osmH9YoE4toH8RkpS2SD54LsAADMAADMBAbTGAEI8Qz0ATBmAABmAABmAABmAABnwG6lR/pdhYwLOAfqgY0aO2RA/qk/qEARiAARhICgMI8Uy6GGjCAAzAAAzAAAzAAAzAgM8AeiwWqGcL8MFWxJqkiDXkAxZhAAZgoPYYQIhn0uVPumjgtdfAqVPqFAZgAAZgAAZgoFAG6lmEpexYACGePrPQPhP/MAMDMAADMBCXAYR4hHiEeBiAARiAARiAARiAARjwGUCKxQL1bAGEeMSUuGIK/mClKwxs3rpLet3YWxYtXes/f7sSH2HhEQaqgwGEeCZddPowAAMwAAMwAAMwAAMw4DNQzyIsZccCCPHVIWQgONVnPalofc9D/WTPnlb/meWy8PTAYZHC9udfzZOHnxocGs7iUD/de94iKpLbtaCr99SP+g3eK+Rcy3JOz5sj81tIXPitz/ZAvVdnvSPEM+nq0sODhl+dDZ96o95gAAZgAAZgAAaiGECKxQL1bAGEePrGqL6R65VnQwX4m+5+LFRQHzpyrPz7f/1E1A2rqzABPSiGB4X44LnGG4zHzjXtfD9XvA+m7eZZ/YXFle8lgRsHx5XnlTqgDsIYQIhHiA99SIXBwjU6ERiAARiAARiAARiofQbqWYSl7FgAIb72+zieY9VdxypSn9StZ9ZKchW19VqUCG91rvddMTsohgeF9+C5xmPCu94LO7e0olxdlR8msus1y1tYumHXotLgenUzTv3Vdv0hxCPEI8TDAAzAAAzAAAzAAAzAgM8AUiwWqGcLIMTXtgCCwFVd9Wur3KOE6zjXXXFeRXR3X/ZChPiovOh2OJ3ZqiYorLvn7rExG3bN7uFWF9fUV33XF0I8ky5/0kVnUN+dAfVP/cMADMAADMAADCgD/MMC9WwBhHj6QZ6FtcWArWAPiva6xc3secu8lfTBe+65rVI3Lmz1vQrjes3i1/M4q90tHhX2NQ+2370rtLvH5j/smt3DrS1mqc/ark+EeIR4hHgYgAEYgAEYgAEYgAEY8BmoZxGWsmMBhPjaFkAQuKqvfqNWoptYrgK11quK4PYxVlcc70qdh4nflh9LNyqtoNDu5iNsr3uNz4T5sHTDrrlxclx9bFNn9VlnCPFMuvxJF51AfXYC1Dv1DgMwAAMwAAMw4DKAFIsF6tkCCPH0h25/yHHleYgStIMCeJQQHxS9g9vRFFrHtuq9K0J8WB7c/Gvc9qLBdYOr8wvNO/4rzzN1QB0gxCPEI8TDAAzAAAzAAAzAAAzAgM9APYuwlB0LIMQjkiCUJYuBrgrxWp9uHLayXF39wKsrdOc6Vv8m/ps/Fc/tmt532XHTdK+7LwYsrMVncagbFN3DrrnxcpwsbqkP6iOKAYR4Jl1ZD4soULhOJwIDMAADMAADMAAD9cEAUiwWqGcLIMTXRz/H86x66lkFbROqw1wTr90V5SZw2z1XxI4SyJWJsJXqLisa9pyeN3sC/kuvveu57sdaNZ2wPOo1DatxaT6DIrulkS9984dbPfxSV9RVkAGEeIR4hHgYgAEYgAEYgAEYgAEY8BmoZxGWsmMBhHhEk6BownllmYgSzoNiey4h3hW4o+LTenbjCNa7rWR/76PJnpCuorv+dF93Fdb12A0Tlo7mo9eNvb1V9K5fO3bzaddwK8sf9sf+xWYAIZ5JV9bDotiAER+dFgzAAAzAAAzAAAxUFwNIsVigni2AEF9d/RXPl9qvrzBBW+u9ECHe9euK7XoctYLdva55MNF9TcOWLOHdjdvlMSrfrp/gMUJ87fMcrHPO66/OEeIR4hHiYQAGYAAGYAAGYAAGYMBnoJ5FWMreeQu0t7fL4cOHOx9BQkIixNefKIIQluw6V0HbFcWDx7YS3RXYg+K4rWbX7WR0BbvGqfXuhrFj86t+3GNdCa9CeTDu4LnxFCbEm99gGQo5j9rWxtLFTTbP1A/1gxDPpMufdNEh0CHAAAzAAAzAAAzAAAwkRA8tOBvbtm2Tbt26yb/927/5v1deeaXgeKohwJEjR+Tll1+WF198UZqbm0OznEqlZMSIETJlypTQ+129OG7cOLnnnnvk9NNPl+OOO07+z//5PzJ79uyuRlvx8Ajx9IE8B5PFQJigrXVkonYcIV79q9Ae3EbGxHe7r+eu+O4eGxfBdO3ctqzJJapbXi0u19Vy6v7z9svl1w3HcbJ4pT6oj3wMIMQjxCPEwwAMwAAMwAAMwAAMwIDPQMWV0E5mYPTo0b4Ar2L8z372M1m3bl0nYzsaLJ1OS58+feSss86K9XvhhRekoaFBLh7ooPwAACAASURBVL300lj+g/HOmzcvVn6XL18uxx9/vFdeFcHvu+8+2bp1qxc2k8nIe++9JyeddJJ3v3v37rJ9+/ZY8RbiadGiRfL9738/y+YPPvigHDp0qJBoEucXIR4RJZ+Iwv3yMhJXiHfrxcTxoJgd3PqlmEJ8MC03P7mOTezXvLj503Mte66w3Csvi9gbexeDAYR4Jl107DAAAzAAAzAAAzAAAzDgM5A4ZTRGhtra2uTqq68uuiisq8pvvPHGrHjdFffB40ceeURWrlzpi+TB+/nOp02blre0mqdbb701K08qymu6+i8s/UcffVQOHjyYM+79+/fLW2+9JU888USsX9++fTsI8SrM6/W4ccycOTNnnipxEyEeoaUYQgtxFI+jKCHeFa2D9tZ7J3Xr2eEDqnZdV63r6vh7HurnrZTX8CbKmzCu6brHlkZQ5A+em784ror3mhcT8YNliip7nLjxUzwGsSW2LCYDCPFMuvxJVzHBIi46KhiAARiAARiAARioTgYqIX7GSTPXSvNTTz1VvvWtb2WJ0yeccELBq9Kvu+462bt3r5+doBD/ve99r0Oces0E9lIL8boljW43EyzrkCFDRO/pP3X13PKkrvofM2aMX66wg2BZ3fClOh4+fHhYVip6DSG+Ovstnje1W29BMVoFc9v+RcV0Fcu1/l2R3YR2vRe87u6xbuK7hrdjV3x3j42xoPBu55anXK6WReMxAd7Nv5VBt6bRPFt6lv+gX7uPW7vsU7e1WbcI8QjxfgdPI6/NRk69Uq8wAAMwAAMwAAOFMFBRFTRH4mErvYstEJ999tmye/duPxdBcVqF9uA/vWb50GNdea5ivsZjv2HDhvl+dC913bfd7rmurkrP9S9sO5hLLrkk6+WBhtf09brlS13dqke3tIn6FyyrG7ZUxwjx9E2F9E34hZdiM2Die1i8KpqbqG4r1tWfCe/utbDwYddMVHdfBrj+9H5QiLf7FlZX+uuxXcelXcBAdTGAEI8QTwcOAzAAAzAAAzAAAzAAAz4DUUJtpa8nQYi//vrrPRFdhXT76TUTqsOEerXboEGDfD+/+MUvZMOGDQWbc8uWLXL++ef78Wia3/nOdyRqOxu9rvctb+pq+MbGxtC0C92aJu72M7n8sTVNdYkHiD3UFwyUloFcQjy2L63tsS/2LRcDCPFMuvxJV7mgIx06OBiAARiAARiAARhILgOhKm0CLiZBiHdF7bBjE+I//vjjrH3SzznnHF8Qj9pHffXq1ZFWVvE8KMJr+u6WNMHAukXNm2++6adr+c0lxrtxtLa2hq7ad1fwF3qsK/UPHz7sJpO4Y7amSW7fxHODuoEBGIABGKh2BhDiEeIR4mEABmAABmAABmAABmDAZyBxymiODJXqI62WZKHbtZgQr64J33HdqJXtO3fulCuvvLJDfDfffLNo+XP90/vqL5gH3bYmamW8xdeZMgTTCZ4Ht/6xtJLkIsQj8lS7yEP+YRgGYAAGkssAQjyTLn/SRUNNbkOlbqgbGIABGIABGICBcjGQJFE0X16WLl0qusLcBF/df3327Nn5gsW+HxTiTWh3I3AFa7vvXrO85XPDhHjdjia417vGE3dVu+YzajX9WWedJblW4XemDPnKiBBPP1aufox0YA0GYAAGYCCJDCDEI8QjxMMADMAADMAADMAADMCAz4ArMifhOJ1OS58+fUSF4+DvhBNO8EV4FYGPO+44Of300zv4C4bLd67pabpBIf6BBx7osF2LXjMBOkyID9tXXveX/+ijj7wPqFrYoBA/f/58OeWUU/y4zV/37t0L3mNeP9KqH2u1OMw9/vjjvT3mdRub4L+gEH/rrbdmbbeTa+93u/foo49mlQEhHlEkiaIIeYJLGIABGICBcjGAEM+ky590lQs60qGDgwEYgAEYgAEYgIHkMhAUZCt9HhTDTUQupXvjjTd6InyhaYcJ8XZNxXD7wKt+rFX3V1dh2sphQrzuof7OO+90+NCq+tMXCLlWseeqqygx/lvf+pY8++yzkslksoIHhXjLX5anPCdB+yHEJ7fd0ydTNzAAAzAAAzBQegYQ4hHiEeJhAAZgAAZgAAZgAAZgwGcgj7Za9ttBMdeE61K6pRDiXWF7+PDhkUJ81FYy3/3ud+X111/3xXwT9QtxBwwYIN/+9rd98V9tqEL8iBEjJLgq3s2v+jv55JML/kuDbt26Zb1QQIgv/QQfEQUbwwAMwAAMwEByGUCIZ9LlT7poqMltqNQNdQMDMAADMAADMFAuBsqutOdJsJJC/P79++Wtt96KvSXLxx9/7JXGFbH1WP+513IJ8eo3avV6MV4+qPDuivFRH31181uMdDUOhHj6sXL1Y6QDazAAAzAAA0lkACEeIR4hHgZgAAZgAAZgAAZgAAZ8BjzVOOH/lfojrVp83SJm7969HfaE1y1lcv1UvHdF7M4I8Zr+mDFjPMH8mmuukf/+7//OWsXeFWFc94WfNGmS9xFY3W9++/btobXtlqEr6blhEeIRRZIoipCnEnHZ1CSpFRMl/eVzkp78uKTH95H02DskPez3knn1DEm/d42kR1/Lr5Q2mPKk/2yH8xJxzvgRxgpkACG+QIPRedF5wQAMwAAMwAAMwAAM1DIDoapsgi7qFirPPPNMljB99dVXS1tbW1FzGdzD3RWUcx3rXuquiK3Hhw4dkvvvv9/Pc74V8VqQgwcPeiL5ypUrRcXzXGkWck/j0jhbWlqkoaGhqDarhcgOHDiMqMAcGQY6y8D2BknNesUT2TMD/1cy/X/Er4I2SCPE05Y725YJVzJ2EOKBq2Rw1fIElbIhwMBAfTOwZ0+r3HT3Y/LwU4ND+1C7P3Tk2ND7xo+GD4tDw3XveYts3rorZ3iLpxjuoqVr5aRuPeXzr+aFpqn51DJr2YqRHnHUdxui/pNd/0kXU3WVuq7kLkR8juvX/SBpMYX49vZ2ue666/w8azrB+N203TpQsfzSSy/192c//fTT5bjjjvPj0rLl2r9d77nlP+2002Tr1q1uElnHal/Nq34YthS/Pn36SDqdzkozSScI8cnun3h+JLN+Ug2zJP3hrZLpf3y48D7oZMm82k0yb54v6dfOkswrp0l61JWSfueP/EppA4R45i1onoljACEeKBMHJYOrZA6uqBfqJSkMqFAcJVLnuqf5jyuQ5ytrPtE6bjphQnzcsG4eLUyYqO/6y3WcS2jXFwJq8yiRXuMNK0swPbXbOT1vFnWD9zinj4GB5DCQJFE0LC9BAdsVmbt67IrhUYL0qaee6n3g1NI64YQTsgTrefPmdVgRv2HDBvnFL37hCeK6zcyiRYtiC/FBG6xZs0ZOPPHELHHdzXfQ/xdffJHlN9/2MKW0r9rMPoQbzGdSzhHik9MX8VxIfl2k1kyT9PAe2eL7wBMkPbKXpL94RlKrpkp7czPjPnQnGIABGPiGAYR4GgONAQZgAAYSz4CKvLa63BXbVSDudWNvX9hVP7nEaBOsLS4TmP/9v34i+X6uCJ1LtNZJYzCdqIlkmHit6ejK9ELEaiuHlSsqvajr9mIhzAa6Cv6TCdMi7aN5nbNguZdfFeujXpJo2gjxyZ9QRzHC9fqqu6QIolH5KKVQnEvQtvwEt4rRbWaC/4Jb04wePdoXw88880xpbGzstBCvIr67Z/wPf/hDWbFiRTAL/rnmz14aqIsQ75sm9AAhvr76O55vnazv1pSkpz6dvQL+xZ9IevI/pH13Y+LnFtR7J+udeTNsw0CXGUCIB6IuQ8RDjIcYDMBAKRlQUXv12s3etigqUpsQb4K1isQqRMcRv4N+TMDWuKLKEPRjorUbRgX1MBE77JorlgeFeMtfWDj3mhuH5jssT1HlCV63NDVOjUdfbGiZzZ/d1/LGSSfXSwoNz4p4+gtjCze5LISqkwm6GLVSPe42KsEV7SZSf+tb35KZM2d2KKkrqquoHRTi+/btK1OmTPF+Gj6TycjHH38sTzzxhPd76aWXOmylc+6558rEiRNFP8Rq+daV9HH+TZgwIUtY15X2uuI+6l+hQrzmX8thZSrEnTx5sgwbNkwuvvjirDyajb/3ve/JwIEDRT9om9R/CPHJ7Zt4biSkbhrXSfrty46tgh/wY0lPfgwBHm3Jnz/QVhPSVmEykUwixANmIsGk46bjhgEYiGJABeGwVdcmEruCtR33fvR5L4ydm/v0wGF5t1wJCvEqNFv6KlLf81A/T6B282vidVAwVz9R+bSV5xa3G58dR8WrNrEyFeJqWTSPtve7xW/nmq7G7Z6rf01Dr1u+wlyzW5z8uPGHxcU1+gMYKC8DSRVI3Xzpx0/79evnbQGzfPlyOXz4sHs78njPnj1y8803dxCJv/Od78g777wTGk8+Id5E5rDV5pre9ddf3yE99avC/3333Sc7d+6MzG/whn6o9tFHH82KT0XvpqamoFf/PCjEF3trGH0x8tlnn8ltt90mKrS79tDjn/3sZ/Lkk096H4aNW09+5itwgBBf3v6G/r3K7L11lWSG/PKYCP/abyS1fn7OMSF1XGV1jEYGzzBQUgYQ4gGspIDx0OWhCwMw0FUG4ojM6kcFYhWWLT0TlV0xPHitELFY0zAR3eLUa2EicjAdy5Prmh/Ls+VF43T9uccWxtK3e3qeS8A3f0FX03S39tH7WkZ9uaBp6bnGHczToNffk9nzlkXmM5iOnWvcrIinTzAecJPLQgW0z4KT1O1Zvv/97/uir4q9/fv3l+3bt4uK1WH/5s+fL6eccoofxgRjXZG+cOHCsCDeyu077rjDDxO2It7iUde2fdE8aHoat3v/u9/9btb+8nrvpJNO8lbHxxGp169f36EMKsxHlVkLNWjQoKw8RAnxnf1LgzDx3cqsLzi6devmr/q31f/mJvHDrQjxye2bcj03bHFBLj96r7Njpnzx1sX9xg2SefnXvgif/ug2ad+3t+DxYF3YCp0JLmAABiIYQIiPMAwPh+ocgFFv1BsM1DYDJoQHRWcTsV1R3K65InJQyA7zowzpZC4okI+fPNMT3S0NjStsNbyGD6YTxqWlbeloPu1Y/YdNFKPiDfMblmbUNYs3zup18+PWgebdPY9KByG+tttnVL1zvfrqPVSRTtDFtra2yFXmKgDrti8ffvihNDc3e7k+ePCgjBgxQlQUNoHYXF0dr6vWo/6lUinv46LmX1e3T58+XY4//ng/riuuuMLfhuaFF17w7v/pT3/qILiff/753ouCuXPndhDTNf6777475+p4LXdwNb+uqp80aVJU9r3r7op+TSdKiC/l3vtmv6AblZecBSrxTYT48vdZOo7RX9TzIjhGCvOnfoJ/sWdjLTfu4JgpzE9Y/HV/ralJMm+cc0yEH/+3yPqqe1uhMcEGDMBADgYQ4nMYhwdI+Qdh2BybwwAMRDFgE6xeN/T2t2HRa+pfJ1U6+TKRXK/pxCq42tsEZ5uQ2eTL4rG0XSHerqmr102IVteEc3tB4N4LO3bFaiuP+nPzbXlXv5ZPy4PlPyy/wTgsTBzX4g2mFxVW03fLovv0a/pallxxIMTTvqOY4nqy2Cixztnl6HUrF10FHiasu0LvcccdJ1deeaWoKO5e12O999prr3n7uefKUJg4/e1vfztLZNdV8vpPt8v517/+1SEtTa979+5Z+7i3tLRI7969O/h95plnQrfHURH+gQce6OD/wgsvFF3JHvVP83T//fdnhVNhPuxfWFmDdiv2OUJ8stp+pfpiHTtEjSFsjOWOO6LyqfG4/myc545N4viJir+er6fH3HxMhB/7V2lvyyC0oSXBAAzAQCcYQIjvhNHq+QFM2RkswwAMVIIBE8BVADYRWN2TuvUUFYF1Zfp7H03O+tCoTtyiPjxqEzKboIWJ5mHXNE0tf1jchdpF96fXbVpM9DdRX+OxSaKWyb1u+bV8qF8T0cPym+taV+NwJ7pWds231onax665rl5naxr6EJcJjpPJQ5hIm8Rrulr9008/9VbAFyIQ61Ywuqo913YuVt4VK1bID3/4wywhO5iWCfEaJrhq3faBD1t1r1vR6L709kJBV7tr+OC/hoYGUcE9mK7GPWbMGM/7li1bRIV0/ald7N/GjRvl9NNPzwobJcR39iOtwT3wX3zxxdgfetUtgfRlQZL+sSK+Mv2SjneCYwsb98RdbGD+bYxj5zbu02eOjbH0np6H+eHZlM1Aas4bx0T44T2kvTUVOs7Dbtl2wx7YAwZgIIwBhHiEeB6iMAADMJBoBnRi5k7AdHJlEzUVdm0/c5tI2eRLJ1puOH0ImmitIriK9Oo3uGpe/WmargDuPkAtDkvHvRf3WPOq8Wve1dVzy4dbDve6xu3ei5tW0J/aTMVyN/9WJneiGgznnmtYqwP3uh1bPnO9CAjei7K3xYnLQBYGysdAkkTROHlRQV0/2Hr77bd7K92DgnXwXPdxVwHfFayj0nE/dKqCubsljcWr8ek+7CoqqxC+bNkyOe2007wXBLoNjbv3u6Zpgrm5+qFTFdqXLl3qrW43/9u2bfNWwevqfUvLdZ944gnRbXf0n5tP10/Y8dChQ6OKW/B13f7nj3/8Y1b+pk2bVnA8SQqAEF/avkbHGsExQGfPNa6o+HScsnjZWm+8Eif+uGOgunsW6cdZB55wVIgf/Atp37Ep0fOGuqsf5rHwCANVxwBCPNBWHbQ8XEs7OMa+2DepDJhYHBTX3fyqmGsTKT12xV0Lr5MxE5GjVmgHwwbT0PsWn4ra+uFSzVe+iZ7lTV39haUTvKb+rMwmcLsiupu3OMcaNrhq3cqSL//ufbOhm6baM/hXCHbfXgCYDew6Ln0ODCSPgSSJooXmRYVh3Q/+1FNPzRKHwwRpFbj1Q6yNjY2hyQRF5osvvlh0dXpwn/awuDt77cEHH/RWiL/66qtZ298E49OXDu7qeRW/g37CzvVlQtSHaUON8M1FXS3ft2/fDh9dDX6oVVfpz5w5M1dUib+HEJ+8PqmUzwkbWzE+Can3toykR1z0zWr44yW1ZhraAfoRDMAADHSRAYT4LhqwlIMC4g4ZDFBfdHowUHcM6MTIFYCDxypcW39povWahi2e2G6CtQnuJpjbZCtKOA6K4W78lr4rZpuQbfGaf3Pd+zrhU2Fd3WA6YSvNbYKo99xji7tQN5cQH5X/YBph+VQ/Gt61i4Wz8tsLBbuOy3MOBpLJQOKV0hgZ1FXlS5YsybtK/tZbb41cGb9169asbW90X3pdfa9xf/7556Ir4cPE7s5eUxHbVpOr8P344493iF/9aD6Cq/njbKGj+XJX0ccwY5YXXfWfr2zdunUTXclfzf8Q4pPZL9nzIjiOsRf9el39BM8tHG7h9Zqa9cqxLWkmPuKPt7Fl4bbEZtgMBmDAGECIR9TjgQoDMAADiWcgbFJl4q4rHps//aBr2IrtYBidtKk4rPvMm8Ae5doEzx6grhuM172nx+59zaNujaPXXSHe/ESlr/nUFwy2hY2GjfIbdV3LoL+gbfKlHRZfVBxufZgdggK9pqfb8qgtzA8ug1MYSA4D1SyihuVdt4Dp379/h73edZsZ3dIm1z/de/3888/3VqdPmjQpy6sK8hr+ySeflDPPPDPnCvZ8Arbe1+1sVPy3f7pSX9O2sLq3/eTJk0P3ttdwGt78Bl3d515X2avA39l/utJdXwQE47Zz/QuDt99+OzR/nU2zEuEQ4kvfF+lYJGxs4V6zcZe67kv+4LktUrDxh91XV8cqbpz5jlkw4NR94zrJDDzxqBD/ymnS3tTEmI05IwzAAAwUgQGE+CIYkYmj88DGnnRMMAADJWBARWd3Eqb9rk20gmKuCdQ2IXP7aBOc7Z666t8mazqZc/3rsU3w1E/wnobXSZ0K+Tp5s3iD/oLp2n1NW392HuVqHlSA14+3dvVjp5rHoIjupqv2jEojl52i6kOvq41c26g99GVEsE7dfHDMsxUGKsdAJcTPcqSp+6nrinPd01wF5SFDhsQSjVevXu2trN+7d2+sbLa2tnbYB972g8/lavy2P7wlpEL/OeecI2+88UbWVjR231xdqd/U1BSaruanGP82bdokl19+eYftaS644ALp16+frFy5MpY9i5GXUsaBEF/6vsfGBuoG+3odh+j4wO6p644Xguc2xrLxVL5xTr77wfzU63n6g5v81fCplZM71FO92oVyl75/wMbYuNYZQIgvgWBU69BQPjpGGICBcjKgEyydlNmqJp1ABSddbn50IqbCr03I3HsWzo1DJ3T6ixKng0K8hrUVVXqs8bvxuunZcdR9zWNYPi1c0M0lkgf9Rp1rerbiy8pm5emsq/Zz47W0bTIdVkazSZTdLQ5c+hsYKD8DpRQ5kxL3vn37ClodfujQoaRknXyU2AII8aXvc3TcoGMOdYN9vI0d7J66uYR4De+OQXRsFjW2sLFH2LgkmI96Pk81zPJF+PSYmzvUUT3bhrKXvn/Axti41hlAiEeI58EKAzAAA1XDgE3OdPIWNsnSyZdO1l567d3QCZ5NwNSfxmUfFtVJXlh8OggwsXr85JmegB02ebN48wnZJtzb4ELjCovP7gddDW8ievBenHMrSzAfbthctoi6FxavpqH2COZX4wjaKejHzQ/HDMZhoPwMlFjnJHoskGgLIMSXvs8JGwsExwbqR/t/dfMJ8TrmsHGcjquixhU2jrS4eb6E1fV+ybx5wVEhfuD/Snvj+qqZJ1CfYfXJNbiAgaQxgBCPAMeDFQZgAAaqhgETd22y5grKds8mVzoRs0mZPXxNMFe/rgiuYSzOKNfitbhc143XvW7HUffdPJhfc22y6ObHnYiavzDXhHE3rB1rmmFh9FrQhkF/aoOgTS1cMG9h+dc8BCfHGmcwbDBdzhlAw0B5GUi0SkrmsECJLYAQX/r+xsZdYWMrGz/YveA4IXiuzwe7NnveMm+cYWMdG9fYGCiXGza+qcdnT2rhu8dWw099OnLMWI+2ocyl7xuwMTauBwYQ4hHgeLjCAAzAQOIZsImUK9i64rZOuHRyZZM2e4DrdZ1YLVne4LnqR8/Vn62GV796HjUBM1E7GLelUQuu2dcmrlFlymWnqDBcZ0ANA9XHQIl1TqLHAom2AEJ86fssHU+Ejdv0edEZId7CBL/Zo+MbG9+pH/sGjjuG1DRdf3X9zGpqkszLvzoqxL/8K2lvbkn8HKGu64s5LHzCQFUygBAPuFUJLg/c0g+QsTE2TgoDKg67AnwwX/kmTxo+n8AcjJNz+IcBGKhnBhKtkpI5LFBiCyDEl77/NyE+1wp1WwChrjsODJ5rX21CvH7U3hZc6HV3jIgQn79e01Oe9FfDp74enQid4KuZX8vJZ18h879eFZqfdRu2ey9Yxk2aEXp/x84mueqWPh4LcZ7rLidx/KufVWs2yyNPDZGfntXLe8H0nz84Q3ped698NP5L2bev3c+XLe4Jcq/+r729r8xduML3q/Hmm8NoW7AXTXHzir/87QAbYaNSM4AQjxCf1dmXGjjip1ODARiAARiAARiAgWQzUGKdk+ixQKItgBBf+v5JBcRirog3gfOeh/r5q971OYMQX0BdblsjmQE/9oT49NuXJUYj2N64Vy679p5IIV0F+P/43q/kwccHSktLpkO+5yxYLmf2uN57WRNn7FGoED9p6hw54fRL5C+9nxB9aaAsrmnYIq+/9ZH84ndXyl0PPiP6FxiatnE66PX3vGM919/yVRvk0aeHyA9OuTDrr3sR4gvgF12vA/txeMdPZRhDiKfB0mBhAAZgAAZgAAZgAAZgwGcg0SopmcMCJbYAQnzphYlChPigUBS2It78BEVUhPj4dZkedcU3q+GPl9SW5f7zwGxbSffpgcM6fGNI86PCuwrwp557lZx3xW2yacvODvkePHR0aNio8gQZivKn11es3iinnXeNqLDe3JLukLauxndX8psQr1wG49XwDzzWX+7s87Tsazq6ih4hPj6/QXtyju2SzABCPJOuDg+BJANL3uhQYQAGYAAGYAAGYKC0DJRY5yR6LJBoCyDEl7Z/0f67K0K8ipjuVjXu88Di1dX2umWHCri2dYcrsLJHfHYdp5Z+6m9Jk574UOL0gRlzFntiu9ahW9+6LY0K8KPHTvb+EkLr372/a3ezXHNb38jV9K5fO3Y5sWtRrvJ18Z/ukq3b92SlG+U/lxCvYdwXR3qOEJ/NaZRduY6dqo0BhHiE+FgPjWoDm/zSGcMADMAADMAADMBA5xhItEpK5rBAiS2AEN+5fqOQ/tYEcxNOTaC0vbNNPNc4TTS3e+q6K4r12L3nhnWFTVdgtTgtHtdfIeWoCb9N+yTz6hlHhfjBp0j7vniicjnLbtvTjPpgQpZ2odvS6F7syo+ujNd92tva9vt+dDX66Rdcm7Uqfcu23fLYMy/L//z0XNG92W+48xFZvXazH8Y4mT1vmTz70vBIf7b3vIrxcW1hnBt3wXBBDhHiS98XBeuAc2xeDgYQ4hHiYz84ygEkadDxwQAMwAAMwAAMwEBlGSixzkn0WCDRFji4d7O0797GHKkG5slBYTP4bNH7JuKr6Bm8Xw/n6U/v81fDp+aPTKwNVPC+/YEn/Y+f2rY0JoSrKB/cnkbrV1fE68p4rctNm3d6K9ivvvVB0b3jN2xslH+98Ia3B73eUz8qxOue8r1u6C0DXx3l+Vm6fJ3ceNej0uOqO7xzi+u3l/5Zhr/7aWyb5RLi9QXCUwOGyi33Pi5797Z5cSLEV3YsVA/tnzJWhjGE+BoYYNB4KtN4sDt2hwEYgAEYgAEYqEUGEq2SkjksUGILHNyyQDJv/E5S89+KLbDVYj9AmWr/+ZZaMdEX4dOjLpf29mOryZNW/7o9zW8uukFWrtnktUvblkava17tXD+Yquf2Vw+6R7yVRYX5C/94h2zctMO/pnuz3/vQc/5fWagQr1sfqSjurq7XMBrW4jN/9lcdlob9tYe94HG3UYoS4nVPeN1eRz/WcsEWxgAAIABJREFU+vFn0/y8IcTXfhs0bnDrq64R4hHi/Y6exl9fjZ/6pr4rycDGHYuEHzYolIENOxbI0k2fyJ6mYxOoSnJM2vSjtcpAiXVOoscCibaAJ8T3/5EnUKbfv15Sq79ivsScufYY2LNDMkN+eVSIf+ln0r7z2PYsSXy22fY0Klhr/lTw1m1p9Lqe2wp5E9BVKFfh3j6WqmK3fgg17C8fVKDv+8RLnvAeJbBrGhrWVqzrCvqwFfGajgru+ps2a5HnR+PU8CbEm0jvuieecZm8++GkLPEfIZ5xpnLDr/ZsgBAP2DRsGIABGCg7A7NWD5E3vjqbHzboNAPDZ1wgH86/VT5f9k9ZsG4k4jz9WNn7sVqeGCVaJSVzWKDEFnCF+IwJ8hMfkfbG9fQzPGtqhoH0+zf6q+FTXx9bNZ7kZ5tuQ6Ni+r597d5+8LYtjeVZt6e57Np7vI+nBrelsRXyrvjtHt9092PeKnoVzc/pebO3RY3Fa+6QYe+L+YuzR3wwLhPiB73+ni/W6zX92Gtra6YDW/mE+ElT5/gfI7Y84taeaEud1l6dIsQzmOjQ4dPQa6+hU6fUadIYQIjnJUSxX8QMnfY7+WxxH1mz7Stpa+s4mUlaGyA/9MtJZqDEOifRY4FEWyBMiPcE+VfOkNTs15k7MX+uegaUY/8l04e3Vk15bHua6bMXe/u127Y09jy17Wl0tbzuJ2/byOh93XddV7PrinkVv4M/XVmvW9FErYjXe7pq3lbEa5z6IuDiP93lCemWB9eNEuL1JYHrL+r4xVffkatu6SMq+of5yXc/LAzXGH/CQOUZQIhnIBHaqdM4K984qQPqoJYZWNc4R/hhg0IZaNg+Uxauf1eWb/5M5jUMly9X9JNxi+6TYdO6Z62sHznrDx5ftdyGKBvPiFIykGiVlMxhgRJb4OCmOb5IaWKl66bf+aPo3tqlbIPETR9fKgZ0q6XMgB8fZfzlX0v73t1Vw7JtT3PX35/J2pbGbGXb01x7e19vpbhtS2P3VZjXD7U27tgXWWYT4m2LGwsb3CNer69YvVFOO+8aeW7QCNG95s2vuV0V4mfPW+btVz9xyuwOca/fuN37OO3zg/mWhdkbl36zWhhAiEeI79CpVwu85JOOFgZgAAZgQBnY07RT5qx9Xd6acZEvyA/96reyYN0onnGMc2CgEwyUWOckeiyQaAscXDkupxBvonx61BWSmjtM2vc00s90op9hDFeBMdzWVZJ56WdH+R54oqTWz686dnUVum4pE9yWxnjS7Wn+43u/kmtu6yu7djdnlU/3ddcV7Lq9zbyvV3qr4tW97+Hn5L2Pju49r+L5mT2ul1439JaBr46SDRsbZc6C5XL5Tfd7q/D13NJSV7eH+eGpPTyBXz8UqyvtNZ0vpi+UBx8fKCeffYW/zY3e697zFv/DsG48Yccq7v/zude8+PUlwpqGLV7cWsbzr7w9ND9h8XCtAm2NPjGrncBgNoMI8TQQGggMwAAMwAAM1AQDLa1tsmjDaHlz+nm+IK97yLe2pWqifAxiswex2KN09jhy5EiihVIyhwVKaYEDs16KJcSbIJ95+TRJT35cUuvn8axhPJVcBratkcwrp/lsp5Z/lty85uBIt6NR4Tu4LY2NCXR7Gv2Iqrstjd1Td8u23fJ4v1e9OFTQ/2X3q2TAKyN90d5Wsetq9GdfGi7/89Nz5T9/cIbccOcjsnpt+AdtVXjXOH96Vi/vJYHGe+q5V3nb2HwyYZq3p72mXagQr2F07/jPPp/l/QWA5kPj1hcFbp7d8nFcurERtsW2xWIAIT5HJ18sIxMPDRYGYAAGYAAGysfAtt1r5J3Zl/ti/Efzb5W9zbuqcsIJN+XjBlsfs/WhQ4dLqXMSNxZItAUyq6dIeuTlvmDpC+7ffLg113l6zM2SWjxG2lt5AUyfeqxPrbQtUltWSublX/lMp2YMYkyEDgQDMAADFWIAIb5Chq/0w5j0kzMwoi6oCxiAARgoPgP7mvfI2AV/9cX4D+bdwMp4xjxMOGIysH//oUQLpWQOC5TKAvrHIPZMTi3+UNLvXeOLl7kE+A73hp0n6WkDpH3baj8+ixe3+M98bBpt09TmpZIZ8kuf45RyGfNZgL9ou2IbbAMDMNBZBhDieQjxIIYBGIABGICBmmSgta1dxsz/sy/Gz1j1Yk2Ws7ODQMIxgYhiIJU6UCqdk3ixQKItcPDg4Q7PidSy8ZL+4M++kNlBdM+1Un7g/0r6096SWvm5tLe0dYg7qg1ynf65GAzoX2dkBp9ylN0BPxZ9uVSMeIkDPmEABmCg8wwgxCO+8DCGARiAARiAgZplYE9To7w981JfjF+3fXbNlpUBcecHxNiuo+0OHGB7mkQrxmSu6BbQ1fCp1MHIZ0RqwwJvlXt6ZK/OifKvnC7pj++S1Py3pH372sh06I869kfYpECbNK6T9LtXH+N00MmSWjMN5hjvwwAMwEACGECIT0AlMLAocGBBndF5wgAMwAAMFMDA5p1LZdi07p4Yr6I8+8Xz3GXsFY8B9oovutZLhAm2QCZzKPaztcuifP8fSfrtnpKe+hQCaQHPc/ruPH13a7ukpg+UzMATfRFeBfn2HRtis42N89gYXmEJBmCgiwwgxHfRgDyoeFDBAAzAAAzAQPIZWLZpnL8qfuryfzGAZPwDAzEZ0K06+IcFatkCR44ckUJE+OAzvxiifGbIqZIe+1dJff2etO9upH+K2T8F66Kez1Pr50nmjXN8AT7z8q+PfjgYW9KeYAAGYCBRDCDEA2SigKznwRNlT76QRx1RRzBQ3Qx8vuyfnhg/9KvfSuOe9Tz/GAPBQEwG0umDooK8Cpb8wwK1YoHDh4+Ifpi4mM/2oojytlp+2gBJLf5IUhsXSvu+PUXNZzHLTFwVHBvtbpTU3GGSHnX5MQG+//GS/uxBmIn5fIPfCvJLHdGv1ykDCPF1WvE8cHjgwAAMwAAM1BsDu5u2+VvUTFj8dwa/jIFgoBMM6B7aKsxnMkd/e1u2yey1g2P9Nu2a74ez8LjHbFkrtji4c4oc3vB8rN/+ls1lZULZ1V85nn8qyqfmvinp8X+T9PAejlD6o84dv/xrSY+6QtLjH5DUjEGSWvqJpDYtkfbm5rKUpxw2I40YY9N9eyW18D1Jj75OMgN+nM3SsN9LasNCeOjEsw32YrCHXWlbMFAUBhDiAakoIPHg4sEFAzAAAzBQDQxMXzXQ36Jmy65lPAMZB8FAFxn4ckU/v0298dXZkcfvzfmTNLXsw95dtHc19LOZbRPkyOyTY/32bxxaP0zs2iKpZeMl/WU/Sb9/g+h2NJn+nRTlg+FePcP7OGf6s79LavpLkpoz1NvmJrVsnKRWfyGpdXMltXmZtDeuO7r1DeJ9dXDXlvHqLbXwXUlPeEjSIy7uKL4POlnS43pLatVUaW/LVEe56qAfrIa+mjwyd4OByjCAEM9DgIc1DMAADMAADNQNA/ua98jw6ed7YuH4RQ/UTbkZaFdmoF3rdm/cs07enP77SPHdFeYXrn+X9lYnz5pU07ZYIryK9QdX3FPXXKQ2L5fUwnckPeHvkh5RhFXzQYE+1/lLP5XMK6dLZmh3Sb91iSfy6j7j/EpsgxmDJfXx3ZLSD/VOfUZSX/aT1Bf9jp5//rikJjws6Y/vlvSIi7I+upr10mbg/0r6naskNf1FSa2dWX11tmCkt6of1krMWo72XOvjE8rHuDfJDCDE18mAOMkQkjc6SRiAARiAgXIyMHP1oG+Ew9/Kjr0b61oEKqfdSav22vmsNa/EEuE/mHeDtLS20dbqaN5xaMk1scT4w/POkvY22PD7x5ZWSTXMlNSiD7yV7Z5Ar6vnh50nGRXOcwnr3MM+MAADMRhIT3mS53EdPY/95wtlTgz3CPHAmBgY6SBqb4JOnVKnMAADSWRg176t8sZXv/UERN2qJol5JE+0naQzsLd5l4ya9YdYQvziDWNoZ3U25zjQ8EIsIV5Xxad3zoKPuHzs2SmpjYsktfwzb/sZFdTSY++Q9Ns9JfPKaYiQMURIXmYUaTskbF217Q0hnjFm0seYtZ4/hPi4gx78MUCGARiAARiAAZ+BPXta5Z6H+smipWv9a59/NU+Gjhzrn+sg6uGnBoteDw6oNLze27x1V4d7Qb+lOP9scR9PQBwx40JpaW2tSB5KUS7iZHJVLgYWrBsZS4T/cP4t0t6+nzZWZ8+PzPbPYwvx+ze8Ah/F4kP3CN+3V9p3bpH2basltfFrSa2dIakVkyS15CNJLRglqdmvS2raQElPfUrSEx+W9Kf3SfrDv3jb06RWfyn8SmuD9BdPS3rMzUf3fP/s797Hd9Of3CPpD2+V9HvXSnpkL2+7oA4fYg0K38N+L+nJj0tq+YSqq7P0zCGSVg7hrWI2KNdYgXQYl8JARwYQ4os16CEeBtAwAAMwAANlZECF7Jvufkz+/b9+0qmfhtU4VDiPE4crpqt43r3nLdLrxt6ypmGLX++fTJgmJ3XrmSW8azj1GxTcVYTXdN14yzlQa9g+yxcRWa3bcYBYzrogreqzf1tbWt6fe73fhty94IPHSzd94vcR1HX11XVn6yzVvDO2EH9w+e0wUsbxQ2frlHBlbr8tbZLasEBSc4dLetz9knnzfMn0P77jKuwXT/Lupxr4yxIYLTOj9Fs8u2CgUwwgxANOp8DhIcdDDgZgAAYqy4AJ8cEV6CpsqxjurlQP1pWGMSHe7qkwrj87jxLQ9boK6K5fC6Ouxh0U3sPizpdHN87SHO+X9+Zc7QmJY+b/2S93adKqLCuUCfsXmwF9eRUU3MPOP174V9pWHc81Di39cywx/vC8MyXVshdW6piVYvdRNRtfc7O3gjr9WR/JDDq5gyifHnWFtG9bQ1uiLcEADMBAghlAiE9w5dTsAAKb0ynCAAzAQJcZCBPibaV6lEhuz5XOCPEWd75V7JYvd6W7vhTQ1fO2Kl7z5963fJXbXbhulC8mbt/T0OU6KXf+SQ+BvRIM7GvZK6PnXuO3nTAB3q6t2DyBdlXHz7sD6wbGEuJ1n/jM9smwUsesVKIvq/o0dcX80k8kPeYWyQw84ZgoP/AESU99WtqbW2hTtCkYgAEYSCADCPEJrJSqHxRgUzo7GIABGCg5AyZ424p4VyiP2mrGVsEXKsRbWhbenlMaj/7ipB2VJ70eXEFv8Zfa1Y9N2kdbZ64+9tcApU6X+BHQq5mBOWvfiCXCf/r1PSXvB6vZjvWQ90zjF7GF+ANrn4YXxk4w0FkG9uyQ1Nw3j3601/aSf+033v7x9dDXUEbGVTAAA9XEAEJ8Zx92hGOgBAMwAAMwUEEGTBwPCuFhorauPne3gilUiA8b2GgcGqfuC29CfGdWuWuYsDyHpVmKa+MW9fZExbdnXsoHJSvIcynqljiLPylr3LNORszoEUuIX7V1Cs+IOm9TqZY9cmTuabHE+EOLroCXOueFPrs4fXZq5eeSGfwLf4V8+v0bpX3HBtoX7QsGYAAGEsIAQnxCKoKBR3EGHtgRO8IADNQLA64Qr1u92Gp1FchdYTt4rvbpqhCv4d0taqpZiF+++TNfVFy3fQ4DVMZFMJCDga9WPOe3F9t+Jswdv+gB7JjDjvXynNJyHlr2l1hCvG5Pk969FG7gBgaKwcDOzZJ++zJfjM+89DNJrZuLbYthW+KAIxiAgS4ygBDfRQPW00CasiJwwgAMwEByGHCF+GC9mFCuYnnYfvEmxK9t2OqJ9rm2jbF7Ju5rfO7q+mDausLdwuRyLb5g+HKft7S2yZvTf++Ji1OWPcHAknERDEQwsGHHglgivArza7ZNw44Rdix3H1fp9A6sHxxbiN+/cTjcwA0MFIuB1pSkpz51TIx/8SeSWsm3GCrdJ5J+cuZS1AV1USkGEOKL9aAjHgZNMAADMAADZWQgTIi3lelhArgrnpsQr3HYAEQFdle0D24Zox9c1Ti6IqC7+dM8WNqVdlWAV/FQBfnWtlRi8lVpu5A+ExSXgYlLHoolxH+18nnaUBmfBW4dJfE4vWthbCH+4PK7YAd2YKDIDKQWf3jsY64Dfiypr9/HxkW2cRL7XvLEGA4GkssAQjydMA9iGIABGICBKmTAhPinBw7zV7XnEslVZFeBXreweem1d/2tbGyQlk+ID97XcCqsa3zqWjxRrq3Sty10ovxV4nrD9pm+wLh665d5y1KJPJJmcgfT9VA3K7dM9ttI2FY0du3dOVfJ7qbttKEqfKaUkuNDi66MJ8bPPUNSLbvhB35goMgMpFZNlcyLP/FXx6dWTMLGRbZxKftQ4mYMCAO1xQBCPB0wD2EYgAEYgIEqZMCE+ODKchO8VXQP3rNBnF53BfGwuIIr4i2suRbmnof65RXiNS53Rb7FkRS3rS0jI2Zc6AmNny/7J+2hCttDUliq1XyMXXB7LCF+6aZPaD+0nw4MHFjXP54QP/tkyWyf2CF8rbYrylVbwkrS6zO1brZkBv38qBj/4kmS2sw3GZJeZ+SPPgIGapMBhHgGywx2YQAGYAAGqpABE8KjxHa7b6vg9dwGc0Eh3raMUcHc/OQS4i1uE/M1vrDtcAq5FlUOy0+pXRXgdVWvCvJsT1Obg95SM1Sr8S/aMDqWCD9p6aN+/1GrtqBcnesb0jtnxxbiD6z9FxxV4ZiEttG5tlFuu6XWzZHMgB8fFeNfPUPad22jvdHeYAAGYKDMDCDEl9ng5X7Ykl51DIqoJ+oJBmCgUAZMDDcBW4XzoPDtCutu/EEhPkx0D7umcZhobyK8G2/UcVRcUf4rcX311qm+2Lh223QGpIyPYKD9gOxt3iW63YxtPRPl6gusrbtXYTPaTSQDh7++LJYYf2hRr8g4KvFsIE3GZ7XGQGrecH+LmvSIi6W9pY02R98NAzAAA2VkACG+jMautYc45WFgCgMwAAOVYyAoxAfrwgRzE+fdrWFcId7icT/UqnGFiecaTuML+g2mHTwPiyvop9LnLa1t3sdaVWicupwVmZWuD9KvXN/i2n72mlfzivDaZuave5sJHHOKnAwcWPtMLCH+yOyTJb17Sc64XEY5TkZfQT1UVz2kxz9wTIyfxF8zwW918Ut9UV/VzgBCPINmBrowAAMwAANVyIAJ6LYivpABiSvE63HYR15d8dwV9TubXlgaheS5HH4nLnnIEx11da/uG1+ONEmDyURSGdi2e40Mn35+XiH+06/voa1U4TOk3NxlGr+KLcTv3zgMpmAKBkrJQGu7ZIad54vxqbX8JWC5+0TSY/wHA/XLAEJ8KR9wxM0ACgZgAAZgoEQMmBBvK94LdXVrmTnzl8s5PW+WRUvXdqgnV4iPEuujBpBheeuMgB8Vf6mur9g8wRcdG7bP7GCTUqVLvPU7EE9y3etfhkRtReNeX984l7ZSon4+yXwUnrf9cnjhhbHE+IPL74ApmIKBEjOQ2rxMMgNP/Ga/+DOlvWkfNi+xzQvvNxkfYTMYqEUGEOLpbHngwgAMwAAMVCEDJnZ3RuDWMIXs8V6LA6CwMjW3NMuwad098fGL5U/TLqqwXYTVK9cKn8Qt2Tg2lgg/c/Vg2gntJDYDB9b8M5YQf2TuaZJq3hk7Xtp44W0cm2EzZSA16xV/VXx6/N9oc/TnMAADMFAGBhDiy2BkBjoMdGAABmAABmCgOhiYuKSvJ0AOn3EB29MwRqrLycj2PWtl5KzL8grxH8y7UZpaWEFJ3x6/b89snxxPiJ99smS2fVaX7Q+e4vOErYphq/2SHnWFL8anGmYltt3pX2q63zuqRP3rIpg3R30iZ19yk/fNpP/8wRnS87p75Z0xE2XfvvbE2q4StiLNYrRP4qhVjhDimWTywIABGIABGIABGPiGgRWbJ/oCJNvTMAGo1QlArnJNXPKw3wbcLWiCxyu3TKbf4NlRGAOtrXJ4fvdYYvyBNU8UFjd1gb1goHMM7NgkmUE/PyrGv3mBtCf0GzmVFuJ37W6WW+59XM6/8nYZN2mGbNq8U9Y0bPFEeP0OUq8be4t+UynX8zXfPS2jbjWpbj6/wftLljfIwFdHyc5dzQWHDcbFOeNfGCgtAwjxPLDpqGEABmAABmAABr5hoKW1zd+eZuryp7ALbaOuGFi4/p1YIjxto7QTtFqeAB9c/XAsIf7w1z3rqu3Vcp1TtuT3F6n5bx1bFT/79US2vUoL8aPHTpbfXHSDrF23tYN9dKX8mE+mdnlV/L6mdk/MV7fQdqP20RcCXX0ZUGi6+E9++6aOkldHCPFMMAvu5GnIyWvI1Al1AgMwAAPFY2Dikoc8MZLtaYpnU/hMvi0371wqw6efl1eIHzP/Ztnb3LVVf/CQfB5KVUeZbeNiCfFHZp8s6d2LmKcwV4WBsjCwX9Jv9zwqxg86Wdr37Eic3SstxP/j2VcS/X0lhPj6fa6W6nlNvKVjCiG+LA+20lUgjQPbwgAMwAAMwEBxGVi5ZZIvRq7dNiNxk1Hqu7j1jT2P2nPcot4+98FtaOx82LRzZUPjfNoE84dOM5Bq2SOH5/0mlhi/f+MbnU6Hdk0/CQOFMZDavEwy/Y/3xPj0uPsT1/bChHjdHuap/kPll92v8rZ0OfGMy+TlYR9Ic0ta2tr2y1MDhso1t/UV3VbG5UH3c7/9gSe9++ovVzwW7rURH0auiDc/rjt34Qq59va+ovvI6++GOx+RRUvXevkw0Xzh4tXyt38MkP/56bnyyYRp3v1zet7s+1P/ej573jJ59qXhnj+La/XazV5cugJeV8Lrljbub+jIsVlldvPGcWFtA3thr2IzgBDPQJoOGgZgAAZgAAZgwGEge3uaf2EbxzbFHogSXzImN3PXDs0rwqsYv2jDB7QH2kOXGTi48m+xhPiDy27vclr0McnoY6iH6qiH9KRHj21Rs2FBotpfUIhXAf3pgcPkL72fkK9mfu1tyTJ+8kw59dyr5L2Pjn7DZP7Xq+Tks6/w7rsMqsCt28zo/TjxaNiVazZJtx43yC9+d6W8/tZHsn7jdi+sG68dz5izWE44/RL553OvefvI617yzw0aIb0fed7bvkbLcvyvL/by8NC/BsmEKbO8/JvwboK9umf2uF563dDb2/99w8ZGmbNguVx964PS46o7RM9bWzOydfse+Wj8l95HZJcuX+fFpdvlWH5wq6P9UU/1U08I8Qym6aBhAAZgAAZgAAYCDNgHK3V7mta2VF3bRydzN939WKw/yY7rN58/XcnFXqflmZCsb5wbS4T/auXzdd0OmCAXj8fMlg9jCfFH5vxKUs2NcBd4PsFi8VjElgFbNjVJ5uVfHV0VP+JiaW/fn5j2FxTite5UhFYh3epRjx95aojc2edp0X3Wgyvfzd/goaO9FfF6P048Fk5Xzj/2zMveynRdff7DU3tIn8cHiK5st3xYmg881t9bmW9h1W1pyXjpaVk0/KgPJvh51/thQvxJ3Xr6K/ctro2bdsiFf7xDtBx2TeNk3BTgmb7T58M4wU0GIwjxNE4aJwzAAAzAAAzAQICBlVsm++Lk2m3T69o++URzd1Af169ONnVyGfWn0wjx5Zko6F9/jF1wu8+6bUETdD9ZeJeoX7euOS5PHdWinVPN2+XI3F/HEuMzWz+Bu8DzqRaZoEzJ6U9Siz44tip+wajEtL8wIT6MGx0/6OIBHY/o/XGTZnjbu6zbsN0719Xjl117j3c9LLxdC8Zj19XVrW90HDPglZHeKvT/+N6v5MnnX/eu68r5X//+TzJp6pxI22lZ1I/6deONEuLVv+tPRf++T7wkt9z7uOzde/TZjBCfnDbk1hXH1EsYAwjxDGyyOvUwSLhG5wEDMAAD5WFg1ppXZPyi+/lF2ODD+TfL2zMvkQmLH5TPlz0uX67oJzNXD5YF694WFct37ttStGeaio5vTv+9J1BOXvpo0eKtprb08FODs/YbdfceLeRY4wmWW6/Zyi2dPGp87kQTIb48fc7M1YPyivBvzbxEtuxa3qEOg3XKeXnqrFbsfHDFPbGE+IOr/g57zFdhoMwMpEf+4agY//Kvpb2pKRH21zGCvsBXsdr6Qd0nXVek63Y07rjEFeI3bdkp5/7hVhk99uh2NSrMn3fFbaLXC4nH/AZdXZX/xttjRfen161ubKGBO6YJhtF7NgZy74UJ8e6e8a7fIcPez3rhEBWnG4ZjntMwkAwGEOLL/FAD/GSATz1QDzAAA0lkQIX44EpUzs8uyCbDp58vHy/8q3y9/l3Z17zHn2R1pr6nLHvCS3vYtO7S1LKvS3F1Jv2khIm7yl3zG8dvcJKqk8dcQrzFqX6Ck/Ck2Kga87Fq65RYbWv55vF1y3411mu15Hn/5ndjCfGH550tqZa9MMicFQbKyEBq81J/VXx6ypOJsL2OFdwxgK5sv/hPd8nlN93vvcjXbWP0w6WDXn8vS6DW1eP60Vb9OOvu3S3y4OMDs7Z6iRtPrr7VHdfoHu26L32+FfFxhXgts5Y9mL4uaGBFPPPZIBecVwcTCPFlfKDRKKqjUVBP1BMMwEClGFAhfuyC2/hF2GD03GtlxIwLZcz8P8t7c672VscPnfa7SDFRBfRJSx8V3QO7M3W6YccCP+6F69/tVBydSTdpYUwId1eYReUxn9+w+0EhXifSOkG11W028dZV8nYclT7X4/Xf6xvneW0p34u+mauH1C33sBSPpc7aKbVvoxyZ/fNYYnxm2zg4ZM4KA2VmID3+gaNi/IAfS2rLyorb/5MJ07K2c3HFb+uHdMuYex96LkuI13u6Uv30C671PuKq4ws9tzBx41F/+oFWC+e69pFY9bNrd7Ncc1tfybdHfCFCvL5IsD3oNd2oPeJ/2f0qWb5qQ2ge3fxyXNrnG/bFvvkYQIgv8wMtX4Vwn0YLAzAAAzAAA4UxsLupUdZumyHzGoZ7wvtbMy7yBXQTGj/9+l7ZsbfwycnoOdd4celLgHqtFxPPTRiP40aJ9ia6u/ftmsWrk9OnBw7r8GfbbFcur208AAAgAElEQVRTWLuI4rVxzzp5d/YfO7QRayvmfra4T90yH2U7rheHQbPjweV/jSXEH1z1ECwyZ4WBcjOwd5dkhpzqifFp/XBr29EPjVr7LYerwrquWNfV5bpFy11/f8b7AKumbYK3rohXAXxNwxZ54vnXvG1n3DGG+rUPqP6/E87O+khr3HiamlPyeL9XvY+z6vhEP86qiwY0zddGfCg/PauXt8rePsY6ccps+cEpF8o/n3vN86P+nhs0Qno/8ryXFx33xBXiz+xxvfS6obcMfHWUbNjYKLri/sa7HpUeV93hnVs96B74v730z3J332e9ved37mqmzZS7zZAezMVkACE+pqGsg8Mt7gAce2JPGIABGICBYjPQ2pby9oyfvPQf/j7vKi7qCvnZa16T5taW2APFBetG+oLlpp2LY4crdpkqGZ8J8cGJbViecvm1VWcquGtcs+ct81a4mwCvE1OLM0x0D7tm/nHj9yMfzr/FZ9pE96CrQn3jnvV+fWDf+PbFVvFttX/zqFhC/OH5v5P21mTsU039xq9fbFX9tkotGuNvUZOa+XLZnwkN67dJtx43yH/+4Az58z3/EN1+xuVK94i/4c5HvPu6R/vwdz6VV4eP6bAiXsPo3vD/9/jfhH6kNU48uhf8zDlLPCH/h6f28P5qT/PV87p75bPPZ4net7zp6nX1q/f0Q67q79rb+8rchSs8P4UI8foCQsdLz740XP7np+d6cWmZNc+WnrnqT7fr0XFV2Pd5zB9u9bdN6rC66xAhHiG+QwdOo67uRk39UX8wAAMwcIwB3Sd+2soBMnTaOb74+P7c62T7noZYz7+9zbs9AV+Fyi+WPx0rTK3ZP5e4HixrlF+7rhND/bmivq2IR4g/xm3QrsU6H7eot98OguK7e7566xd1yXqx7Ew88VhONW2SI3NOjSXGZ7Z9BpPMW2GgAgyk37/+qBg/8ERp31H4XxbSH8brD8PspAsYoj7WGuafa523NbbDduVkACG+Ag+zclYwadGhwAAMwAAMwMABb1uacYvu80XIN6f/Xhq2z4w1qZ+05GEvnH4ItpDV9LVidxPRbeV6HNcV2tUOOpm856F+3sdcEeIr0yfpX4i4YnvU8YrNE2O1i1rhm3JUhkez+8EV98YS4g+ufgQumbfCQCUY2LVFMi+e9M0WNRdJe2uKeihTPSDEV/b5ZM8pXOqh2AwgxJepEy12xREfnQEMwAAMwAAMFMrAfpmz9nVfjFQxftPORXknlCrYm2i5dOPHef3XWr2YEB8U18PKGcdvZ4T4OPGG5YdrR9vIjFUv+gwby2Hu8s3j645vGCm0Hy2u/8yWD2IJ8YfnnyvtBWwrRr0Wt56wZ33bM7VsnL9FTXoC32woV3tAiK/vdlcuzkin/JwhxCPEM+GCARiAARiAgbpiYOWWSTJ02u88YXL4jAtk6+5Vecq/X0bO+oPn/4N5N+TxW/7BXKkH0IWI4HH8FiLE63Y1J3Xr6e13qivx3e1rSl3uWol/6aZPYonw6q9Wykw5qqcfSjXvkMPzzowlxme289casF09bNdaXaUnPuyL8anZr/O8YO4AAzAAA51kACG+k4artQcr5WFQBwMwAAMwUE8MrNo6xRfj3555qezaty3nYNL9aOvabdNz+q01O8YR163McfwWIsRv3rqrrmxtdiyWu3nn0lgi/OKNH2Jn5gQVY+Dgqj6xhPgDqx+rWB6L1SaJh7FW1TLQmpL025cdE+MXj6E98tyAARiAgU4wgBDfCaNV7cOTstJJwAAMwAAMwIDPwLJNn/oipX7ANdf+780tzTJiRg/P/4fzb/XjqNUxgQrg3Xve4q9Ej7MvfJQfXdGuf15ttuqKEK/xaHysjM8vZinPYdvPBK8t2vC+XzdWR7j57YuNimejzNZPYwnxhxecJ+1tbfDKcxwGKsXArq2Sef2so2L8gB9Latar1EWl6oJ0YQ8GqpYBhHjgrVp4mQAVbwKELbElDMBAvTIwc/VgX6z8bHGfnM/E2Wte8/1u3LEwp996tWeccndFiFcBni1q8vdX+5r3+KwGhXf3fOH6d+GYuUDFGUi17JPD838XS4zPbJ9c8fzG6efwk7+fwkZVaqPGdZIZcqq/Mj495mZp37ubdsmzBAZgAAZiMoAQH9NQDBSqdKBA/dIZwgAMwAAM5GRgv0xa8rAvWs5dOyzSXvta9op+4FWFzPGLHoj0V8tjhqgV6YUI5EEhPirOMDsOHTnWW6nPljXR47Jtu9f4PLuie/BYt1sKszHXom2LbUpnm4OrH40lxB9Y80+4zflMK10dwT+29RnYsUHSIy72xfjMq2dIav182iZtEwZgAAZiMIAQH8NI/gMHvzQqGIABGIABGKg5Blrb2mX03Gu/ES9/K7n2gJ++aoAvcqrgWS9jBNuqJrjNjJV/9drNYvvD64p1FdvtXtANCvEWd64wGof5u+nux7y0gvFyfkDWbZ/t8xkU3t3zeQ3DI+sHOyK2VYKBzPZJsYT4wwsukPa2FPwyFoGBSjPQ2i7pz584Jsb3P17S714tqfkjWSFf6bohffoHGEg0AwjxAJpoQCsxESBNJqAwAAMwUH8M7Ni7UYZPP98TMdVt3Ls+9Pm4u6lRhk47x/M3eWntfzjQVrpHCfBRbUVF9ShBPijEaxyWTtQ+83YdET66bS7bNC6WCD937dBQtqPqkuvRNsc2RbRNW7uoyH5k9sl5f5nGKTDMHBYGEsJAavWXkhnyS0eQ/5FkBvxY0iP/IOkvnpHUqqnS3txMfSWkvnhuFfG5RZ3SrjvJAEJ8Jw1HB0YHBgMwAAMwAAO1xcCabdN8IVNXyLe0toYOMKcu/9c3/n4r23avDvVT7WwUa/W5iu760VeNz2wSJsTbPdzOtan5DSN8dt2V7+7xWzMvkWWbxvv1gK07Z2vsVjq7HVjzZF4RXoV69Uc9lK4esC22LZiBpn2SWjBS0iN7ZQvy/X907HzQyZJ5tZtk3jxf0q+dJZnXukn6/Rsl/cFN/Cpsg9SKSfSp6IIwUEYGEOLLaOyCH2jkjc4ABmAABmAABsrKwMzVQ3xBc9KSR0LT3t20zd8r/sP5t0p7+/5Qfzz3ETPKwcC0lf19Zl3h3T3+ZOFdsmXXcjilP000A5nGL2MJ8YcX9pD29kyiy1KOtk8aPGMSycC21ZKa9Yqk3/uTZAb+7zEh3hXlOU6UXRDi6UsS2ZfU8JgNIb6GK5fGRIcKAzBQTAZs/2f9WGJYvPbBxaj7YWFq/Voum+mqYP3Vug2qrXxt7ftl7ILbfWFz0Yb3Q+to4fp3fT+LN4wJ9VNtZSe/1fXM2Ne8J+tDw67w7h5PW/mC6HcQqN/qqt96ra/DX18aS4xX0b5ebUS5actVw0BTk6SWfybpr56X9OTHJT2+j6TH3iHpYb+XzMu/Orp9zche3kp6XU3PrzI2QIinT6maPqVG9FuE+BqpSBpOeOepgmDUfrK57qk97c/ydd/apNhX8xz8E/+k5K3QfOSzf9z4osRMrbdC9zSOm2a9+stn07h85hLsrd0VIlBbGE2/0LrRvJzT82ZRNyyslrkrbS6pQrzaN6pvDLNDvV3b07RTRs66zBPah03rHrqSuK0tIx/Ov9nzM2JGD9nbvDuUoXqzHeUNH48U2y5bd6/KemHkCu92/Ob082Txxg/hkrF+VTFwoKFfLCH+wNqnqqpcxe4DiK88fS12xs4wAAMwAAPFZgAhnsF5TQ1iTfQy8dwVe1Vo63Vjb3+fWhWicgl3Ju5ZXCYe2gfjotyuir+WTlCItLLlynO+DsLKFJX34PVSCnVu3VjZ3PT1vtnCvW71YWVVO0XZqpT5t/TrxQ2rI7de3vtosidYu9fcY5dbra+outH6LbQNdSaM1Ztx+MmEaaF50riDQrxeCzJn8el1t9ydOR426hPPBp0Jq2Hy2c/6AS2H5VvdfHUctIO2z1wvMdy41c5WHpcF10/SjjftXOx/lFVF+V37tmbZS/O7bfcaGTrtd54YP2npox3uJ61M5Kc2JhKLNoyWt2Zc5P9FhgnvrvvR/L/Ixh0LYZJxftUxkN45O5YQf3jhhdIe8R0P+rra6OuoR+oRBmAABmCgFhlAiGeAXnUD9FwNUYUkFYdUcFfXFdlUnJo9b5knxEcJUW7cQT9xRKc4ftw0gscaXvMZJlSpaGZCVlw3KBYGyxRM3z0326lN3evFOnbjNwFQr7nHrj2j8q5lDJYzn62CgmIxyrRqzWZ55Kkh8tOzenn19MNTe8izLw2XXbubY9kvrBydyZdrs86EjwqjdaN2W9OwxROs9dz1q/lXcV3rSd3gffWr18LYNeHY6j7Mj17T8FFxRIUJu+7yoseW12AZwsLaC4egiO3awj22Mlka7j1Nz82Ley8snFu3Ue1B/bgvHN047ThoQ7O/3Q+LW8sbbDdufixsVNtzX7ysXrs5ix0Lm0R3+ebPfLHz3TlXia6UD+Zz5upBvp+F69/pcD/on3MmFJ1lYPuetaLfLXAF97Djqcufkn0te2GRMX7VMnBo0ZWxxPjM1uyxSGfbFuHol2EABmAABmAABsrFAEI8g/SqHaTHaSQqOLkCkIWJEotUePtX/zdCV6O+9Nq7eVd/hglTlmY+14S3MGHO7gXFv0LTM4EtTGAMuxZmu3zliHvfrRsrn15zj93yWd6DNgiKmeZPyxP0a/fCbBw332H+JkyZJT845UL5S+8n5KuZX3ti9KSpczxe7vr7M7JvX/69eYPlCEtnzCdTRX/uPbWZK6S6NnP9deVY7eimYXVk9g2mqXa2l2Fuum6d23U3rMYXFHvVn9Wbhrdw5gbzZtfjuBavlSN4rnEE8xSnnuKk7frRcgWZNBu7ZXZtZfct7xafnudqt24cGiZfnbjxBusmGJf6DdrLwlezO69huC98fjDvBmluyX65plvUjF1wm+dn6Fe/lQ07FnTgtJrLT96TMSnRLWbennmpz2KYAK/XeBmUjPqi3XStHg6sezGWEH9w+V30t8xlYQAGYAAGYAAGqooBhHiArSpg801sVFQKE5TtmomJKnq5AleYABe8pqKThre4olxLI19eg/dVwIoKGyVuhQlhwXjd82CZ3HvB4zCBLuinM+dq+6Dt7nmon7+K2gRGTd8tn5v3qLpQAVLjUsHw6YHDskRdizcoJnamDMEwGzY2ysw5S6StbX9We9J6+2X3q2Tp8nVZ14Ph9TyOwBvmR8u1dfseaW5Je2m4NgtLp9BrZjctS1hYu++2pzB/ei2MKcuv/rWK1l9YPFb3wXuWttolKs1c13O1OQvntj1NPw4/mh/XXhoumHcrk/rTsmu8btxWtmBbcfsITScYr55H2cPitDBme3WtvOrq/aCY717T+IP50nMrt1sON95qPv5i+dO+ADpm/p9FP5Lplmdv8y4ZNesPnp+3Zl4cuo2N65/jrol09WS/HXs3yOdL/+HzFyXAT176mGzauSSLy3qyE2WtrTaV3rUwlhB/ZPbJkt6zDO6Zz8IADMAADMAADFQNAwjxwFo1sBY6yVKBS8WhoKCkopOKWa5YFSZIuUKZph3mJ66wFSfvmh83TxYmmA+7rq6W0RXm3HthxxZXmIgWdi1ou7A4O3tNy2rxu3Z0j12bW95dgdP8mt1c/5ovva6ioG2nUm6BMJifXLbSvFo5ovzF8VNImlHphF3XtMMYiXPNhF9XzLU0LL/6FydR9WN1b/FYWJf/uPlz49Aw+dqPpqH50i1p8vnVfCmTli91NT0Np3vQW77V1TK5fzVgLGsYi0fbh5tfs5W66kfvaRksXovDDWP31NW4c9WX3teflTPoX8+D8Zlfu65+ourR/FSj29a+XyYs/rsvhr4352rZtW9blj227Fohw6ad6/nRbWx27duSdb8ay02eKytuLt30sYya1cvnLkyE/2ThXbJ665ewxni+5hg4tOyWWGL8gXUDa67s9L2V7XuxP/aHARiAARgoJQMI8Qzca3LwqkKUCk69bujtua5YZIKdK2CpsBXcV9nEPxOfgiKYNsx8wlfcxhtMyw2n6Ztg7V7XY73nli14P6nnVl4rl2tH99i1uYWx+tCy6X0tv9a1W59WbotL71dCHBw3aYb85qIbpGH9McFOV64Pf+dTb6W85uviP93lrYjW/IeVQcuiZVa/7s/qXe+5ZXNt5tph4Kuj5MQzLpP/+N6vpOd193pp2n11t2zbLX/7xwD5n5+e6/m56Oo75bPPZ0lrayZnH2E2jhJ/3TTUj9W5XQ/mV/+SQa/ZfXXD6t6uRdnMDW+cBO2kNtSfvgQw22oerf+wa1Guy6Kbnh5bnVk9Be8Hyx28H2bXYBhNw7Wn2SRXvjQO6+u0nGY/4y8qv8H86bmGCfrXtF07h4Wr1mutbSmZuORhXxQdOesP0rgn+69dGrbPlGHTunt+VEDduXdTFsvVWnbyXd7JyM59m2XKsid91sIE+NFzrxHdroa6KW/dYO/y2TuzZUwsIf7w15dIe9vRvwqkfspXP9gaW8MADMAADMBA5xhAiEeIr6lJnIlXJg6Z8KerUfWaCVe6utUVsOy6hrfOJChqmZgXJcq51y19iyufq+kXGkbjjBtOBTM3f505NsEuX1ni3HdtqaKdiq+F5MnyYoKpntvP0rf6c+N169z8lcJVsX3arEVy7h9ulecHv+VvWaNb1wwb+bGccPol8vKwD0S3tJmzYLncet8/Pb9WrmCe9jW1e2L0A4/1F/1p2Ww7GmXAFT6DYq0yrXvXn3/l7aL71m/avFPeeHusdOtxgyxZ3uDxbu3mutsf8rbR0Xy9M2aiqBi/ck1uIdHCal0E8x08t/botjM3v3o9uKWQxmF1qWW1ONVWWrfuNbtnruVN/QVtq3k5p+fN/ncfzG+wHJZ2MLylEeZaXG66Gq/LYtSx9QMWh5sf11aabvA8yEJY3jRMlBBvttSy6i8sDxan2cXKYWHVtWu5XLdcFmd1uPtl2sr+vkA6fMYFsmbbVz6XWgZXjB8xo4esbzzGbXWUsXMDSsrWdbtt271aZq4eLCNnXeYzFhThR8y4UOasfYOPsTJ+z+p3arL9tbXJ4YWXxBLjM9vG1b49YJ46hgEYgAEYgIGaYAAhHpBrAmSdgJho5ApmKvaY+KoCkd0LClgmPLkTGROadLWsClca3gQs82dpdlVU0rhdMdXitzzkErTy3bMya5zBcuu1qDJE5cny1hVX7aV/raB1oy9JCt0jXtNW22h4/WkZtRzqar5VzFS7uGW3cgavd6UcwbBqX0tb03n06SFevszfug3b5beX/jlruxG9t3zVBm+FvJtfC+O6ej/oJ1hPwTrW+yeffUXWKnN9ITDglZHyyFNDvJcEq9dultPOu6aDqK2r4Tdt2emxmY+zfPc131rvYf5MfNayWj255bR2oGVRP+paPHbNtZMbj/oL+tH4tC3rCzkV49Vmlq7bli0dNy/BdILnFkbbsx5b/EF/xoqbnuvH8mPlNDfMVlY+jcv6Ozcu99jStfhcV+MxW2tcloewPOo1Dav50T7S8qVxBPuyIJNufqr12P2AqwqlKs7rinkrjyvG6wdc5zeM8O+ZH9yuC9e1YsP1jXNl6nJdAf/bSAFeOftyRT/ZvufoC9RaKTvloB3kYuDA+sGxhPiDK+6jj2VOCwMwAAMwAAMwUBUMIMQDalWAmmuQHnbPxKQoAc0EJhWN7NgVmyy8Ck0mbIUJTGFhw/KT71pY3PnC6H0tnwlgcfznEuFcQc6Og4JanDTy+VGbab515bPZ1rWje6z5tZcfVidqK01D60vjsZ9es/KZn7C8WPylKJuuhNeV6prXr2Z+LZffdL/ccu/jsmt3s5fnL6Yv7CCKax737m3z/GlZwvJs19yy2rUgO0HR07WzhVFXw91wxyOye3eLl79rbusrd/ztKVFRPt92NG48wWOzr9uezI9eszq3a8H86vVgPbp1b/ds5by+yNE4jdk47h9u7C1vvTfeS8eEcjffdhwVVxQ7Fs7KHjy3Mqur9tf4o+o8LGyYrawdhPl307NjjcPalIXVe5oPzZNeiyq35dfqQ1+gmf2MzSCPGndYvi0/1eyq2P72zEt94fTd2VfK4g1jpLWt3WvHW3etzNrf+7PFfaSppSlnG69me5D3wgXVFVsmyvhFD/gMBVe////27vw7jrPO9/jP8wfc3+b3e8+55/50h3OSQJgLN0yIkzBsGUwYYCbMEEgCDEtILpMhG2EZQgKcyUDCJMR29gUcJyaQ2M7iVbK8yZJlLbYsS7JlW7Jkrd3avvd8y3w7jx4/Vd0tdbW6u94/6FR3rU899aqqpz5Vqrbv+vsE/GdF+fWLyfqvs+nRY7LY/MGSwviZ850cX7muxQAGMIABDGCg5g0QxIO05pGWcyGlYVBSiGQBmc7TgiM/JLIgqbW9J3qyU7/r+Nr1Q8RSw69i62DL1ICr2Lg23MIwXQ93vWx4qOuvq44Ttw7LKVNomX4/na+V2erTyqDD7LOuk1sGW1/tp581TNT1se1oy7HxkhzoNDZ+ml39kVh9BYy+K16X466Pv1x/Pfzh+j00jj9PfxvrNHF14QbKvX2n5Tt3PxS9I17fE/+tux6Ujq6+suvJ3X7+Oug2tW1uw/zyWn8tt41r21TXVfvrfNx+No3bTSqHjecu28bXp7t1uVbX2rXxtevXtzvM/6zTat3berjDdZgG2RaKu8P0s5XH3bfd8tr41k/L7W5PG+53dXxbps7b1k+7dlPD+oXKoPPT6XRZWhcWxOv20PUM3fixMmrXL0+9fx+9MLLkvfEanOprRfYff1YuTIyLDtcf07RAVd8bf7jvVZmcTP7thXqvF8ofH4COjo/Iwd6X5JV9txZcmA+3+1LzF2VP12MycO5Iw+03+Ij3Qd1cWjdzXfeVFMTnex9jX+G6FgMYwAAGMICBmjdAEA/Smkda7kWJhkP+U+Kh0M7G0yApFJT501hopd24YFP7+8supfxWlnKCKi2HllvLqYFeKdPqOFq+pPK7w0oJ9kpZPxtHgz0rq5Vf+7l17YZ/Wi9WBnccXQ99rYjOV0NDCw71uzueLdft+uO7wyr9WZ+E/9I37i7cKNnV3Bq9gubg4e4l+12aT8Q/8NB/RU+69508E9WN1o/96dP7/tPv+l1/XPZHP39Crrzui9F75HU7uC7K/Wz7hLvNra51W1qYa/20q2W0my2hcYptZ9eRO1/3szvf0PghK65Jd17uZ5uX2lWnZtjGsXVrammP9mGdpw2zrs1D68z6ueW1ftrVcuo2cfcDd7j7WecRdwzwyxEqg/azfThUHi2vX47QeG6ZGuHziTP75fVDdywJVvX98M09v5XzF4ajrvvakZebb5L2k68veZ1NI9QD63BpiKh1cm50UI70/0ne7XhIXmj63BInbviun984fLcc6X+j8J8V1Gm4TqmX7NTLzJndJQXx84duLJwv8ZEdH2xrtjUGMIABDNSbAYJ4gviGarRacOQHXxoO+f1sXA2w/ABKd2Q/6NNwSeejf6HgXqdZbuBk4VioHKGDio5n4aYO1+9xZQpN7/azetD1cvun9VmDSV2mW49uvbnlccfxt4eVT7eLG/zFjRc3vvVfSVeDa/3z56FPxH/o41+KnjTWYfaOeP2xVH1Pu41fzjviv/G9n8jo6MVXX+j0uu1d225d6nB9Gl/fS99zfLCwPFuudTV819fq2HftJtWjPvWsy3HHt8/u9rN+1nW3p/Xzy2v93W5onKTy6bRJ5bB5u/MNja+uQjcd3Pq2eVlX56n7po3jLsPGcevB/WzDteuWx+bplsX2f6uHuOOYO0/9rPOKeyLebhq4y/E/23rZvNybKG6Z3eWG6sAd3kifB861y5uH71nyru/1O66TPxz8ruzq/E95Zd9Xl4Sw+vT83p51UVjfSPXAuszK8aFm2d31mLy6/xtLtrkfvOv3l/d+SZq6n5DBYV6tgR0upkMG5ttvLSmMz53eEmybhOZJP6xhAAMYwAAGMLAaBgjiCeIbqsGqQZCF1BZMWVClgZe7k1lopOP5w3Q8m07np5/t6dy44EynWW7gZGVxA2W3rO5nLY+tm9s/qVw2fz9UK/W7lcsN8dxlL+ezW143TLay6nBdri3b3R7u8txxtH/ceDaNP75+12XZ8OV0f/3bl+R/XP4x+fEvnpADrV1RGewd8Wv/6bvRe+N1vhq+r3/uNfmf7/+EPLb+d3Kib0ia9x+R2+74kVz32dsK6xpXBg3VdVoN8k/2n5XRsamiQbzW59fu/HH0vnotk9aPBv9a1p//+umoTPsOdspnvnS7vPzq1qhMWq5fPvZs8H32Oj97P7vOyy+ru/38Ye42t2Gl7DOhcYpt56RyhJbtjq/lVJO+FZ3OtWrzsa7NQ6ezfn7Z/e+2Hq5B28dt/7SbbP60tjwNxy1ED20TK4t2dd42P12mlVW7Oswd1+bvls0d7pfH/27jxvW34Y3Y1R/UfKv9x7JuxzWXhLD6pPwzuz65pL+O9+r+f5Hmniel78whXl1Th22zM+f75NCJ34n+FsDTuz6xZPuGwnftt6XtPjk6sFUmp3hVUSMeB1inyl3c5wY2lhTEzx29a8l5jG1QuW1AXVKXGMAABjCAgcoYIIivw4s98JeG3w2zLHhy606DJw2wNFS0p0vd4RaQ6Xz88Co0P512JYGTLsN92tQti33WMofKasM1MEsabuO53WJhmzuu1om+lqJYOd1p4j5rWa0edb30T8e18ti7urVetL+7Pdx5utMmjWfTuOPrsnT+WmdxYaNNl9TVgL153xHRp9X/15WfjG6UaPeHDz8uA6eGl1wU6tPnv3t1W/SkvAatn/7Hb4u+osQtV9yy9Kn1p174g/zvD3+mcDPGdxMyqOv5yOPPR6/F0WVa2TTM12XpfF95/Z3oZsB/++8fFP3TGwi7mw8veXLfLZfWV8iBbb9Qfbrb3OYVKq8Ns66/jto/zoNNkybtrlYAACAASURBVFQOG8ddto2v9WMWQ9skVBabX6iry7An0PVzyJrOU5er3dA8rJ9bXlt/dxvEbRObXrvuOun47rr6y7c6CW1LnZdbHv0e2r6h8bRfVv7OXzgXvZJka9sPRAP4uEDW779+x5roFSYazm9r/5Hs6vyV7Oj4pbzT8aBsa38gCnuPnW6W/rNt/KVYBxqsdw6+JW19r8n+489JU/fjsv3oL2Rr2/3RfzlsbPlqtJ027PxY0W2rP+yrP8za3P1b6T61XYbHhjKzH2Rlf2c9Uzy2T07KwoEbiofxzR+Q6dHj7FsZOs+y36W43+GIYwkGMICBVAwQxAMrFVi10CjSgEnDLftzQyYdZoG1hU0WClvZLeiyHzC0MEq7Ns9Q1+Zr8ym1a+Ww5bjT2TItNHOH+Z+t3BbQ2XxDZS2nn7ts/Wzz95df6nddJ61zDaG1zmz7WHk18LcAU+dp62Xj2XK0LG7ZbLykdXPH1/nEBaS2DLrhRr7Wo789rP79/lqH5tjfNsX2GV1O3P7pLseWbfMvZtQNkt3Ptr11uTYvt1tsvja9dq3s5ly/u8Pts9WNdq2f37Uy6k0qLU+oHDr/UH+dl9WPW2fa3/a5uP5xZbLyaFf/3P3YLbs7nts/a5/1B1r7zhyUPd2/iV5Xoq+l8QN4vl/dMHXyu73/JG+1/0RaT2yUgXMdsft11vYD1jd8PqVeitfLbO+jxYP4psskf+IJ9jeubzGAAQxgAAMYqFkDBPHgrFmcy70osfDMDaMsgLJQ3Q/+LIjSsE+fbNbhGnTpd5tGx9EyaSjlh4JW1pUGThqEuWXT71YOW74tq1jXgjG3HopNU85wree4ULGU+Vg9av3afGzbaR3ofyron9VBXD345bBt7YeKViZ/fOu/0m1n88la1/Yd3T72Z9vTrwvb5q5lv97Nrc1Lu+4+4c9zJd/9ZfvzCllRV8X2KV1PK7+Oq9PoOmh/fxnud7MeZ9etm7hjkM5PlxMqo87X3Ta2r2hZQ+Pbto0rt1t/Ot9SxnPXN3uf89HT6/oucH1vOEF8fYbuT+38W3l+z43y+5Yvy2sHviVvtP5bFLjv7Hwket//sdO7ZXT8fOK+nj37xUNW6oQ6KmZgevSYLDZ/sGgYP9/6BfY/rm8xgAEMYAADGKhZAwTx4KxZnMUa5P5wC41CgZKNq2FRXIBl08eFSTaPtLu6fA3G4sK4tJfP/LkYxgAGMFAZA+MTE9FrSN7p+Jnoq0lKfeJd3xn/zO4boh/xfO3AN+WN1u9HPwK75fC9on+vH7pDOga2Ss/pXfylWAf6OprTwz0yPHZaLkyMN0x7if27Mvs39Vj9epzruq9oEL/YdJnkht5mf+UaFwMYwAAGMICBmjRAEA/MmoTJxU31L26oc+ocAxjAQGUMnBruigLz9TuuC4bv67aHfsT1E9GT1T2ndsrk5AznZtpnGMAABjwDM2d2lxTEz3XeQ915dcf5vTLnd+qResQABjCAgZUaIIinkUJDFQMYwAAGMICBChg4ebZV/tT6r5eE7/o6E32NyfN7Prdk2Iad18uWw/dFT81PTE6zDSqwDVbaMGZ6Lq4wUNsG5ttvLR7GN18hMyNHOaZyTMUABjCAAQxgoOYMEMSDsuZQcgFU2xdAbB+2DwYwgIGlBnqHWuQPB29fErLr0/A7jv5Seof2Ru8O19fN2KtpXmj6nLT1vSYXxi9wDqYdhgEMYKAMA7mBjcWD+KbLZPbYQ9RrGfXKeX3peZ36oD4wgAEMYCAtAwTxNFBopKZswH4QMe6d79qfd8JzkE/rIM98sYWB9AyMjY/Km4fvLQTsGrSv33GtbO/4uYyMDcnI2FnRd7xbAL9uxxrZ3fWYjE9Mcu5N+dyL+/TcU7fU7aoamJyUhQM3FA3jF1qukunRPo61HGsxgAEMYAADGKgpAwTxgKwpkJVq2JcSfif9qGulyqHz0R9fTVpW0g/IVrIczIsLZwxgAAOVM3DizH55bs9aJ2S/Rt4+8lM5NzoYnVf1Kflnd99QGL5x31dlaKS3Ic+5uKqcK+qSusRAcQOzvY8WDeL1R1tne3/NMZdrXQxgAAMYwAAGasoAQTwgawpkpS4+DrX1yJq1t4h2Q/PUp9DjwnF7Ql2fUnf/vvKdH8ivnnhxST93uH1252s3BGyY233fVWvlpU1bRbtuf/ezlmVkZEJ02fqnn0PrQ7/iF23UEXWEAQxUykDriY3y5PaPFkL2Tftuk6Hz74XsRwe2LBn+bsfDMjE5xfGbNhcGMICBChiYvnBGFvZ/rGgYr+NMj5+jzitQ55U6fzIf2mIYwAAGMJB1AwTxNEwasnGaFLTrTl9suI5jIbqOawcKfbrdDcT97/587Wn37mMDUfDvzssCdh0ntCxbpnbdcd3+fOYkhgEMYKC6Bpq6Hy8E8Pqqmb0962VyMlc4T7ghvP5Ia+fgW4VhbKvqbivqm/rGQOMayJ94omgQr0/F5/vWcwzmehcDGMAABjCAgZoxQBAPxprBWMmLJQvA454g9wPz0LJD4bgfvPvf3fnqMP/p+BtvvrPwlL47ri5fn97X4brcUHl0fH16Pu4p/9A09GvcC1C2LdsWA9U1MDE5LVva7i+E8Bt2fkyODzUvOV77IXz/2cNLhrPNqrvNqG/qGwONa2B6/LwsHPhU0TB+4eBameI/kjgXcc2PAQxgAAMYqBEDBPE1siG4UKjchYI9Pe6+4sU+a5itde2H4KH6jwvibV5xXQ3fDx85FoXqcaF5aN6hMrj9bL30JoPbn8+Vs0NdUpcYwEDYQF62OD/K+uzuv5PB4aNLjsX6zvh1f35djT4JTwiPpbAl6oV6wUClDOT7NhQN4qOn4vtfXHK8rtTymQ+WMYABDGAAAxgo1wBBPEF8wzVMNfz23w/vB98WxOtrZiyc93cefxod7j8B73+3+eq0FpzHBfbF+ofK5T9l75eZ75wEMIABDFTewPaOnxeehH95701ybnRgyblzeGxIntn96WgcQvjK1z+mqVMMYCBoYGJC9Il3DduT/uZbb1pyzA7Oi2tC6ggDGMAABjCAgSoYIIivQiXT2KvuxUMorNZg3H8tjBuE6zT+dlppEO/Pz/0emrc7PO5z6CZD3Lj0r6476pv6xkBjGtB3wD+5/ero74Wmz8n5C0tfH6avrHll3y2FcbpPbb/kfIKNxrTBdmW7YmD1DeRPPpcYwltAnxvczLGZ614MYAADGMAABlbdAEE8CFcdYSUvYuwpdP9d6u6T6ro897uG8BrK2ytfNOzW6d2g3obbuP4w97v7Xvi4dVtuEL/c6eLKQf/Vv4BkG7ANMFC7BtpPvl4I2PWJ97PnT15yztzd9VhhnJ2dj1wynO1bu9uXbcO2wUADGJjMyfyhzxcN4+fbb+P4zHUvBjCAAQxgAAOrboAgHoSrjrCSF0H2xLi+msZ9tYsG6PoaGg3qdXluEG/fLWy38oRCb38+/neb77u7DgTDfDewL+Wzzt/Ko10rk9/fHYfPDXBRyXFpiXtMY3o1DJw8e7jwznf9YdbB4c5LXA6N9Mq6HddEQfzGlq+IPh2/GmVlmewjGMBAlg3kB14uGsTrk/G5obc4RtPGxAAGMIABDGBgVQ0QxANwVQFW+qJBn2rXPw2q7Ql3e0reDa8tMNdg28pgIb52tZ+F3m6gb+NaV+fpBvzWv9xuKcvSedp47rqUuyzG52IdAxjAQLIBff2M/iCrvZLm2OndhXOFW3ev7v9GNI6G8aeGu4PjuOPzObneqR/qBwMYWK6B+cM3FQ3j5zpu5zjNtS8GMIABDGAAA6tqgCAegKsKcLmN7dB0Grjffs/DokG6/uk74TW49gN2nTYUxPvztNCbIJ6LQt8G3zGBgcY1MDmZk1f3f70Qwjf3/DZ4nmw7ubkwDq+kaVwP7OtsWwzUh4Hc4KaiQbw+FT9ztil4TGc718d2ZjuxnTCAAQxgoN4NEMQTxDdsY9SejHefjrcddjlBvAXzpbxSRuevyy1l3LhxQu+atzIk3RywdaTLCQoDGMBA+QZ2d/26ELD/8dD3ZGoqf8l5cmx8VJ7e9clovOf2rJULE+OXjEPdl1/31Bl1hgEMrMTAfNvNRcP4uc67OV5z/YsBDGAAAxjAwKoZIIgH36rhW0lDu5Rp9Ul4/dFV/4dbddpygvjNb+yIXj9jr7pxl13qq2n0aX2dXoN0d3r7XGrAHnq63+ZBl4tXDGAAAysz0H1qRyGEf7n5ptiAfXfXo4XxOge2BY/rbIuVbQvqj/rDAAbKNZA79XrRID56Kn74MMdtroExgAEMYAADGFgVAwTxwFsVeOU2rJczvgXxoXe4Fwvi7b3y9rR63BPo5QTxWo5QWXTdSg3idXmhJ+WXUz9MwwUuBjCAgfcMnBsdkKd2/m0UsGt36Hxv8PyoT8Nv2Hl9NN7mg98JjkO9vlev1AV1gQEMVNPAfPttRcP4ua77OXZzDYwBDGAAAxjAwKoYIIgH3qrAS7tBbsG2BtehsDwpiNdhGsDHhe9u2UPzdof7n/Wp+FAYb+VNWqbdHAg9me8vh+9c9GIAAxgo3cDE5LT8vuXmwlPu+mR8XP3pO+PtR1z5gdbS6ziuPulPHWIAA5U0kDu9pWgQf/Fd8S2xx/lKlod54RsDGMAABjCAAdcAQTxBfMM1Qi3UdgNrC9fdfu6OUOyzzdOekC/WDb0OR5fh/qCsu8xSXjmj6xA3X3defOYgjwEMYKA8A9vaf1gI13d2/kfseVHfBW9Pzb9+6I7Y8aj/8uqf+qK+MICBShqYO/LNomH83NF/5RjOdTAGMIABDGAAA1U3QBAPuqqjq2RD25+XvY4mLnC3QD4pSNen3P35Vvp7KNhPWi5Pw3OBWmmDzA9TGLhooOXYU4UQ/pV9t8rk5EzsOcAdt3dob+x41C37FwYwgIHVMzBzZmfRIF6fis+d2c5xnGthDGAAAxjAAAaqaoAgHnBVBZf2RYkG8EmBdtrLT2P+FsKHXmmTxvKY5+pdOFL31D0Gqmugc/DtQgj/3J7PyMjY2dhz4vjEpDy965PR+L9v+XLseGzD6m5D6pv6xgAGQgZmu39cNIyfO/JtjuVcC2MAAxjAAAYwUFUDBPGAqyq4UEOZflxAYQADGMBAtQ0cP90s63dcFwXr+rqZU8NdiefDA70vFkL7zsG3Eset9rqwPPYfDGAAA0sNTI+ekIV9a4qG8bnTb3I853oYAxjAAAYwgIGqGSCIB1vVsHGBsPQCgfqgPjCAAQysjoGLIfy1UbC+bsc1cnyouei58IWmv4/Gf7Hp8zI5lS86Ptt2dbYt9U69YwADZiDft75oED/fdivHc66HMYABDGAAAxiomgGCeLBVDZs1iulygYQBDGAAA6tl4GDvi7Jux5qLIfz2j0rnwLai58HeoZbC0/AHel8oOv5qrRvLZb/CAAYwsNTA/OF/LhrG5wbT/30otsvS7UJ9UB8YwAAGMJBVAwTxBPEEChjAAAYwgIGGN3DmfJ+8fuiOQqC+fse10n2qtB/q29b+w4vB/Y41MnphpOHrKquNYtabC0IMNJ6B3OmtRYP4+cM3cVynHYQBDGAAAxjAQFUMEMQDrSrQuLBpvAsbtinbFAMYqAcDGpzv7PyPwlPwT26/Wp7e9Qk5cWZ/See/sfGxwrvkt7TdX9I09VAvlJH9FwMYyIqBuc57iobx+f4XOb5zXYwBDGAAAxjAQOoGCOJBljqyrDTyWU8uaDGAAQzUhoGJyWnpObVT9En2DTuvLzwFryH8K/tuFX06vtRtdbD35cL0+m75UqdjvNqwwHZgO2AAAzMjR2Vx74cTw/j5QzfK1OQkx3iujTGAAQxgAAMYSNUAQTzAUgXGxQ8XPxjAAAYwkLaB4bHT0nNql7Qce0rePHyPPLP704XwXMN3/Xt2999J28nNMlXmD62+1PwP0fT6Y63lTpv2ejN/9i0MYAADpRnI9z6WGMQvNl0m+b4NXBdxbYwBDGAAAxjAQKoGCOIBliqwSlwc/Kn1LuGPOsAABjCAgU37bpNnd98gG/d9VTQg18/rdlxzSehu4bt2X2r+R2nueVIujF8o+3zXf/ZwYd57e9aXPX0lzoHMo7SQjXqinjCAgUQDExMyf+jziWH8woFPyvT4MMd6ro8xgAEMYAADGEjNAEE8uFLDldgYLqPeN7Z8tRCEuOEKny8+5Uk9UA8YwAAG3jOgwfym/V8TDc5Pj/Ss6Bz3TsfPovPPuu0flZGxMyuaV6XOicyHsBEDGMDA8gzkBjcnBvHRU/G9v+FYX8Z1GhaXZ5F6o94wgAEMZNcAQTwNjZpvbOr7fPmjDjCAAQxgQJ9u1x9a3Xzg20v+3mj9t+i1NCeG9sn4RGXe8avvmX9q18ejIF7/G4PGcnYby2x7tj0GGsfAXMediWH8QstHZGakg2M+18gYwEBVDRxq65Hb73lYRkYmEpe77rlX5dq1t0r/4LnY8XRea9beItp1z19+f13WV77zA9F5uuOV8tktx7btLdF8ipW9lPkyTuOcb9mW8duSIJ4TTNkHXXao+B2KuqFuMIABDDSGge5TOwr/jXV0YAvnStpLGMAABhrAwMy5g7LYdEViGD/XcQfbugG2Ne2xxmiP1cN2tEBbA2m3vBqWa2j+F3/5V5f8+WG6huTvu2pt0UDbDcDdZbmf/cDdhvn9rdwrDeK7evrl3p8+GpVfl2HLo8s+iIGwAYJ4GhkcKDGAAQxgAAMY8Axsa/9RFMRv2Hl9xZ6ypzEaboxSL9QLBjBQTQOzx36ZGMRHr6jpf4HzonderOY2YlkcE+rJQPexgSiI1sDdDbU1iL/x5jsveTJdA3s/iNf1teBeQ+249S83iLewPXQzINTPLX9cGbR/qBzaL6nsSfNjGPt8lgwQxNPAiD3IZ2lHYF058GMAAxjAgBnQ19toAK/v3t/adj/nSdpKGMAABhrJwMSYzB++KTGMX9h3rUyfP8Z2b6TtzrrgOWUDfsDuP4Fu7Ux/POuv3aRhOjwUgLvT6+e45fr9LaR3w3ddfiigL6df6CaDX0a+c92VZQME8SkfjLOMi3Xn4IoBDGAAA/VooHPw7cJraboG3+HClbYSBjCAgQYzMHO2WRabP5AYxs91/hvbvcG2ez22SShz/bal9elwfQe7Bt7udiwWtrvj+p+TgngdFgrMdXk6n1KCeH95cd91nvoqHZ1n3Dj0r1+7bLt0tx1BPI0LDpwYwAAGMIABDDgGthy+Lwri9cda9UdbaYym2xilfqlfDGBgNQzk+zYkBvH6iprcwEbOAc75cTW2E8vk+FBvBuxJcw3FLQR318FeQWOheTmvc0kK4m0ZOo4bkvvLs+X6XZ3O5lGsSxDPflnMCMPjjRDE07Ao+WDLjhS/I1E31A0GMICBxjDgvpbmrfYfc46knYQBDGCggQ3oU+8auMf9LRz4hEyP9WOggQ3QfmuM9ttqbUf3KXR7JYsfhBcrmz5VrsG5BeM6vRvmW/+krgXvNp1912VbEB+6KaDDbZpygngrc9w8i60zw9nvsmyAIJ5GBQ1LDGAAAxjAAAb+bKBjYEvhtTQ9p3ZSL+wbGMAABhrYwPTYoCwc/LvYIF4D+rkufisky4EJ605gWIoBDaQtiC9l/NA4pQTiGpYnLccCcgvt9Wl7C+KtX1zXgnjtxo2j/fV1O/oDtVoOgnj2j5Bl+iW7IIhv4IYl+JPxUz/UDwYwgAEM+AbeaP1+FMQ/s+tTMjmZI4CjnYQBDGCgwQ3kTm9LDOKjV9Sc+gMOGtyB3x7gO23Ecgz4QbwG4ElhtgXaGr7bcioRxOtyb7/nYVmz9pbo/e36/cFH1ieG5knLtRDfD9ytv4X3tg502W8wUNwAQTwNisKBnx2m+A5DHVFHGMAABhrXwIWJcVm/49ooiH+n42ecH2kjYQADGMiIgdneXyeG8QsHPyPTF87gISMeaOs1blsvrW3rB/GlhNsakrvlSZrGxkt6Il7D8RtvvlNe2rS1EMTrdBaaF7sxEArVbVo/iLey+utg5aTLPoSBeAME8TQmlhz82VnidxbqhrrBAAYw0NgGOvrfLLyW5tjpPZwfaSNhAAMYyJCBuSPfTAzjZ7t/gocKeygW5mnIl/QaDtpljd0uq6ft6wfxWnbt576r3dYnLky3/SEUiBebVofrdLrP6Otp7Il47e+H6f73pOX641o5tKvL0tfU6PRufz6zX2Ig2QBBfIUbE4BLBkf9UD8YwAAGMFCrBt48fHcUxD+16+O8lob2EReVGMBAxgzMjHTKwr5rE8P43OktuKigC3uftf+0rbYTLABMCiVD7QkdPxR+2rhJy7RxqtW1srjruNz1rlaZWU64HR8K4i3gdsNqHU+fTA+Zt/FdD35967C4m1P6Cho1pX9uEO/PQ4frk/NqzR/mfzePofImlcWfD9/DbqiXbNYLQXwFGxLsRNncidjubHcMYAAD9W9gfGKy8Fqat4/8tOiFCdu8/rc525BtiAEM+AZyg5sSg/j5QzfK9NhJzhEVuoZOCvJ0WFKg7m87/W5Bpht8+mG3fQ8Fi+48ir3Go9hwtww631AAG+qnwefmN3YU3i8eV87Q+tNv9Y5pup0sIFe7tt0syFYPtl11eGhbmd+44TqNDrPlhOah/dwg3rwX82rD/VfNWPltfdxl2rzdYe6y3XH5vHo2qfvaq3uC+Ao1IsBde7jZJmwTDGAAAxgo1cDRgS2F19L0nNoVvEAqdV6MhzsMYAAD9WtgtufBxDB+rv3rnCNWcA2toZ2FfqGuBoEW/oWGu/38wNLm7QaDOo4b6IfCw2L7a1L4aeGpH2C687Rx/HDeL5s7jX7WeRYLXf1p+L46xx6zZz5dm2ZOh7k2/W1lTmxa/W77g42bZNHGSQrDbRn6xLz+qKt+t+lCXdsXtdy6bFs/LZfNy3Wt42F2dQyGth/9anNbEMSvoBEB6tpEzXZhu2AAAxjAQLkGthy+l9fS0CZKvBgt1xTjcxzCQJ0amJiQ+cP/nBzGd93H8WKF54yksLBY2GiBoB9q+sF1KCi0UNSfNml/TSqPLUOXHTcPXVYohPXLGzc9/Wv/WKLbUrexH0KbVe2vgbWO4wbX7rY1SzqNO52G4TZekkUbJ2nf0nLa8tWlfbZprWtlseBdu7psG25ds23DtBs3T5uGbu17Zhulu40I4lfYgABoukCpX+oXAxjAQHUMJDXs3adhGnF76GtpNuy8Pgri3z7y75dcZDTiOrNO1dmvqGfqGQP1aWBmuE0W9l+fGMbPHv9PzhcruJa2docGefrEunZ1f7E2hwV7NlzDRXe4H/ZZwG7T6bjWzw0T4z67T837+62V1Q1EbRwLLJOCeAtp45Zdan933Wz5dFf/GKMG9P3stn3MsG5X35U7zA/tzVJoOtvOSRZtnFAQr9PpfH2nto/Y/mff/XLbvENd861P2et0/jJC09Bv9d2yDVZvGxDEr6DxANzVg0vdU/cYwECtGbAGrjXCSymfNcb9aawhbg1Z7fqNdXf+Nn6oge2OF/fZpvfLYeNrOfXfV5PKYOPavJZbFptPNbtHB7Y5r6XZSbBC2wgDGMAABiR3ZrssNn8gMYzP97+AlWVa0baN/lnwZ0Gg3+bxg3hrb9n41l7Q6bTt4bZl9HNcYO9Pb/MJdXU+cW0ga/fo8kPTxvXT5Wt5yylH3LzoXzvXReazFA9m1sb194XQdk2yaOPrfOzHWm0ZOp0ND3VtPCtLaJykfjZ9OQF+0vwYVjum2RaV3xYE8ctsOICx8hipU+oUAxioVwPW+Cz3YiquMR26qPMv2Oy7XsT5F3L+MBvH7boNch3fvcDUYe64SZ91XH95+t22pT8sNC+3LDZdNbvua2kmJqcLZa9mGVgWxz8MYAADtWeg2I+3LjZdJvr0PNuuvG3nPojgho9uf6tTbUdYuGfD48J1bWNYm8LGte82P3d51q9YV+fhtpPc8UNtNnd46LNN469HaFz6lWeL+qK+MICBWjdAEE8QT8MRAxjAAAaWacAupELhst/Pv4CzC0Q3tHYbDRrul/JUSmg+Ok9/eTZvK7NdmPrfdTwdVuziMDTdSstiZaxmd2x8VNbvuJbX0ixzH6jmtmJZXFhhAAOrYSDfty7xqfiFfdfQjirzHOKG68WCcXfcuO1vD0S4Qbz2C7WFii0vtIxKB/FWBr+tGPc9rq0YKiv9OE5iAAMYqG0DBPFlNhoAXdug2T5sHwxgoFoG7CLKAu3Qci2s1gsr/yJKLxAt7NZ56atfdHybjw7XfjqOf2Gmw2y8lYbfWi4rh37Wi1Z9z6X1s+X4XVs3d/1XWhZ/GdX43npiY+G1NCeG9hXqtRrLZhkcrzCAAQzUh4HZY79IDOPnD32e80cZ19V+G0ifePfbSbZvaH97It76uV0bbm0Ya5fod/vsjm/tNx3u9rfPWja/3bXc7257zeavXVt/beeFymjj6nhJ627j0a2P4wjbie2EAQyoAYL4MhoM7DTsNBjAAAYwoAbsIi3uIk7HsQu9UKCtw+zdjTY/vRjTiy3/Yi/pIs4fV7/r8ja/sSP4FJguyw3Q3eDc+uvy9KIwNO9QPx3X6sMfXk5ZtGyr8bdp/9ejIP75PZ+Vqan8qpRhNdabZa6ON+qdesdA/RqY67wnMYyfO/qvnENKOJdbe8MCaGsvxbWptL+2L2x8fx/SNoiOY22auPFsumLLs/Hcrs4z9HS9jmPrE9dec+ejn235Ok8td6id6I5X6nz95fC9fo81bDu2HQYa2wBBfAmNBXaCxt4J2L5sXwxgoFQDdrHlXjT5F1E2jl406jB/3jbcLhT1guzGm++MLiDdcXW4uxx3mPtZl+Evy/r5wbj7XedvF4PW3566KmXZ/npomWy57npbP1tGqGt14a5XNT6fHe0vPA3f3PPbS7ZVNcrAMjj+YAADGKgfA3Pt30gM4/Mnn+ZcUuT62gLzUHtA+/mBt7YRtH+xQNrmq+Pb57hlQA1CbgAAIABJREFUxPWPa3cltYusPVSsfLaf63i2HJs21A7S8axdZtPSrZ9jBduKbYUBDMQZIIgv0lCIqzj6s1NhAAMYwIAa6Orpv+SJ8NAFlXkJXRy6wbWNl3TRZ+NoV8fTC0p3HvrZv5C1aUIXfdbPLiJLXbbN07qVKIvNqxrdPd3/VQjiNZSvxjJZBscNDGAAA/VtYL71C4lh/MzZZs4nZVxj20MBbjvG9hFrn2g7J65dY+Na+0rbItYv1E1aXmh87eeG5/44VkZrQ/nD3e+6jn64HiqPtaeKrYs7bz7X93GF7cf2w0B2DBDEl9FIYMfIzo7BtmZbYwADpRqwCyi9SCz3gknHj7tw04u1uCe27CLOLv78IL7Ustt4/oWhlkuf0te/uDJYfyt/pcpiZUq7OzmVl+f2fCYK4l878M3Ei/a0y8L8Od5gAAMYqC8DC/uvJ4yv0HW0taNCQbwNe2nT1iiIT2pnpRXEW/vG2jv+vlpsuI2fVD5dL2vbWfsvbnk2P7r1dcxge7G9MIABM0AQX6EGhFUoXXYuDGAAA41vwC6mNIz2n9CyYXZBFedBx9N/TdaujmPTWcBt3aQLMbtA1XFDF7Bxy3b7hy4g3SBe5+uWVb/bv1Rr2ax8lSiLW660Px8d2FZ4Gr795OsE8bSHMIABDGCgLAOLzR8gjK+AGbf9YG0fC9y1a+0sbW9Y+yPURrB2lE0bGkf72fJKbTcVGz/UjvKXbeMklV/Xz9Y/aTx/3nxfwXXHxLhMn++WmbN7JHd6q+QGX5V8//Myd+Sbor/5kO9bL/m+DfylXAcYXoHhChyDqf/q1z9BPHDLanCyk1Z/J6XOqXMM1I4BvWjTi6S4kN2G24WU37WLSd2mesGVdBFoF5RJ47jLu/HLd0ZP5Nt0/rL977YO7kWuWdN++uOxeiGoyygliK9EWWz51ejqU/BPbr9antn9aZmYnOJcSHsIAxjAAAbKNrBw8IbEMD439G7Z86zGOXA1l6FtDL9Not/99o4F4Bas+9/9dbD2j43vD7fvNh9/eTbc7ZYSoNs49mCCO71+tuFJ4bqVyerFbS/68+N7+dcF0+PnZObMLsmf+K3MHf1/Mn/o72Wh5SOJ++5i02UMr0IdzPY8xDGSc2/mDBDEgz5z6Gm8lN94oc6oMwwkG7CLrLiLMAup7eIwdBHqT2vztGl0G+hnuziz4WvW3hLdGNDgXMN1d3zbbjpvf/46zOZhF37a1QtFnVc5QbzNZyVlsbJWozs4fLTwNHxT9+OcB2kLYQADGMDAsg3ok7NJoV3u9JvLnnc1zomrvQwLod1g3NoVfnitbRl7kMAvd6WDeCuDtbv85dl3Gy/UztJxtL+/HjatldnaXzovm5/2c+vEpqGb3CZ/r37ykht6R+bbb03cP5P2XYalfzOCIL5Uz4z33r5d/3VBEE+jk4YhBjCAAQyswIAG33EXhdpg8EN47acXZXqBFQrN3UaGXbzZE+nuRZlduNp7U3U52k/f667j+/OJu0B0x9PPdgH4qydejC4cdZlJfzrftMril61S398+8u9REL9uxxoZGTu7pK4qtQzmU/+NZLYh2xADGCjVQL5vXWLYp6+8KHVeWRvP2hAWOls7JNS2suA6FI7bsGJtK395ofq2cULL8ce38pbaztLprW2o7atSQvpi6+SXKdvf85Ib+L0sHPhUeJ/c+yGZb/uKzHXdK7O9j0pu4BWZOdskM8NtMj3aK9MXzsrU+DmZmhjlr1p1sILrsGxb5xxdr9ufIJ6dnkYhBjCAAQwsw4BeFOkFlF0cadc+W6PAH8f6l9pNulCzkL772ED0lLxdwOq8bblJAXrchZ9dfG5+Y0d0cajztRsB2tXvNq2Wwf60X6XLUmo9lTPe8NgpWb/j2iiI39r2APaXYb+c+mZcLpIwgIGsGNB3TCc9QZvvf4lzTuCcY+0Oa29o+B0K4c2Rje+PU6kgXsvhtu9suXHdcoJ4K7vOX5cTN0+3v61XOWVyp8/S55mRIzLf+sWl+2HzlTLXeY/kBjdF74OfmsqXVO9ZqjfWlfM0BqprgCA+0BgAYXURUt/UNwYwUE8G7CLKf/JJg2u9KNQLK7so8y8S/fV0A3P/qStbjl54ucuy/j98+PHoSXS7QEu6oLOw3F++fbd56rL0T8uiobqG6zpfXYZ+1q5+94N4fSpf51GJsliZ0uq+0/GzwmtpTg13cTFGOwgDGMAABipmYObcflnc+9dLg0DnPcv5k09VbFlpnSerPV9rg2j7QtsrfnsoVB5rb1h7JDQO/bJzfaHvgJ/tekAWmy4v7HsLBz4e/cjq9Ph59jmO8RjAQE0ZIIgHZE2BpMGUnQYT25pt3YgG3GDdDc/ddbWLx7gnm3Q6C8R1fnphauG4Tqv93ItUm5+O5y7H/RwXxNvFr13I2g0EHd8+63x1GUlBvC1rJWWxeaTZPTvaL+t2XBMF8Vva7o+trzTLwLw59mEAAxhobAP6eov5w/9cCAT9p+TzJ/htEvaBxt4Hqrl9Z4YPy8K+Ne/tb3v/WvK9v5GpySnaeWRdGMBATRogiAdmTcKs5smbZdEQxAAGKmHAAnQLtcuZp4XeGrjrfPxpLeB2A3obx4ZZEG/lsHGTun5ZdR72FL+VaSVB/ErKYutXye62tgf+/G74a0RD+UrOm3lxHMEABjCAgYKBiTFJ+hHX2e4HZHp8mPMQ1+IYWIGB3Kk/ymLzlYUQfq7juzI9NkidrqBOC8cw5oEjDKRmgCAeXKnh4iDOxQgGMNDoBtygWZ9UX4319YP4lZRB18fWww3i/Xm66203AHScSpbFX+ZKv3cNvl14Jc07Rx5clW210nVgeo6pGMAABurLwGzPg4WQ0H8yfr71CzJzZifnI67HMVCugcmczB77+Xv7VvOVwg8i19exkXMZ2yvLBgjiyz3oMz4NBQxgAAOZNWDhtD1l7obQWW5M1Pq6D40clw07r4+C+Of3fFZGL4xk1nCtbyvKx4UZBjDQaAbyJ5+RhZar3wsNnXfGazjPq2ow32jmU12fiVGZb7ulsD8t7L9e9PU0qS6Taz/qFwMYqKABgvgKViYHfxpRGMAABjCAgdoyMD4xIS81/0MUwq/fca0MnOugIUnbBwMYwAAGqmpg5nynzB39XiE89J+On+u4XabP91S1TLRXaqu9wvYovj2mR0/KwoFPFfaj+bYv84onjuUcNzFQdwYI4kFbd2hppBRvpFBH1BEGMICBiwbePHxv4ZU0h078nnMe7R4MYAADGFg1A/mBl2Vh/8cKQaIbyGv/3ODmVSsb7QbajrVsYObcfllo+Uhh35nt+alMTebYXzieYwADdWeAIB60dYe2lhsIlI0GLAYwgIHaMDAxOSXb2n9YCOE1kGfb1Ma2YTuwHTCAgSwbmB49IXNd9xYCRTeM18+zPT+TqclJzllcp2Pgzwb0BtVi8/sv7jPNV0huYCN1w/6BAQzUrQGCePDWLd4sN+BZdy5gMYABDMQbODvaL79vubkQwr/R+n2ZmJzmfEebBwMYwAAGasZAbvA1WTh4QzCQnz/8ZckNvVMzZaXNEd/moG5SrJuJCzLXdX9hH9En4mfONrNfcBzHAAbq2gBBPIDrGjANnxQbPuwb7BsYwEAdGjh2erc8tevjhRC+qfsJtmMdbkfO75zfMYCBLBiYvjAks90/KQSN/tPxcx3flZkzOzmPcR7LnIGZ4VZZOPDJwr6h74bXd8Rn4bjAOnL+w0BjGyCI56TOyQwDGMAABjBQ1wYujF+QtpObZfOBbxcCeP1h1s6BbXW9XjTCG7sRzvZl+2IAA2Ygd3qLzLf+QyF0vCSQP/o9mTnbxDmN9lrjG5gYk9ljD8ti8xWF/WGu8y6Zmhht/HXHN9sYA5kwQBAP9ExAt0YuXS54MIAB38DAuQ7hrz7qoP9sWxS4H+n/o7Qce0re7XhYXj90h2zYeX0hgH9y+9XyzO5PS/+5ds5vtHEwgAEMYKCuDOROvylzHXcUAshLAvnO78vMuX11tU5+u4vvtMXDBnKSO/VHWdi3puB/oeUq0ZtU4fGpR+oFAxioTwME8TROObFhAAMYyLSBPV2/WRLiapDLXz3WwUejJ+Lb+l4TfUKehml9NkzZbmw3DGAAA7Oir+WY7XlIFvZdUwgl3VB+rus+mRk+xLmONnzdG5geH5F833pZ2P8xx/oVMtv1gExfOFv368fxjHMaBjDgGyCI5+TNyQ0DGMBApg0QxNdj6H519B74V/bdJtvafyj7jz8r50ZPZdqx38DjO41+DGAAA/VvYPrCGcmffCr2tTVzR78n+f7nZWakk3Mg7fm6MTA9fl5yg5tkruM7sth8pRPAXybz7V+T6fPddbMuaR9n1z33qly79lbpHzwX1cnIyIR85Ts/EO0ft+xDbT2yZu0tol13HL9/KfNyp3c/u+Xatr0lKpPOzx2Hz/V/DmIbprMNCeI5YXOwxAAGMJBpA92ntgt/9VEHnYNvy4HeF2Rk7EymzdIoTqdRTL1SrxjAQC0bKPbamvlDfy+zPT+V3NBbMjU5w3mS9n0NGcjL9Giv5Ptfkrn2r8ti8/uXhO+LTZfL3JFvR/8JUsv7YKhsGpBrUP4Xf/lXy/pzQ3YNyt931VrRYNuWde9PH10ScmvYrcN1PP3zw3adzg/cbV5+/0oF8V09/aLljCuPLZ8u51gMXDRAEM8JunCQZ6fgwIgBDGAAAxjAAAYwgAEMYKB2Dehra/J9T8rckX+Rxb0f8gLNyy5+b/6gzLd/XfInn5Hp0eNc73HNX0UDueiJ9tzg5uhHV+fbviqLez8cdDp/6LMye/w/ZeZ84/xHhwXzbphux1M/CLf+1nWfMtd+FpRryG3juF3tHxrmLsfmUeqNgqQn7d1l+2XVYdovVB53Oj7X7rmFbVO9bUMQz0k5eFBnJ6zeTkhdU9cYwAAGMIABDGAAAxjAQNkGJsYkd3qrzPY8KPOHPh8MO6N3y+/9sCwc/IzMt98qc513y+zx/4hC+typ12Xm7G6ZGTkquTPabecv43WQO/UnmT32C8mffDp6LVK+b4Pk+9ZFN3/yvY9Lvve/ovB8tuffZa7zruiG0HzrTbJw8AZZaLlaFpuviHfYdIXMt31ZdJ7TYycbModYbhBv07lBeKhfKccIN4h3x/f7W0jvLlNvIJQa2seN5z7l7y6fz5zjMHDRAEE8QXxDngDZwTnIYwADGMAABjCAAQxgAANZMjA91i+5gY0yd/Su2B96dX/0lc9//g+CJroVt9B8ZXRzaK7rfsmffFZmzrXI1MSFhs8eLDwv94n4lQbgGn4/8vgLwRDdylJKEF/q8VLnyatoOL+W6oXxllohiCeIb/iTITv90p2e+qA+MIABDGAAAxjAAAYw0PgGZkaORO+M1x/G1B99nT3+K5nt/kkU1Ou7uudb/1EWDnxKFlr+JuEpZkLqiofUjR78N38w+hHW+dYvyMUg/jmZObePID7mR1TjjsX6pLr+MKs+uR43Tqi/TueG5HZzIO4JduvvPhkfmq/bjyC+8c8f7vbmc2W3N0E8QXxZB3V2wMrugNQn9YkBDGAAAxjAAAYwgAEMrLaB3Oltwh91oL8rMNf1g4uvpul7KnqNjL2aZvbE45I/oa+meUTmuu6Lfnh1/tCNZdzIuULmD/NqGn0yvdj+HnptTLFpdLhNFwri7cl4fz42TTlBvK6DLiNunv4y+M45DgPvGSCIJ4gvehJgh3lvh6EuqAsMYAADGMAABjCAAQxgAAMYwIBjYHJKpkf7ZOZsi+T7X5DZrh+IPhG/2PyB2P+24MdanfrzcikNuO1J9aSu/z52C8htGv3x1HKfiNdA3qYPdfUp/e5jA6LLJoiP34YcH6ibOAME8d4BL66i6M9OhAEMYAADGMAABjCAAQxgAAMYwAAGSjQwOSUzw22SH/idzHV+Xxb3figYzM8d+bbMDLfW1UOC9iR5KKwup5+G5b4n7aeB94033ylxT9DbOFoOm1773X7Pw7Jm7S3RdPr9wUfWJ4bmth6hJ+ItxPcDd+sfmsbKQrfEfYRMsuA3K2YI4kGfOfRZ2blZT058GMAABjCAAQxgAAMYwAAGMFAzBianJDf0TvRqm4WWj1wSys+33yYzI511m1FoQB0XnmugbgF50vawp9o1/NagOxR22zjuMFv2S5u2LlmOhebFbg6487Ly2bR+EG/hvQb9Ni5djjMYKM0AQTxBPAdODGAAAxjAAAYwgAEMYAADGMAABjBQPQOTOckNvStzR74pi02XO6H85TLXebdMjw1UrywV2u5JYXvSMDfAdJ901yBcn4zXrj+O/1oaDdJ1Wn85fpjuf7dQvZwgXsviltMtG59LC2Opp+zWE0F8hQ647ETZ3YnY9mx7DGAAAxjAAAYwgAEMYAADGMDA8gxMj56Q2a4HnDD+Mlnc+38kN7hpSQBd6/WrT477AbmV2Q/Irb/bDY2j89Qw3l5Bo9/16Xb/KXV9BY1OH5qHvwx9at8P991x7LMf2lt/7WpwH7eu7nh8Xt4+Qb01br0RxBPE19WJjYNR4x6M2LZsWwxgAAMYwAAGMIABDGAAA9k1MHO2SRb2XbckkJ/rvEumJt57D3ot+9Bw2g3N3bIWC8jtyfTQ617cp93fd9Xa6Gl0d97uZ3c5+lnHL/ZaGhvuLzspiLd5uzcE3GW7ZeJzdvdptv2l254gniCeIB4DGMAABjCAAQxgAAMYwAAGMIABDKy+gYmxS56Onz/02Zp/VY2F1qFXvGgYWSykTnrVi4XeGpjHBf0WeCYtx8J+fVe9/qirPWVv0/pdWycN23W93MDe5uWWR8fjKflLg1e/Xvme7ToiiOdEu/onWrYB2wADGMAABjCAAQxgAAMYwAAGMICBPxvIndkuC/vWFJ6OX2j5G5kZbq3J+rHA2g2l/bA1KSDXkFufXNdx3Oks7NYAXIN6W05c2K/TJi3HDfs1NI8rr7tcC99Dy9R56HAbpt24ebrrxedsB9FZ3/4E8Zzolxzos75DsP6cEDCAAQxgAAMYwAAGMIABDGAAA6tvYHr8vMx1fLcQxi82Xym5wc01lWFo8K0herEAOi4gD/W3eVoA71vUwDtuWGh+cePbcjRQ12XY99BNAb8M9l3DfS2LPmWv0+l3G0Z39fchtkHtbQOCeIJ4DpIYwAAGMIABDGAAAxjAAAYwgAEMYKAmDeT7Nshi0+WFQH6250GZmsytelntiXALspNCz1BA7o9vQbgG26XM05bvvg7GXY6F5PbEur88+27jLTdEt+nLCfBt2XRrLyhmm6S7TQjiOdGu+smLnTzdnZz6pX4xgAEMYAADGMAABjCAAQxgoJ4N5IbelsXmDxbC+Pm2r8j0+Ah5BpkWBjBQVwYI4gFbV2DrueFA2Wn4YgADGMAABjCAAQxgAAMYwAAGlmdgZqRdFvZdWwjjFw58XKbPL32vOnW7vLql3qg3DFTHAEE8QTxBPAYwgAEMYAADGMAABjCAAQxgAAMYqHkD0xfOyPzhfyqE8Yt7PyS5oXdrvtyEnNUJOaln6rnWDRDEc6LlhIUBDGAAAxjAAAYwgAEMYAADGMAABurDwOSMzHXd914Y33S5zHb/SKYmxuqj/DhjO2EgswYI4sGfWfy1fpeM8nEnFwMYwAAGMIABDGAAAxjAAAYwEDaQ739eFpvfXwjk9bU1M2d2knGQc2EAAzVrgCAenDWLk8ZGuLFBvVAvGMAABjCAAQxgAAMYwAAGMICBWZkZ6ZD51i8UwvjFpstk7uhdMjNylKyDvAsDGKg5AwTxoKw5lDQmaFBiAAMYwAAGMIABDGAAAxjAAAYwUJqBvOT7X5KFlquWBPLzrV+U3MBGmR7rJ/cg+8IABmrCAEE8EGsCYmknVxoh1BMGMIABDGAAAxjAAAYwgAEMYAADlxqYHh+Wua57ZbH5yiWBvD4lv7DvGpk78i2Z7X1UcoObZOZsk0yPnpSpyRyZCLkYBjBQNQME8WCrGjYaCpc2FKgT6gQDGMAABjCAAQxgAAMYwAAGMFA5A9PjI5Lvf0HmW2+6JJDXUL743+Wy0PJ/oyfs9Sl7/tKpg9meh8ijyCQzZ4AgHvSZQ08Dp3INHOqSusQABjCAAQxgAAMYwAAGMICBWjUwfeGU5AZfjZ6UX9h3XQkhfClBPeMUv5lRvI4I4jlu1OpxI81yEcQTxBPEYwADGMAABjCAAQxgAAMYwAAGMICBhjcwPX4++oHX3NA70VPz+d5Ho9fV6Ctr9G++/Wsy1/41me15UGZ7fsZfqnXAE/FpBr7MuzZvdBDEc6Jt+BMtB5/aPPiwXdguGMAABjCAAQxgAAMYwAAGMIABDGAAA1kxQBBPEE8QjwEMYAADGMAABjCAAQxgAAMYwAAGMIABDGAAAykaIIhPsXKzcjeH9eTOJQYwgAEMYAADGMAABjCAAQxgAAMYwAAGMICBeAME8QTx3OnCAAYwgAEMYAADGMAABjCAAQxgAAMYwAAGMICBFA0QxKdYudwBir8DRN1QNxjAAAYwgAEMYAADGMAABjCAAQxgAAMYwEBWDBDEE8RzpwsDGMAABjCAAQxgAAMYwAAGMIABDGAAAxjAAAZSNEAQn2LlZuVuDuvJnUsMYAADGMAABjCAAQxgAAMYwAAGMIABDGAAA/EGCOIJ4rnThQEMYAADGMAABjCAAQxgAAMYwAAGMIABDGAAAykaIIhPsXK5AxR/B4i6oW4wgAEMYAADGMAABjCAAQxgAAMYwAAGMICBrBggiCeI504XBjCAAQxgAAMYwAAGMIABDGAAAxjAAAYwgAEMpGiAID7Fys3K3RzWkzuXGMAABjCAAQxgAAMYwAAGMIABDGAAAxjAAAbiDRDEE8RzpwsDGMAABjCAAQxgAAMYwAAGMIABDGAAAxjAAAZSNEAQn2Llcgco/g4QdUPdYAADGMAABjCAAQxgAAMYwAAGMIABDGAAA1kxQBBPEM+dLgxgAAMYwAAGMIABDGAAAxjAAAYwgAEMYAADGEjRAEF8ipWblbs5rCd3LjGAAQxgAAMYwAAGMIABDGAAAxjAAAYwgAEMxBsgiCeI504XBjCAAQxgAAMYwAAGMIABDGAAAxjAAAYwgAEMpGiAID7FyuUOUPwdIOqGusEABjCAAQxgAAMYwAAGMIABDGAAAxjAAAayYoAgniCeO10YwAAGMIABDGAAAxjAAAYwgAEMYAADGMAABjCQogGC+BQrNyt3c1hP7lxiAAMYwAAGMIABDGAAAxjAAAYwgAEMYAADGIg3QBBPEM+dLgxgAAMYwAAGMIABDGAAAxjAAAYwgAEMYAADGEjRAEF8ipXLHaD4O0DUDXWDAQxgAAMYwAAGMIABDGAAAxjAAAYwgAEMZMUAQTxBPHe6MIABDGAAAxjAAAYwgAEMYAADGMAABjCAAQxgIEUDBPEpVm5W7uawnty5xAAGMIABDGAAAxjAAAYwgAEMYAADGMAABjAQb4AgniCeO10YwAAGMIABDGAAAxjAAAYwgAEMYAADGMAABjCQogGC+BQrlztA8XeAqBvqBgMYwAAGMIABDGAAAxjAAAYwgAEMYAADGMiKAYJ4gnjudGEAAxjAAAYwgAEMYAADGMAABjCAAQxgAAMYwECKBgjiU6zcrNzNYT25c4kBDGAAAxjAAAYwgAEMYAADGMAABjCAAQxgIN4AQTxBPHe6MIABDGAAAxjAAAYwgAEMYAADGMAABjCAAQxgIEUDBPEpVi53gOLvAFE31A0GMIABDGAAAxjAAAYwgAEMYAADGMAABjCQFQME8QTx3OnCAAYwgAEMYAADGMAABjCAAQxgAAMYwAAGMICBFA0QxKdYuVm5m8N6cucSAxjAAAYwgAEMYAADGMAABjCAAQxgAAMYwEC8AYJ4gnjudGEAAxjAAAYwgAEMYAADGMAABjCAAQxgAAMYwECKBgjiU6xc7gDF3wGibqgbDGAAAxjAAAYwgAEMYAADGMAABjCAAQxgICsGCOIJ4rnThQEMYAADGMAABjCAAQxgAAMYwAAGMIABDGAAAykaIIhPsXKzcjeH9eTOJQYwgAEMYAADGMAABjCAAQxgAAMYwAAGMICBeAME8QTx3OnCAAYwgAEMYAADGMAABjCAAQxgAAMYwAAGMICBFA0QxKdYudwBir8DRN1QNxjAAAYwgAEMYAADGMAABjCAAQxgAAMYwEBWDBDEE8RzpwsDGMAABjCAAQxgAAMYwAAGMIABDGAAAxjAAAZSNEAQn2LlZuVuDuvJnUsMYAADGMAABjCAAQxgAAMYwAAGMIABDGAAA/EGCOIJ4rnThQEMYAADGMAABjCAAQxgAAMYwAAGMIABDGAAAykaIIhPsXK5AxR/B4i6oW4wgAEMYAADGMAABjCAAQxgAAMYwAAGMICBrBggiCeI504XBjCAAQxgAAMYwAAGMIABDGAAAxjAAAYwgAEMpGiAID7Fys3K3RzWkzuXGMAABjCAAQxgAAMYwAAGMIABDGAAAxjAAAbiDRDEE8RzpwsDGMAABjCAAQxgAAMYwAAGMIABDGAAAxjAAAZSNEAQn2Llcgco/g4QdUPdYAADGMAABjCAAQxgAAMYwAAGMIABDGAAA1kxQBBPEM+dLgxgAAMYwAAGMIABDGAAAxjAAAYwgAEMYAADGEjRAEF8ipWblbs5rCd3LjGAAQxgAAMYwAAGMIABDGAAAxjAAAYwgAEMxBsgiCeI504XBjCAAQxgAAMYwAAGMIABDGAAAxjAAAYwgAEMpGiAID7FyuUOUPwdIOqGusEABjCAAQxgAAMYwAAGMIABDGAAAxjAAAayYoAgniCeO10YwAAGMIABDGAAAxjAAAYwgAEMYAADGMAABjCQogGC+BQrNyt3c1hP7lxiAAMYwAAGMIABDGAAAxjAAAYwgAEMYAADGIg3QBBPEM+dLgxgAAMYwAAGMIABDGAAAxjAAAYwgAEMYAADGEh+CWdOAAAHj0lEQVTRAEF8ipXLHaD4O0DUDXWDAQxgAAMYwAAGMIABDGAAAxjAAAYwgAEMZMUAQTxBPHe6MIABDGAAAxjAAAYwgAEMYAADGMAABjCAAQxgIEUDBPEpVm5W7uawnty5xAAGMIABDGAAAxjAAAYwgAEMYAADGMAABjAQb4AgniCeO10YwAAGMIABDGAAAxjAAAYwgAEMYAADGMAABjCQogGC+BQrlztA8XeAqBvqBgMYwAAGMIABDGAAAxjAAAYwgAEMYAADGMiKAYJ4gnjudGEAAxjAAAYwgAEMYAADGMAABjCAAQxgAAMYwECKBgjiU6zcrNzNYT25c4kBDGAAAxjAAAYwgAEMYAADGMAABjCAAQxgIN4AQTxBPHe6MIABDGAAAxjAAAYwgAEMYAADGMAABjCAAQxgIEUDBPEpVi53gOLvAFE31A0GMIABDGAAAxjAAAYwgAEMYAADGMAABjCQFQME8QTx3OnCAAYwgAEMYAADGMAABjCAAQxgAAMYwAAGMICBFA0QxKdYuVm5m8N6cucSAxjAAAYwgAEMYAADGMAABjCAAQxgAAMYwEC8AYJ4gnjudGEAAxjAAAYwgAEMYAADGMAABjCAAQxgAAMYwECKBgjiU6xc7gDF3wGibqgbDGAAAxjAAAYwgAEMYAADGMAABjCAAQxgICsGCOIJ4rnThQEMYAADGMAABjCAAQxgAAMYwAAGMIABDGAAAykaIIhPsXKzcjeH9eTOJQYwgAEMYAADGMAABjCAAQxgAAMYwAAGMICBeAME8QTx3OnCAAYwgAEMYAADGMAABjCAAQxgAAMYwAAGMICBFA0QxKdYudwBir8DRN1QNxjAAAYwgAEMYAADGMAABjCAAQxgAAMYwEBWDBDEE8RzpwsDGMAABjCAAQxgAAMYwAAGMIABDGAAAxjAAAZSNEAQn2LlZuVuDuvJnUsMYAADGMAABjCAAQxgAAMYwAAGMIABDGAAA/EGCOIJ4rnThQEMYAADGMAABjCAAQxgAAMYwAAGMIABDGAAAykaIIhPsXK5AxR/B4i6oW4wgAEMYAADGMAABjCAAQxgAAMYwAAGMICBrBggiCeI504XBjCAAQxgAAMYwAAGMIABDGAAAxjAAAYwgAEMpGiAID7Fys3K3RzWkzuXGMAABjCAAQxgAAMYwAAGMIABDGAAAxjAAAbiDRDEE8RzpwsDGMAABjCAAQxgAAMYwAAGMIABDGAAAxjAAAZSNEAQn2Llcgco/g4QdUPdYAADGMAABjCAAQxgAAMYwAAGMIABDGAAA1kxQBBPEM+dLgxgAAMYwAAGMIABDGAAAxjAAAYwgAEMYAADGEjRAEF8ipWblbs5rCd3LjGAAQxgAAMYwAAGMIABDGAAAxjAAAYwgAEMxBsgiCeI504XBjCAAQxgAAMYwAAGMIABDGAAAxjAAAYwgAEMpGiAID7FyuUOUPwdIOqGusEABjCAAQxgAAMYwAAGMIABDGAAAxjAAAayYoAgniCeO10YwAAGMIABDGAAAxjAAAYwgAEMYAADGMAABjCQogGC+BQrNyt3c1hP7lxiAAMYwAAGMIABDGAAAxjAAAYwgAEMYAADGIg3QBBPEM+dLgxgAAMYwAAGMIABDGAAAxjAAAYwgAEMYAADGEjRAEF8ipXLHaD4O0DUDXWDAQxgAAMYwAAGMIABDGAAAxjAAAYwgAEMZMUAQTxBPHe6MIABDGAAAxjAAAYwgAEMYAADGMAABjCAAQxgIEUDBPEpVm5W7uawnty5xAAGMIABDGAAAxjAAAYwgAEMYAADGMAABjAQb4AgniCeO10YwAAGMIABDGAAAxjAAAYwgAEMYAADGMAABjCQogGC+BQrlztA8XeAqBvqBgMYwAAGMIABDGAAAxjAAAYwgAEMYAADGMiKAYJ4gnjudGEAAxjAAAYwgAEMYAADGMAABjCAAQxgAAMYwECKBgjiU6zcrNzNYT25c4kBDGAAAxjAAAYwgAEMYAADGMAABjCAAQxgIN4AQTxBPHe6MIABDGAAAxjAAAYwgAEMYAADGMAABjCAAQxgIEUDBPEpVi53gOLvAFE31A0GMIABDGAAAxjAAAYwgAEMYAADGMAABjCQFQME8QTx3OnCAAYwgAEMYAADGMAABjCAAQxgAAMYwAAGMICBFA0QxKdYuVm5m8N6cucSAxjAAAYwgAEMYAADGMAABjCAAQxgAAMYwEC8AYJ4gnjudGEAAxjAAAYwgAEMYAADGMAABjCAAQxgAAMYwECKBgjiU6xc7gDF3wGibqgbDGAAAxjAAAYwgAEMYAADGMAABjCAAQxgICsGCOIJ4rnThQEMYAADGMAABjCAAQxgAAMYwAAGMIABDGAAAykaIIhPsXKzcjeH9eTOJQYwgAEMYAADGMAABjCAAQxgAAMYwAAGMICBeAME8QTx3OnCAAYwgAEMYAADGMAABjCAAQxgAAMYwAAGMICBFA0QxKdYudwBir8DRN1QNxjAAAYwgAEMYAADGMAABjCAAQxgAAMYwEBWDBDEE8RzpwsDGMAABjCAAQxgAAMYwAAGMIABDGAAAxjAAAZSNPD/AUFrMdBe4F7uAAAAAElFTkSuQmCC;" vertex="1" parent="1">
          <mxGeometry x="-720" y="40" width="926" height="445.79" as="geometry" />
        </mxCell>
        <mxCell id="WrSv1xXUgQNj0wUz3mzL-16" value="准则1:茶话会以欢快轻松，开拓视野，交流经验为主；1人牵头，但是可以1人主讲，或多人乃至讨论为主，形式多样；&lt;br&gt;面向对象希望是全体人员；轮班制；&lt;br&gt;准则2：专题型讲座广度和深度兼具；2-3人(不固定)分组；前后端各自商量；预计1-2月分享完一个专题；&lt;br&gt;面向对象为对该专题感兴趣的人员；&lt;br&gt;准则3 ：茶话会与专题型讲座交替进行；茶话会时间比例不超过50%；急需型讲座可以占用茶话会时间&lt;br&gt;&lt;b&gt;&lt;font color=&quot;#000000&quot;&gt;一个简要分享纪要；作为技术分享会记录留存。&lt;/font&gt;&lt;/b&gt;" style="text;html=1;align=center;verticalAlign=middle;resizable=0;points=[];autosize=1;strokeColor=none;fillColor=none;fontSize=18;fontColor=#7F00FF;" vertex="1" parent="1">
          <mxGeometry x="-315" y="721.4099999999999" width="950" height="140" as="geometry" />
        </mxCell>
        <mxCell id="WrSv1xXUgQNj0wUz3mzL-19" value="" style="verticalLabelPosition=bottom;verticalAlign=top;html=1;shape=mxgraph.basic.smiley;fontSize=18;fontColor=#7F00FF;" vertex="1" parent="1">
          <mxGeometry x="365" y="132.40999999999997" width="30" height="30" as="geometry" />
        </mxCell>
        <mxCell id="WrSv1xXUgQNj0wUz3mzL-20" value="深度与广度并存！！！！" style="text;html=1;strokeColor=none;fillColor=none;align=center;verticalAlign=middle;whiteSpace=wrap;rounded=0;fontSize=18;fontColor=#FF5912;" vertex="1" parent="1">
          <mxGeometry x="365" y="182.40999999999997" width="220" height="30" as="geometry" />
        </mxCell>
        <mxCell id="WrSv1xXUgQNj0wUz3mzL-22" style="edgeStyle=orthogonalEdgeStyle;rounded=0;orthogonalLoop=1;jettySize=auto;html=1;exitX=0;exitY=0.5;exitDx=0;exitDy=0;entryX=1;entryY=0.5;entryDx=0;entryDy=0;fontSize=18;fontColor=#FF5912;" edge="1" parent="1" source="WrSv1xXUgQNj0wUz3mzL-21" target="WrSv1xXUgQNj0wUz3mzL-4">
          <mxGeometry relative="1" as="geometry" />
        </mxCell>
        <mxCell id="WrSv1xXUgQNj0wUz3mzL-21" value="针对某一个知识点的压缩饼干" style="text;html=1;strokeColor=none;fillColor=none;align=center;verticalAlign=middle;whiteSpace=wrap;rounded=0;fontSize=18;fontColor=#7F00FF;" vertex="1" parent="1">
          <mxGeometry x="530" y="633.4099999999999" width="86" height="55" as="geometry" />
        </mxCell>
      </root>
    </mxGraphModel>
  </diagram>
</mxfile>
